<?xml version="1.0" encoding="UTF-8"?>
<svg version="1.1" xmlns="http://www.w3.org/2000/svg" width="500" height="500">
<path d="M0 0 C0.90105469 0.02707031 1.80210937 0.05414063 2.73046875 0.08203125 C3.76107422 0.13423828 3.76107422 0.13423828 4.8125 0.1875 C4.8125 3.1875 4.8125 3.1875 2.9375 5.375 C0.8125 7.1875 0.8125 7.1875 -1.1875 7.1875 C-1.1875 8.1775 -1.1875 9.1675 -1.1875 10.1875 C-2.84965268 11.52645632 -4.51713607 12.85880142 -6.1875 14.1875 C-9.14021348 18.06820915 -10.68806336 21.58922765 -12.1875 26.1875 C-13.6875 28.5625 -13.6875 28.5625 -15.1875 30.1875 C-15.8475 30.1875 -16.5075 30.1875 -17.1875 30.1875 C-17.1875 30.8475 -17.1875 31.5075 -17.1875 32.1875 C-18.1775 32.6825 -18.1775 32.6825 -19.1875 33.1875 C-12.9175 33.5175 -6.6475 33.8475 -0.1875 34.1875 C0.1425 33.1975 0.4725 32.2075 0.8125 31.1875 C3.43437494 32.23624998 4.60621361 32.83681313 6.0625 35.3125 C6.31 35.93125 6.5575 36.55 6.8125 37.1875 C5 39.1875 5 39.1875 2.8125 41.1875 C1.8225 41.1875 0.8325 41.1875 -0.1875 41.1875 C-0.5175 40.5275 -0.8475 39.8675 -1.1875 39.1875 C-16.0375 38.8575 -30.8875 38.5275 -46.1875 38.1875 C-46.1875 35.1875 -46.1875 35.1875 -44.6875 33.5 C-44.1925 33.066875 -43.6975 32.63375 -43.1875 32.1875 C-43.79078125 32.17332031 -44.3940625 32.15914063 -45.015625 32.14453125 C-51.53863749 31.7552547 -51.53863749 31.7552547 -54.6875 29 C-56.35943851 25.8651153 -57.11336293 23.74607941 -57.1875 20.1875 C-55.55315459 16.48871827 -53.63671356 14.26797802 -50.1875 12.1875 C-47.609375 12.11328125 -47.609375 12.11328125 -44.9375 12.5 C-43.59945312 12.67982422 -43.59945312 12.67982422 -42.234375 12.86328125 C-41.55890625 12.97027344 -40.8834375 13.07726562 -40.1875 13.1875 C-39.8575 15.4975 -39.5275 17.8075 -39.1875 20.1875 C-41.0625 19.875 -41.0625 19.875 -43.1875 19.1875 C-43.8475 18.1975 -44.5075 17.2075 -45.1875 16.1875 C-47.77130177 15.93719023 -47.77130177 15.93719023 -50.1875 16.1875 C-50.38564261 22.27158472 -50.38564261 22.27158472 -49.1875 28.1875 C-48.28 27.878125 -47.3725 27.56875 -46.4375 27.25 C-44.02186662 26.4602737 -41.65969715 25.75800703 -39.1875 25.1875 C-39.1875 26.1775 -39.1875 27.1675 -39.1875 28.1875 C-35.91420666 25.59931457 -33.03912654 23.14450679 -30.4375 19.875 C-29.695 18.988125 -28.9525 18.10125 -28.1875 17.1875 C-27.5275 17.1875 -26.8675 17.1875 -26.1875 17.1875 C-25.8575 16.1975 -25.5275 15.2075 -25.1875 14.1875 C-23.26171875 13.37890625 -23.26171875 13.37890625 -20.875 12.75 C-16.96879688 11.58433939 -14.89030232 10.32275069 -12.1875 7.1875 C-11.5275 7.1875 -10.8675 7.1875 -10.1875 7.1875 C-9.919375 6.589375 -9.65125 5.99125 -9.375 5.375 C-6.93000897 0.87106916 -5.16072365 -0.20106716 0 0 Z M-31.1875 26.1875 C-32.94858434 28.13530172 -34.57029278 30.11545325 -36.1875 32.1875 C-35.8575 32.8475 -35.5275 33.5075 -35.1875 34.1875 C-32.8775 34.1875 -30.5675 34.1875 -28.1875 34.1875 C-29.1775 33.8575 -30.1675 33.5275 -31.1875 33.1875 C-30.8575 31.8675 -30.5275 30.5475 -30.1875 29.1875 C-29.59582031 29.24550781 -29.00414062 29.30351562 -28.39453125 29.36328125 C-22.84525141 29.69174885 -22.84525141 29.69174885 -18.1875 26.75 C-17.5275 25.904375 -16.8675 25.05875 -16.1875 24.1875 C-15.8575 23.8575 -15.5275 23.5275 -15.1875 23.1875 C-15.14669217 21.18791636 -15.14495644 19.18704746 -15.1875 17.1875 C-22.11798575 17.1875 -26.55893001 21.59694702 -31.1875 26.1875 Z M-27.1875 33.1875 C-23.1875 34.1875 -23.1875 34.1875 -23.1875 34.1875 Z " fill="#8B754B" transform="translate(282.1875,228.8125)"/>
<path d="M0 0 C2.29109597 -0.08075665 4.58299267 -0.13907731 6.875 -0.1875 C8.78925781 -0.23970703 8.78925781 -0.23970703 10.7421875 -0.29296875 C11.81726563 -0.19628906 12.89234375 -0.09960938 14 0 C16 3 16 3 16 7 C14.68 7.33 13.36 7.66 12 8 C11.67 9.98 11.34 11.96 11 14 C10.01 14 9.02 14 8 14 C8 13.01 8 12.02 8 11 C7.34 11 6.68 11 6 11 C6 12.65 6 14.3 6 16 C8.31 16 10.62 16 13 16 C13.33 15.01 13.66 14.02 14 13 C14.99 13.33 15.98 13.66 17 14 C16.34 15.98 15.68 17.96 15 20 C13.35 20 11.7 20 10 20 C10 22.31 10 24.62 10 27 C9.01 27 8.02 27 7 27 C6.67 24.69 6.34 22.38 6 20 C5.34 20 4.68 20 4 20 C3.855625 20.5775 3.71125 21.155 3.5625 21.75 C3.04166667 23.83333333 2.52083333 25.91666667 2 28 C1.01 28 0.02 28 -1 28 C-2.25664978 25.09399739 -3 23.20395416 -3 20 C-2.34 19.67 -1.68 19.34 -1 19 C0.97223569 14.47861613 1.1216109 10.99178683 0.625 6.125 C0.51414062 4.97257813 0.40328125 3.82015625 0.2890625 2.6328125 C0.14597656 1.32957031 0.14597656 1.32957031 0 0 Z M6 3 C6 4.98 6 6.96 6 9 C6.99 8.67 7.98 8.34 9 8 C9 7.01 9 6.02 9 5 C9.99 5.33 10.98 5.66 12 6 C12 5.34 12 4.68 12 4 C9.03 3.505 9.03 3.505 6 3 Z " fill="#C6BB87" transform="translate(341,241)"/>
<path d="M0 0 C2.05078125 0.03255208 4.1015625 0.06510417 6.15234375 0.09765625 C6.48234375 1.08765625 6.81234375 2.07765625 7.15234375 3.09765625 C6.49234375 3.09765625 5.83234375 3.09765625 5.15234375 3.09765625 C5.81234375 5.40765625 6.47234375 7.71765625 7.15234375 10.09765625 C9.30225942 9.29581211 9.30225942 9.29581211 9.90234375 7.28515625 C10.20929077 4.59936986 9.53346097 3.37243755 8.15234375 1.09765625 C11.43930608 0.29812487 12.86257567 0.00106689 16.15234375 1.09765625 C16.38020833 3.1484375 16.60807292 5.19921875 16.8359375 7.25 C16.97120989 9.10905854 16.97120989 9.10905854 18.15234375 10.09765625 C18.24322266 9.14052734 18.24322266 9.14052734 18.3359375 8.1640625 C18.41972656 7.33777344 18.50351562 6.51148438 18.58984375 5.66015625 C18.67105469 4.83644531 18.75226563 4.01273438 18.8359375 3.1640625 C19.15234375 1.09765625 19.15234375 1.09765625 20.15234375 0.09765625 C21.8185149 0.05701793 23.4862247 0.05493525 25.15234375 0.09765625 C25.48234375 1.08765625 25.81234375 2.07765625 26.15234375 3.09765625 C25.16234375 3.59265625 25.16234375 3.59265625 24.15234375 4.09765625 C23.08698047 6.23351542 23.08698047 6.23351542 22.15234375 8.78515625 C21.806875 9.68363281 21.46140625 10.58210937 21.10546875 11.5078125 C20.05859882 14.35238122 19.06514023 17.20713407 18.15234375 20.09765625 C17.16234375 19.76765625 16.17234375 19.43765625 15.15234375 19.09765625 C13.46484375 15.53515625 13.46484375 15.53515625 12.15234375 12.09765625 C11.16234375 14.40765625 10.17234375 16.71765625 9.15234375 19.09765625 C8.16234375 19.09765625 7.17234375 19.09765625 6.15234375 19.09765625 C5.75402344 18.1334375 5.35570312 17.16921875 4.9453125 16.17578125 C4.41044941 14.89961668 3.87527679 13.6235818 3.33984375 12.34765625 C3.07880859 11.7134375 2.81777344 11.07921875 2.54882812 10.42578125 C1.08932962 6.96622923 -0.42616903 3.97726267 -2.84765625 1.09765625 C-1.84765625 0.09765625 -1.84765625 0.09765625 0 0 Z " fill="#908E74" transform="translate(280.84765625,240.90234375)"/>
<path d="M0 0 C1.8871875 0.061875 1.8871875 0.061875 3.8125 0.125 C4.49957555 2.61564888 4.8125 4.50386292 4.8125 7.125 C3.4925 6.795 2.1725 6.465 0.8125 6.125 C0.8125 5.465 0.8125 4.805 0.8125 4.125 C-0.5075 3.795 -1.8275 3.465 -3.1875 3.125 C-3.1875 4.115 -3.1875 5.105 -3.1875 6.125 C-2.32125 6.310625 -2.32125 6.310625 -1.4375 6.5 C2.96389442 7.72260956 2.96389442 7.72260956 4.8125 9.125 C5.75 12.5 5.75 12.5 5.8125 16.125 C4.375 18.5625 4.375 18.5625 2.8125 20.125 C3.1425 20.455 3.4725 20.785 3.8125 21.125 C3.85330783 23.12458364 3.85504356 25.12545254 3.8125 27.125 C-0.9375 28.25 -0.9375 28.25 -3.1875 27.125 C-3.1875 24.815 -3.1875 22.505 -3.1875 20.125 C-4.8375 19.795 -6.4875 19.465 -8.1875 19.125 C-8.1875 16.815 -8.1875 14.505 -8.1875 12.125 C-6.2075 13.115 -6.2075 13.115 -4.1875 14.125 C-4.1875 14.785 -4.1875 15.445 -4.1875 16.125 C-2.5375 16.125 -0.8875 16.125 0.8125 16.125 C-0.36494585 12.59266245 -1.14355641 12.26191925 -4.25 10.4375 C-4.98347656 10.00050781 -5.71695312 9.56351563 -6.47265625 9.11328125 C-7.03855469 8.78714844 -7.60445313 8.46101562 -8.1875 8.125 C-7.875 5.25 -7.875 5.25 -7.1875 2.125 C-4.09861478 0.06574319 -3.47814073 -0.1140374 0 0 Z " fill="#C7AE60" transform="translate(367.1875,240.875)"/>
<path d="M0 0 C2.1875 -0.3125 2.1875 -0.3125 5 0 C7.8125 2.375 7.8125 2.375 10 5 C10 5.66 10 6.32 10 7 C10.66 7 11.32 7 12 7 C12.33 7.66 12.66 8.32 13 9 C13.93065133 6.39417629 14.14917407 5.35801776 13.0625 2.75 C12.711875 2.1725 12.36125 1.595 12 1 C14.89234315 0.17361624 16.88742431 0 20 0 C20 0.99 20 1.98 20 3 C19.01 3.495 19.01 3.495 18 4 C17.68758629 6.54941373 17.48696579 9.00361513 17.375 11.5625 C17.33632813 12.27341797 17.29765625 12.98433594 17.2578125 13.71679688 C17.16328217 15.47742425 17.08054183 17.23867728 17 19 C16.01 19 15.02 19 14 19 C12.17578125 17.03125 12.17578125 17.03125 10.3125 14.5 C9.68988281 13.6646875 9.06726563 12.829375 8.42578125 11.96875 C7.72001953 10.99421875 7.72001953 10.99421875 7 10 C6.67 11.98 6.34 13.96 6 16 C6.99 16.33 7.98 16.66 9 17 C9 17.66 9 18.32 9 19 C6.03 19 3.06 19 0 19 C0.495 17.515 0.495 17.515 1 16 C1.66 16 2.32 16 3 16 C2.67 11.71 2.34 7.42 2 3 C1.34 3 0.68 3 0 3 C0 2.01 0 1.02 0 0 Z " fill="#B6B890" transform="translate(319,241)"/>
<path d="M0 0 C1.33804688 0.17982422 1.33804688 0.17982422 2.703125 0.36328125 C3.37859375 0.47027344 4.0540625 0.57726562 4.75 0.6875 C5.08 2.9975 5.41 5.3075 5.75 7.6875 C3.875 7.375 3.875 7.375 1.75 6.6875 C1.09 5.6975 0.43 4.7075 -0.25 3.6875 C-2.83380177 3.43719023 -2.83380177 3.43719023 -5.25 3.6875 C-5.44814261 9.77158472 -5.44814261 9.77158472 -4.25 15.6875 C-3.3425 15.378125 -2.435 15.06875 -1.5 14.75 C0.91563338 13.9602737 3.27780285 13.25800703 5.75 12.6875 C5.75 13.6775 5.75 14.6675 5.75 15.6875 C6.41 16.0175 7.07 16.3475 7.75 16.6875 C2.22445556 19.45027222 -1.08922283 20.27702436 -7.25 18.6875 C-10.14490519 16.15445796 -11.04773596 14.33474492 -12.1875 10.6875 C-12.2642585 7.00309193 -11.50611886 5.56599647 -9.25 2.6875 C-6.06224041 -0.28402207 -4.27704285 -0.61904568 0 0 Z " fill="#74653E" transform="translate(237.25,241.3125)"/>
<path d="M0 0 C0.90105469 0.02707031 1.80210937 0.05414063 2.73046875 0.08203125 C3.76107422 0.13423828 3.76107422 0.13423828 4.8125 0.1875 C4.8125 3.1875 4.8125 3.1875 2.9375 5.375 C0.8125 7.1875 0.8125 7.1875 -1.1875 7.1875 C-1.1875 8.1775 -1.1875 9.1675 -1.1875 10.1875 C-2.84965268 11.52645632 -4.51713607 12.85880142 -6.1875 14.1875 C-7.52966975 16.18158077 -8.8647113 18.18051025 -10.1875 20.1875 C-10.8475 20.1875 -11.5075 20.1875 -12.1875 20.1875 C-12.5175 21.8375 -12.8475 23.4875 -13.1875 25.1875 C-13.5175 25.1875 -13.8475 25.1875 -14.1875 25.1875 C-14.47321429 17.75892857 -14.47321429 17.75892857 -12.1875 14.1875 C-12.8475 13.8575 -13.5075 13.5275 -14.1875 13.1875 C-13.8575 11.5375 -13.5275 9.8875 -13.1875 8.1875 C-12.1975 7.8575 -11.2075 7.5275 -10.1875 7.1875 C-9.48598848 5.8721659 -8.82224075 4.53632408 -8.1875 3.1875 C-5.73077408 -0.02871848 -3.95119725 -0.15394275 0 0 Z " fill="#888063" transform="translate(282.1875,228.8125)"/>
<path d="M0 0 C0 2.31 0 4.62 0 7 C-0.99 6.67 -1.98 6.34 -3 6 C-3.33 5.34 -3.66 4.68 -4 4 C-4.99 3.67 -5.98 3.34 -7 3 C-6.255312 6.37892366 -6.255312 6.37892366 -2.5 7.875 C0.85849633 9.68554741 0.85849633 9.68554741 2.125 12.5 C2 15 2 15 0.9375 17.25 C-1.66080578 19.59685683 -3.54166202 19.78826502 -7 20 C-9.375 19.5625 -9.375 19.5625 -11 19 C-11.33 16.69 -11.66 14.38 -12 12 C-8.94894899 13.017017 -8.17353952 13.82646048 -6 16 C-5.34 16 -4.68 16 -4 16 C-4 15.01 -4 14.02 -4 13 C-5.134375 12.4225 -6.26875 11.845 -7.4375 11.25 C-10.84556011 9.29071038 -10.84556011 9.29071038 -12.0625 7 C-11.98444647 4.50228705 -11.36442873 3.08254912 -10 1 C-6.78548731 -0.60725635 -3.56387464 -0.05748185 0 0 Z " fill="#C5B485" transform="translate(211,241)"/>
<path d="M0 0 C0.33 1.98 0.66 3.96 1 6 C-0.32 6 -1.64 6 -3 6 C-3 5.34 -3 4.68 -3 4 C-4.32 4 -5.64 4 -7 4 C-7 4.66 -7 5.32 -7 6 C-4.36 7.32 -1.72 8.64 1 10 C1.36305732 15.44585987 1.36305732 15.44585987 -0.1875 17.8125 C-3.40096374 19.91787279 -6.05634028 20.14679151 -9.8125 19.5625 C-10.534375 19.376875 -11.25625 19.19125 -12 19 C-12 16.69 -12 14.38 -12 12 C-11.34 12 -10.68 12 -10 12 C-8.66666667 13.33333333 -7.33333333 14.66666667 -6 16 C-5.34 16 -4.68 16 -4 16 C-4 15.01 -4 14.02 -4 13 C-5.134375 12.443125 -6.26875 11.88625 -7.4375 11.3125 C-10.05376826 9.80761399 -10.85726768 9.30048908 -12.1875 6.5 C-12 4 -12 4 -10.5625 1.6875 C-6.88187182 -0.73632831 -4.35385418 -0.29025695 0 0 Z " fill="#C0B88D" transform="translate(196,241)"/>
<path d="M0 0 C0.91007813 0.10183594 1.82015625 0.20367187 2.7578125 0.30859375 C3.45648438 0.39238281 4.15515625 0.47617188 4.875 0.5625 C4.875 2.8725 4.875 5.1825 4.875 7.5625 C1.875 6.5625 1.875 6.5625 -0.125 3.5625 C-1.775 3.8925 -3.425 4.2225 -5.125 4.5625 C-6.32488045 9.84449593 -6.32488045 9.84449593 -4.125 14.5625 C-1.05943402 15.29593428 -1.05943402 15.29593428 1.875 15.5625 C2.205 14.5725 2.535 13.5825 2.875 12.5625 C3.865 12.5625 4.855 12.5625 5.875 12.5625 C4.4854538 15.92056998 3.14554981 17.88302848 -0.125 19.5625 C-4.80197126 19.64753584 -6.58605358 19.05557864 -10.0625 15.875 C-12.35165878 12.19847227 -13.0038387 10.78092577 -12.125 6.5625 C-8.7495826 1.23877182 -6.23980217 -0.71997717 0 0 Z " fill="#BBBDAA" transform="translate(140.125,241.4375)"/>
<path d="M0 0 C2.64 0 5.28 0 8 0 C8 0.99 8 1.98 8 3 C7.34 3 6.68 3 6 3 C6 7.29 6 11.58 6 16 C6.66 16 7.32 16 8 16 C9.80230168 19.82989106 10.19622241 22.78121808 10 27 C8.1875 27.625 8.1875 27.625 6 28 C5.01 27.34 4.02 26.68 3 26 C3.875 21.125 3.875 21.125 5 20 C3.35 19.67 1.7 19.34 0 19 C0 12.73 0 6.46 0 0 Z " fill="#595949" transform="translate(309,241)"/>
<path d="M0 0 C3.3 0 6.6 0 10 0 C10 0.99 10 1.98 10 3 C9.34 3 8.68 3 8 3 C8 7.29 8 11.58 8 16 C9.65 15.67 11.3 15.34 13 15 C13.66 14.01 14.32 13.02 15 12 C15.99 12.33 16.98 12.66 18 13 C17.34 14.98 16.68 16.96 16 19 C10.72 19 5.44 19 0 19 C0 18.34 0 17.68 0 17 C0.66 16.67 1.32 16.34 2 16 C2.46954261 12.95418731 2.46954261 12.95418731 2.625 9.4375 C2.69976562 8.23996094 2.77453125 7.04242188 2.8515625 5.80859375 C2.90054688 4.88175781 2.94953125 3.95492187 3 3 C2.01 2.67 1.02 2.34 0 2 C0 1.34 0 0.68 0 0 Z " fill="#F7FADF" transform="translate(146,241)"/>
<path d="M0 0 C1.859375 0.203125 1.859375 0.203125 4 1 C5.265625 3.109375 5.265625 3.109375 6.25 5.75 C6.58515625 6.61109375 6.9203125 7.4721875 7.265625 8.359375 C8.01079114 11.03880217 8.13926696 13.23455607 8 16 C8.99 16.33 9.98 16.66 11 17 C11 17.66 11 18.32 11 19 C8.36 19 5.72 19 3 19 C3.33 17.02 3.66 15.04 4 13 C2.02 13 0.04 13 -2 13 C-1.34 14.98 -0.68 16.96 0 19 C-2.31 19 -4.62 19 -7 19 C-7 18.01 -7 17.02 -7 16 C-6.34 16 -5.68 16 -5 16 C-4.80664062 15.34773438 -4.61328125 14.69546875 -4.4140625 14.0234375 C-3.01359552 9.3228602 -1.58791274 4.64159109 0 0 Z M1 8 C0.67 8.66 0.34 9.32 0 10 C0.66 10 1.32 10 2 10 C1.67 9.34 1.34 8.68 1 8 Z " fill="#A8A790" transform="translate(171,241)"/>
<path d="M0 0 C2.05078125 0.03255208 4.1015625 0.06510417 6.15234375 0.09765625 C6.48234375 1.08765625 6.81234375 2.07765625 7.15234375 3.09765625 C6.49234375 3.09765625 5.83234375 3.09765625 5.15234375 3.09765625 C5.81234375 5.40765625 6.47234375 7.71765625 7.15234375 10.09765625 C7.81234375 9.76765625 8.47234375 9.43765625 9.15234375 9.09765625 C9.80789494 6.5703239 9.80789494 6.5703239 10.15234375 4.09765625 C10.81234375 4.09765625 11.47234375 4.09765625 12.15234375 4.09765625 C11.82234375 5.74765625 11.49234375 7.39765625 11.15234375 9.09765625 C11.81234375 9.09765625 12.47234375 9.09765625 13.15234375 9.09765625 C12.72811131 10.55990424 12.2874413 12.01739037 11.83984375 13.47265625 C11.59621094 14.28476563 11.35257812 15.096875 11.1015625 15.93359375 C10.15234375 18.09765625 10.15234375 18.09765625 7.15234375 20.09765625 C6.57484375 18.94265625 5.99734375 17.78765625 5.40234375 16.59765625 C4.85707031 15.50904297 4.85707031 15.50904297 4.30078125 14.3984375 C3.55179593 12.89791929 2.80680752 11.39539736 2.06640625 9.890625 C1.72351563 9.19582031 1.380625 8.50101563 1.02734375 7.78515625 C0.55941406 6.83189453 0.55941406 6.83189453 0.08203125 5.859375 C-0.94395934 3.84243113 -0.94395934 3.84243113 -2.84765625 1.09765625 C-1.84765625 0.09765625 -1.84765625 0.09765625 0 0 Z " fill="#9A9371" transform="translate(280.84765625,240.90234375)"/>
<path d="M0 0 C1.98 0.99 1.98 0.99 4 2 C4 2.66 4 3.32 4 4 C5.65 4 7.3 4 9 4 C8.67 2.68 8.34 1.36 8 0 C8.66 0 9.32 0 10 0 C10 1.65 10 3.3 10 5 C10.66 5.33 11.32 5.66 12 6 C12 9 12 12 12 15 C7.25 16.125 7.25 16.125 5 15 C5 12.69 5 10.38 5 8 C3.35 7.67 1.7 7.34 0 7 C0 4.69 0 2.38 0 0 Z " fill="#69603E" transform="translate(359,253)"/>
<path d="M0 0 C2.64 0 5.28 0 8 0 C7.83757812 0.53496094 7.67515625 1.06992188 7.5078125 1.62109375 C6.89682194 4.48334954 6.86774899 7.13671735 6.875 10.0625 C6.87242187 11.10535156 6.86984375 12.14820313 6.8671875 13.22265625 C6.87862843 16.08680628 6.87862843 16.08680628 8 19 C5.36 19 2.72 19 0 19 C0.495 17.515 0.495 17.515 1 16 C1.22451458 13.77425665 1.40782878 11.54418481 1.5625 9.3125 C1.64628906 8.13300781 1.73007813 6.95351562 1.81640625 5.73828125 C1.87699219 4.83464844 1.93757812 3.93101562 2 3 C1.34 3 0.68 3 0 3 C0 2.01 0 1.02 0 0 Z " fill="#8B7B56" transform="translate(215,241)"/>
<path d="M0 0 C0.33 0.99 0.66 1.98 1 3 C1.66 3.33 2.32 3.66 3 4 C0.35009037 6.33815556 -1.67808375 7.89488449 -5.0625 9 C-8.10844828 9.7957137 -8.10844828 9.7957137 -10.125 12.125 C-11.053125 13.053125 -11.053125 13.053125 -12 14 C-13.32 14 -14.64 14 -16 14 C-16 13.34 -16 12.68 -16 12 C-15.01 12 -14.02 12 -13 12 C-13 10.35 -13 8.7 -13 7 C-12.34 7 -11.68 7 -11 7 C-10.67 6.01 -10.34 5.02 -10 4 C-7.96875 3.0859375 -7.96875 3.0859375 -5.5 2.375 C-2.48411921 1.65305469 -2.48411921 1.65305469 0 0 Z " fill="#928256" transform="translate(267,239)"/>
<path d="M0 0 C1.21236328 0.02707031 1.21236328 0.02707031 2.44921875 0.0546875 C3.37154297 0.08949219 3.37154297 0.08949219 4.3125 0.125 C2.91058647 3.11754618 1.27882511 5.7204611 -0.6875 8.375 C-1.203125 9.08140625 -1.71875 9.7878125 -2.25 10.515625 C-2.724375 11.04671875 -3.19875 11.5778125 -3.6875 12.125 C-4.3475 12.125 -5.0075 12.125 -5.6875 12.125 C-6.0175 13.775 -6.3475 15.425 -6.6875 17.125 C-7.0175 17.125 -7.3475 17.125 -7.6875 17.125 C-7.97321429 9.69642857 -7.97321429 9.69642857 -5.6875 6.125 C-6.3475 5.795 -7.0075 5.465 -7.6875 5.125 C-7.6875 4.135 -7.6875 3.145 -7.6875 2.125 C-4.48369983 -0.01086678 -3.66810033 -0.10632175 0 0 Z " fill="#A5916D" transform="translate(275.6875,236.875)"/>
<path d="M0 0 C0.66 0.33 1.32 0.66 2 1 C2 5.62 2 10.24 2 15 C2.66 15.33 3.32 15.66 4 16 C3.01 18.97 2.02 21.94 1 25 C0.01 25 -0.98 25 -2 25 C-3.25664978 22.09399739 -4 20.20395416 -4 17 C-3.34 16.67 -2.68 16.34 -2 16 C0.42886571 10.73745763 0.20143484 5.66255723 0 0 Z " fill="#6B674E" transform="translate(342,244)"/>
<path d="M0 0 C0.33 1.32 0.66 2.64 1 4 C0.01 4 -0.98 4 -2 4 C-2 4.66 -2 5.32 -2 6 C-1.01 6.33 -0.02 6.66 1 7 C0.01 7.33 -0.98 7.66 -2 8 C-3.06716704 9.79932579 -3.06716704 9.79932579 -4 12 C-5.375 14.75 -5.375 14.75 -7 17 C-8.32 17 -9.64 17 -11 17 C-11.33 16.34 -11.66 15.68 -12 15 C-12.99 15.495 -12.99 15.495 -14 16 C-13.67 15.01 -13.34 14.02 -13 13 C-12.38125 12.71125 -11.7625 12.4225 -11.125 12.125 C-8.30885997 10.63410234 -7.61587901 8.71467673 -6 6 C-4.3603279 4.63360658 -2.69672386 3.29486821 -1 2 C-0.67 1.34 -0.34 0.68 0 0 Z " fill="#867544" transform="translate(253,247)"/>
<path d="M0 0 C1 2 1 2 1 6 C1.66 5.34 2.32 4.68 3 4 C3.4025937 7.52269485 3.13372795 8.79940808 1.125 11.8125 C0.42375 12.534375 -0.2775 13.25625 -1 14 C-1.66 14 -2.32 14 -3 14 C-3 14.66 -3 15.32 -3 16 C-6.3 16 -9.6 16 -13 16 C-12.34 15.34 -11.68 14.68 -11 14 C-9.68 14 -8.36 14 -7 14 C-6.67 13.01 -6.34 12.02 -6 11 C-5.34 11 -4.68 11 -4 11 C-2.03698408 7.49461443 -1.04097612 3.86648272 0 0 Z " fill="#847550" transform="translate(268,245)"/>
<path d="M0 0 C0.99 0.33 1.98 0.66 3 1 C2.34 2.98 1.68 4.96 1 7 C-0.65 7 -2.3 7 -4 7 C-4 9.31 -4 11.62 -4 14 C-4.99 14 -5.98 14 -7 14 C-7.33 11.36 -7.66 8.72 -8 6 C-7.34 6 -6.68 6 -6 6 C-6 5.34 -6 4.68 -6 4 C-6.66 3.67 -7.32 3.34 -8 3 C-5.69 3 -3.38 3 -1 3 C-0.67 2.01 -0.34 1.02 0 0 Z " fill="#837F63" transform="translate(355,254)"/>
<path d="M0 0 C0.33 0 0.66 0 1 0 C1 4.29 1 8.58 1 13 C2.65 12.67 4.3 12.34 6 12 C6.66 11.01 7.32 10.02 8 9 C8.99 9.33 9.98 9.66 11 10 C10.34 11.98 9.68 13.96 9 16 C3.72 16 -1.56 16 -7 16 C-7 15.34 -7 14.68 -7 14 C-4.69 14.33 -2.38 14.66 0 15 C0 10.05 0 5.1 0 0 Z " fill="#696B59" transform="translate(153,244)"/>
<path d="M0 0 C2.29109597 -0.08075665 4.58299267 -0.13907731 6.875 -0.1875 C8.78925781 -0.23970703 8.78925781 -0.23970703 10.7421875 -0.29296875 C11.81726563 -0.19628906 12.89234375 -0.09960938 14 0 C16 3 16 3 16 7 C11.25 8.125 11.25 8.125 9 7 C9 5 9 5 10 4 C8.68 3.67 7.36 3.34 6 3 C6 4.98 6 6.96 6 9 C5.67 9 5.34 9 5 9 C5 6.36 5 3.72 5 1 C3.35 1 1.7 1 0 1 C0 0.67 0 0.34 0 0 Z " fill="#A49C67" transform="translate(341,241)"/>
<path d="M0 0 C0.33 1.98 0.66 3.96 1 6 C-0.98 6 -2.96 6 -5 6 C-4.34 7.98 -3.68 9.96 -3 12 C-5.31 12 -7.62 12 -10 12 C-10 11.01 -10 10.02 -10 9 C-9.34 9 -8.68 9 -8 9 C-7.89042969 8.43410156 -7.78085938 7.86820313 -7.66796875 7.28515625 C-7.50941406 6.55167969 -7.35085937 5.81820312 -7.1875 5.0625 C-7.03667969 4.33160156 -6.88585937 3.60070312 -6.73046875 2.84765625 C-6.48941406 2.23792969 -6.24835938 1.62820312 -6 1 C-3 0 -3 0 0 0 Z M-2 1 C-2.33 1.66 -2.66 2.32 -3 3 C-2.34 3 -1.68 3 -1 3 C-1.33 2.34 -1.66 1.68 -2 1 Z " fill="#747566" transform="translate(174,248)"/>
<path d="M0 0 C0.99 0 1.98 0 3 0 C3 4.62 3 9.24 3 14 C3.66 14 4.32 14 5 14 C5 14.66 5 15.32 5 16 C2.69 16 0.38 16 -2 16 C-2 15.34 -2 14.68 -2 14 C-1.34 14 -0.68 14 0 14 C0 9.38 0 4.76 0 0 Z " fill="#F1F2D8" transform="translate(311,244)"/>
<path d="M0 0 C1.32 0.66 2.64 1.32 4 2 C3.67 4.64 3.34 7.28 3 10 C3.99 10.33 4.98 10.66 6 11 C6 11.66 6 12.32 6 13 C3.03 13 0.06 13 -3 13 C-2.67 12.01 -2.34 11.02 -2 10 C-1.34 10 -0.68 10 0 10 C0 6.7 0 3.4 0 0 Z " fill="#8D8E7B" transform="translate(322,247)"/>
<path d="M0 0 C2.64 0 5.28 0 8 0 C8.33 0.99 8.66 1.98 9 3 C8.34 3 7.68 3 7 3 C7 5.64 7 8.28 7 11 C6.67 10.34 6.34 9.68 6 9 C5.01 8.67 4.02 8.34 3 8 C0.92469613 5.07920195 0 3.62453269 0 0 Z " fill="#C8C097" transform="translate(279,241)"/>
<path d="M0 0 C3.05105101 1.017017 3.82646048 1.82646048 6 4 C6.66 4 7.32 4 8 4 C8 2.68 8 1.36 8 0 C8.66 0 9.32 0 10 0 C10 1.65 10 3.3 10 5 C10.66 5.33 11.32 5.66 12 6 C9.08291076 7.98362069 7.87619096 7.9876191 4.25 7.625 C3.1775 7.41875 2.105 7.2125 1 7 C0.67 4.69 0.34 2.38 0 0 Z " fill="#696044" transform="translate(199,253)"/>
<path d="M0 0 C0.99 0.33 1.98 0.66 3 1 C2.67 4.96 2.34 8.92 2 13 C-2 11 -2 11 -2.9375 8.1875 C-3.01011945 4.48390797 -2.16309739 2.94181245 0 0 Z " fill="#A38F5F" transform="translate(228,244)"/>
<path d="M0 0 C1.8871875 0.061875 1.8871875 0.061875 3.8125 0.125 C4.1425 2.105 4.4725 4.085 4.8125 6.125 C3.4925 6.125 2.1725 6.125 0.8125 6.125 C0.8125 5.465 0.8125 4.805 0.8125 4.125 C-0.5075 4.125 -1.8275 4.125 -3.1875 4.125 C-3.1875 5.115 -3.1875 6.105 -3.1875 7.125 C-3.8475 7.125 -4.5075 7.125 -5.1875 7.125 C-5.8475 5.475 -6.5075 3.825 -7.1875 2.125 C-4.09861478 0.06574319 -3.47814073 -0.1140374 0 0 Z " fill="#7F7B62" transform="translate(192.1875,240.875)"/>
<path d="M0 0 C0.763125 0.20625 1.52625 0.4125 2.3125 0.625 C1.6525 2.935 0.9925 5.245 0.3125 7.625 C-1.3375 7.295 -2.9875 6.965 -4.6875 6.625 C-5.0175 4.975 -5.3475 3.325 -5.6875 1.625 C-2.6875 -0.375 -2.6875 -0.375 0 0 Z " fill="#A19879" transform="translate(359.6875,261.375)"/>
<path d="M0 0 C1.67542976 0.28604898 3.34385343 0.61781233 5 1 C5.33 2.65 5.66 4.3 6 6 C3.6875 7.125 3.6875 7.125 1 8 C0.01 7.34 -0.98 6.68 -2 6 C-1.125 1.125 -1.125 1.125 0 0 Z " fill="#969682" transform="translate(303,261)"/>
<path d="M0 0 C1.98 0.99 1.98 0.99 4 2 C4 2.66 4 3.32 4 4 C5.65 4 7.3 4 9 4 C8.67 2.68 8.34 1.36 8 0 C8.66 0 9.32 0 10 0 C10 1.65 10 3.3 10 5 C10.66 5.33 11.32 5.66 12 6 C8.0186217 7.3271261 4.14954773 7.06915913 0 7 C0 4.69 0 2.38 0 0 Z " fill="#8F835E" transform="translate(359,253)"/>
<path d="M0 0 C0.66 0 1.32 0 2 0 C3.33333333 1.33333333 4.66666667 2.66666667 6 4 C6.66 4 7.32 4 8 4 C8 2.68 8 1.36 8 0 C8.66 0 9.32 0 10 0 C10 1.65 10 3.3 10 5 C10.66 5.33 11.32 5.66 12 6 C8.00439392 8.83022097 4.57262677 7.76210446 0 7 C0 4.69 0 2.38 0 0 Z " fill="#74725E" transform="translate(184,253)"/>
<path d="M0 0 C2.1875 -0.3125 2.1875 -0.3125 5 0 C7.875 2.25 7.875 2.25 10 5 C9.8125 7.3125 9.8125 7.3125 9 9 C8.401875 8.690625 7.80375 8.38125 7.1875 8.0625 C4.91043228 6.89790296 4.91043228 6.89790296 2 6 C2 5.01 2 4.02 2 3 C1.34 3 0.68 3 0 3 C0 2.01 0 1.02 0 0 Z " fill="#D6D6AF" transform="translate(319,241)"/>
<path d="M0 0 C1.98 0 3.96 0 6 0 C7.35015859 4.05047576 6.62084998 6.7920168 6 11 C5.34 11 4.68 11 4 11 C4 10.34 4 9.68 4 9 C3.34 9 2.68 9 2 9 C2.33 7.35 2.66 5.7 3 4 C1.68 3.67 0.36 3.34 -1 3 C-0.67 2.01 -0.34 1.02 0 0 Z " fill="#A49A7C" transform="translate(290,241)"/>
<path d="M0 0 C3.3 0.33 6.6 0.66 10 1 C10.33 3.31 10.66 5.62 11 8 C9.125 7.6875 9.125 7.6875 7 7 C6.34 6.01 5.68 5.02 5 4 C2.41619823 3.74969023 2.41619823 3.74969023 0 4 C0 2.68 0 1.36 0 0 Z " fill="#6B6239" transform="translate(232,241)"/>
<path d="M0 0 C0 1.98 0 3.96 0 6 C-4.75 7.125 -4.75 7.125 -7 6 C-7 4.02 -7 2.04 -7 0 C-4.3333581 -1.33332095 -2.83319697 -0.67102033 0 0 Z " fill="#AFB2A1" transform="translate(336,262)"/>
<path d="M0 0 C-1.5625 2.5625 -1.5625 2.5625 -4 5 C-7.75 4.8125 -7.75 4.8125 -11 4 C-10.67 2.68 -10.34 1.36 -10 0 C-6.30458414 -0.95024979 -3.69541586 -0.95024979 0 0 Z " fill="#D6D1A6" transform="translate(288,230)"/>
<path d="M0 0 C0.68707555 2.49064888 1 4.37886292 1 7 C-0.32 6.67 -1.64 6.34 -3 6 C-3 5.34 -3 4.68 -3 4 C-4.32 3.67 -5.64 3.34 -7 3 C-7.33 3.66 -7.66 4.32 -8 5 C-8 4.01 -8 3.02 -8 2 C-8.66 1.67 -9.32 1.34 -10 1 C-6.78548731 -0.60725635 -3.56387464 -0.05748185 0 0 Z " fill="#817545" transform="translate(371,241)"/>
<path d="M0 0 C3.3 0 6.6 0 10 0 C10 0.99 10 1.98 10 3 C9.0409375 3.2165625 9.0409375 3.2165625 8.0625 3.4375 C6.02454854 3.81007181 6.02454854 3.81007181 5 5 C4.76572222 7.01594582 4.58663876 9.038474 4.4375 11.0625 C4.35371094 12.16722656 4.26992187 13.27195313 4.18359375 14.41015625 C4.12300781 15.26480469 4.06242188 16.11945313 4 17 C3.34 16.67 2.68 16.34 2 16 C2.33 11.71 2.66 7.42 3 3 C2.01 2.67 1.02 2.34 0 2 C0 1.34 0 0.68 0 0 Z " fill="#ACAD9D" transform="translate(146,241)"/>
<path d="M0 0 C2.09749995 2.35968744 2.96905704 3.54616994 3.1875 6.75 C3.125625 7.4925 3.06375 8.235 3 9 C3.99 9.33 4.98 9.66 6 10 C6 10.66 6 11.32 6 12 C3.36 12 0.72 12 -2 12 C-1.67 10.35 -1.34 8.7 -1 7 C-0.34 7 0.32 7 1 7 C0.67 4.69 0.34 2.38 0 0 Z " fill="#92927A" transform="translate(176,248)"/>
<path d="M0 0 C2.62187494 1.04874998 3.79371361 1.64931313 5.25 4.125 C5.4975 4.74375 5.745 5.3625 6 6 C4.1875 8 4.1875 8 2 10 C1.01 10 0.02 10 -1 10 C-1 9.01 -1 8.02 -1 7 C-0.34 7 0.32 7 1 7 C0.67 4.69 0.34 2.38 0 0 Z " fill="#9E916F" transform="translate(283,260)"/>
<path d="M0 0 C1.98 0 3.96 0 6 0 C6 1.98 6 3.96 6 6 C4.1875 6.625 4.1875 6.625 2 7 C1.01 6.34 0.02 5.68 -1 5 C-0.67 3.35 -0.34 1.7 0 0 Z " fill="#B3B6A4" transform="translate(313,262)"/>
<path d="M0 0 C0 2.31 0 4.62 0 7 C-0.99 6.67 -1.98 6.34 -3 6 C-3.33 5.34 -3.66 4.68 -4 4 C-4.99 3.67 -5.98 3.34 -7 3 C-7.33 3.66 -7.66 4.32 -8 5 C-8.33 4.34 -8.66 3.68 -9 3 C-9.99 3.495 -9.99 3.495 -11 4 C-10.67 3.01 -10.34 2.02 -10 1 C-6.78548731 -0.60725635 -3.56387464 -0.05748185 0 0 Z " fill="#7D755B" transform="translate(211,241)"/>
<path d="M0 0 C1.98 0 3.96 0 6 0 C6.33 2.31 6.66 4.62 7 7 C5.68 7.33 4.36 7.66 3 8 C3 6.35 3 4.7 3 3 C2.34 3 1.68 3 1 3 C0.67 2.01 0.34 1.02 0 0 Z " fill="#C1AA5F" transform="translate(366,250)"/>
<path d="M0 0 C0.99 0 1.98 0 3 0 C3 1.65 3 3.3 3 5 C3.99 5.33 4.98 5.66 6 6 C3 8 3 8 0.8125 7.625 C0.214375 7.41875 -0.38375 7.2125 -1 7 C-1.04254356 5.00045254 -1.04080783 2.99958364 -1 1 C-0.67 0.67 -0.34 0.34 0 0 Z " fill="#7A7B6B" transform="translate(293,261)"/>
<path d="M0 0 C1.21236328 0.02707031 1.21236328 0.02707031 2.44921875 0.0546875 C3.37154297 0.08949219 3.37154297 0.08949219 4.3125 0.125 C2.5625 4 2.5625 4 0.3125 5.125 C0.3125 4.465 0.3125 3.805 0.3125 3.125 C-1.3375 2.795 -2.9875 2.465 -4.6875 2.125 C-5.0175 3.115 -5.3475 4.105 -5.6875 5.125 C-6.3475 5.125 -7.0075 5.125 -7.6875 5.125 C-7.6875 4.135 -7.6875 3.145 -7.6875 2.125 C-4.48369983 -0.01086678 -3.66810033 -0.10632175 0 0 Z " fill="#D5C89F" transform="translate(275.6875,236.875)"/>
<path d="M0 0 C4.34361288 1.18462169 7.28300842 2.30489146 10 6 C9.9375 8.1875 9.9375 8.1875 9 10 C8.01 10.33 7.02 10.66 6 11 C5.938125 9.906875 5.87625 8.81375 5.8125 7.6875 C5.39401189 3.85481593 5.39401189 3.85481593 2.4375 2.125 C1.633125 1.75375 0.82875 1.3825 0 1 C0 0.67 0 0.34 0 0 Z " fill="#A2966E" transform="translate(203,247)"/>
<path d="M0 0 C-0.66 2.31 -1.32 4.62 -2 7 C-2.99 7 -3.98 7 -5 7 C-5.66 4.69 -6.32 2.38 -7 0 C-3.98968256 -0.93423645 -3.13349732 -1.04449911 0 0 Z " fill="#A0A089" transform="translate(345,262)"/>
<path d="M0 0 C1 2 1 2 0 6 C-3.3 6 -6.6 6 -10 6 C-9.34 5.34 -8.68 4.68 -8 4 C-6.68 4 -5.36 4 -4 4 C-3.67 3.01 -3.34 2.02 -3 1 C-2.01 0.67 -1.02 0.34 0 0 Z " fill="#AB9361" transform="translate(265,255)"/>
<path d="M0 0 C0 0.99 0 1.98 0 3 C0.66 3.33 1.32 3.66 2 4 C0.375 5.125 0.375 5.125 -2 6 C-5.25 5.125 -5.25 5.125 -8 4 C-3.375 0 -3.375 0 0 0 Z " fill="#443E23" transform="translate(243,254)"/>
<path d="M0 0 C0.99 0.33 1.98 0.66 3 1 C2.34 2.98 1.68 4.96 1 7 C-0.9375 6.625 -0.9375 6.625 -3 6 C-3.33 5.34 -3.66 4.68 -4 4 C-2.68 2.68 -1.36 1.36 0 0 Z " fill="#A19C6E" transform="translate(355,254)"/>
<path d="M0 0 C-0.66 0.66 -1.32 1.32 -2 2 C-2 3.32 -2 4.64 -2 6 C-3.32 6 -4.64 6 -6 6 C-6.33 5.34 -6.66 4.68 -7 4 C-7.99 4.495 -7.99 4.495 -9 5 C-8 2 -8 2 -5.625 0.25 C-3 -1 -3 -1 0 0 Z " fill="#9E884B" transform="translate(248,258)"/>
<path d="M0 0 C0.33 0 0.66 0 1 0 C1 1.98 1 3.96 1 6 C-1.475 5.01 -1.475 5.01 -4 4 C-3.67 5.32 -3.34 6.64 -3 8 C-4.32 6.68 -5.64 5.36 -7 4 C-5.625 2.5 -5.625 2.5 -4 1 C-3.34 1 -2.68 1 -2 1 C-1.67 1.66 -1.34 2.32 -1 3 C-0.67 2.01 -0.34 1.02 0 0 Z " fill="#838262" transform="translate(333,247)"/>
<path d="M0 0 C1.65 0 3.3 0 5 0 C5.33 0.99 5.66 1.98 6 3 C4.35 4.32 2.7 5.64 1 7 C1 5.68 1 4.36 1 3 C0.34 3 -0.32 3 -1 3 C-0.67 2.01 -0.34 1.02 0 0 Z " fill="#ACAF97" transform="translate(301,241)"/>
<path d="M0 0 C0.66 0 1.32 0 2 0 C1.67 1.65 1.34 3.3 1 5 C1.66 5 2.32 5 3 5 C2.67 5.99 2.34 6.98 2 8 C-0.0625 8.6875 -0.0625 8.6875 -2 9 C-2.33 8.01 -2.66 7.02 -3 6 C-2.34 5.67 -1.68 5.34 -1 5 C-0.34444881 2.47266765 -0.34444881 2.47266765 0 0 Z " fill="#6A6649" transform="translate(291,245)"/>
<path d="M0 0 C0.99 0.33 1.98 0.66 3 1 C3 2.32 3 3.64 3 5 C3.66 5 4.32 5 5 5 C5 5.66 5 6.32 5 7 C2.69 7 0.38 7 -2 7 C-2 6.34 -2 5.68 -2 5 C-1.34 5 -0.68 5 0 5 C0 3.35 0 1.7 0 0 Z " fill="#AFB09B" transform="translate(311,253)"/>
<path d="M0 0 C2.46800047 1.15173355 4.04783565 2.04783565 6 4 C5.625 6.125 5.625 6.125 5 8 C5 7.34 5 6.68 5 6 C3.68 5.67 2.36 5.34 1 5 C0.67 3.35 0.34 1.7 0 0 Z " fill="#E1E0BB" transform="translate(329,251)"/>
<path d="M0 0 C0.99 0 1.98 0 3 0 C1.95125002 2.62187494 1.35068687 3.79371361 -1.125 5.25 C-1.74375 5.4975 -2.3625 5.745 -3 6 C-4.32 5.01 -5.64 4.02 -7 3 C-5.02 3 -3.04 3 -1 3 C-0.67 2.01 -0.34 1.02 0 0 Z " fill="#60645A" transform="translate(143,254)"/>
<path d="M0 0 C0.99 0 1.98 0 3 0 C3.33 2.64 3.66 5.28 4 8 C3.34 8 2.68 8 2 8 C2 7.34 2 6.68 2 6 C1.34 6 0.68 6 0 6 C0 4.02 0 2.04 0 0 Z " fill="#E1DFB4" transform="translate(292,244)"/>
<path d="M0 0 C1.67110042 2.96178773 2.32682752 5.37071192 2.625 8.75 C2.69976562 9.54921875 2.77453125 10.3484375 2.8515625 11.171875 C2.90054688 11.77515625 2.94953125 12.3784375 3 13 C2.34 13 1.68 13 1 13 C-1.42857143 4.57142857 -1.42857143 4.57142857 0 0 Z " fill="#D5D2B0" transform="translate(174,242)"/>
<path d="M0 0 C1.65 0 3.3 0 5 0 C5.66 1.32 6.32 2.64 7 4 C5.68 3.67 4.36 3.34 3 3 C2.67 3.99 2.34 4.98 2 6 C2 5.01 2 4.02 2 3 C1.34 3 0.68 3 0 3 C0 2.01 0 1.02 0 0 Z " fill="#98987D" transform="translate(319,241)"/>
<path d="M0 0 C1.134375 0.020625 2.26875 0.04125 3.4375 0.0625 C3.4375 1.0525 3.4375 2.0425 3.4375 3.0625 C2.4475 3.3925 1.4575 3.7225 0.4375 4.0625 C0.4375 3.4025 0.4375 2.7425 0.4375 2.0625 C-1.72916667 2.89583333 -1.72916667 2.89583333 -2.5625 5.0625 C-3.2225 3.7425 -3.8825 2.4225 -4.5625 1.0625 C-3.5625 0.0625 -3.5625 0.0625 0 0 Z " fill="#818064" transform="translate(335.5625,240.9375)"/>
<path d="M0 0 C0.99 0 1.98 0 3 0 C3.33 1.98 3.66 3.96 4 6 C2.35 5.67 0.7 5.34 -1 5 C-0.67 3.35 -0.34 1.7 0 0 Z " fill="#A4996D" transform="translate(365,263)"/>
<path d="M0 0 C0.99 0.33 1.98 0.66 3 1 C3 2.65 3 4.3 3 6 C2.01 6.33 1.02 6.66 0 7 C-0.38133299 5.0085944 -0.71325582 3.00720923 -1 1 C-0.67 0.67 -0.34 0.34 0 0 Z " fill="#95978A" transform="translate(323,261)"/>
<path d="M0 0 C3.37462715 0.54723683 5.08235 1.0549 8 3 C8.1875 6.125 8.1875 6.125 8 9 C7.71125 8.360625 7.4225 7.72125 7.125 7.0625 C6.17176549 4.84793921 6.17176549 4.84793921 4 4 C4 3.34 4 2.68 4 2 C2.68 2 1.36 2 0 2 C0 1.34 0 0.68 0 0 Z " fill="#9F936D" transform="translate(189,248)"/>
<path d="M0 0 C0.99 0 1.98 0 3 0 C2.67 1.65 2.34 3.3 2 5 C0.35 5.33 -1.3 5.66 -3 6 C-3 5.34 -3 4.68 -3 4 C-2.01 4 -1.02 4 0 4 C0 2.68 0 1.36 0 0 Z " fill="#AD945D" transform="translate(254,247)"/>
<path d="M0 0 C0.99 0 1.98 0 3 0 C3.33 0.99 3.66 1.98 4 3 C4.99 3.66 5.98 4.32 7 5 C3 5 3 5 0 3 C-0.33 3.99 -0.66 4.98 -1 6 C-0.67 4.02 -0.34 2.04 0 0 Z " fill="#A59054" transform="translate(360,243)"/>
<path d="M0 0 C1.98 0 3.96 0 6 0 C5.67 0.66 5.34 1.32 5 2 C4.77141886 4.0374763 4.58975722 6.08040303 4.4375 8.125 C4.35371094 9.22070312 4.26992187 10.31640625 4.18359375 11.4453125 C4.12300781 12.28835937 4.06242188 13.13140625 4 14 C3.67 14 3.34 14 3 14 C2.92652344 12.73542969 2.92652344 12.73542969 2.8515625 11.4453125 C2.77679688 10.34960938 2.70203125 9.25390625 2.625 8.125 C2.55539063 7.03445312 2.48578125 5.94390625 2.4140625 4.8203125 C2.26746509 1.86953526 2.26746509 1.86953526 0 0 Z " fill="#CDB57B" transform="translate(216,242)"/>
<path d="M0 0 C2.05078125 0.03255208 4.1015625 0.06510417 6.15234375 0.09765625 C6.48234375 1.08765625 6.81234375 2.07765625 7.15234375 3.09765625 C6.49234375 3.09765625 5.83234375 3.09765625 5.15234375 3.09765625 C4.82234375 3.75765625 4.49234375 4.41765625 4.15234375 5.09765625 C4.15234375 3.77765625 4.15234375 2.45765625 4.15234375 1.09765625 C2.1769763 1.44552333 2.1769763 1.44552333 0.15234375 2.09765625 C-0.17765625 2.75765625 -0.50765625 3.41765625 -0.84765625 4.09765625 C-1.50765625 3.10765625 -2.16765625 2.11765625 -2.84765625 1.09765625 C-1.84765625 0.09765625 -1.84765625 0.09765625 0 0 Z " fill="#857F67" transform="translate(280.84765625,240.90234375)"/>
<path d="M0 0 C0.33 0 0.66 0 1 0 C1 3.63 1 7.26 1 11 C-0.65 11 -2.3 11 -4 11 C-3.34 10.67 -2.68 10.34 -2 10 C-1.31068656 7.65092125 -1.31068656 7.65092125 -0.875 4.9375 C-0.70742187 4.01839844 -0.53984375 3.09929687 -0.3671875 2.15234375 C-0.24601563 1.44207031 -0.12484375 0.73179687 0 0 Z " fill="#E9ECD2" transform="translate(152,248)"/>
<path d="M0 0 C2 2 2 2 2 6 C-2.75 7.125 -2.75 7.125 -5 6 C-5 5.34 -5 4.68 -5 4 C-4.0409375 3.8453125 -4.0409375 3.8453125 -3.0625 3.6875 C-2.381875 3.460625 -1.70125 3.23375 -1 3 C-0.67 2.01 -0.34 1.02 0 0 Z " fill="#696348" transform="translate(355,242)"/>
<path d="M0 0 C0.33 0.66 0.66 1.32 1 2 C0.67 2.66 0.34 3.32 0 4 C1.32 3.34 2.64 2.68 4 2 C4 3.65 4 5.3 4 7 C1.525 6.01 1.525 6.01 -1 5 C-0.67 3.35 -0.34 1.7 0 0 Z " fill="#818573" transform="translate(313,262)"/>
<path d="M0 0 C1.32 0.66 2.64 1.32 4 2 C3.34 3.32 2.68 4.64 2 6 C1.01 6 0.02 6 -1 6 C-1 5.01 -1 4.02 -1 3 C-0.34 3 0.32 3 1 3 C0.67 2.01 0.34 1.02 0 0 Z " fill="#958B69" transform="translate(283,264)"/>
<path d="M0 0 C-0.33 0.99 -0.66 1.98 -1 3 C-3.475 2.01 -3.475 2.01 -6 1 C-6.33 1.66 -6.66 2.32 -7 3 C-7 2.01 -7 1.02 -7 0 C-4.3333581 -1.33332095 -2.83319697 -0.67102033 0 0 Z " fill="#6C6D64" transform="translate(336,262)"/>
<path d="M0 0 C0.66 0 1.32 0 2 0 C2.66 1.65 3.32 3.3 4 5 C3.34 5 2.68 5 2 5 C2 5.66 2 6.32 2 7 C1.34 7 0.68 7 0 7 C0 4.69 0 2.38 0 0 Z " fill="#9B9C86" transform="translate(184,253)"/>
<path d="M0 0 C0.33 1.32 0.66 2.64 1 4 C1.66 4 2.32 4 3 4 C3 4.66 3 5.32 3 6 C1.35 5.67 -0.3 5.34 -2 5 C-2 3.68 -2 2.36 -2 1 C-1.34 0.67 -0.68 0.34 0 0 Z " fill="#CEC7A5" transform="translate(186,244)"/>
<path d="M0 0 C0.66 0 1.32 0 2 0 C2 0.66 2 1.32 2 2 C3.65 1.34 5.3 0.68 7 0 C7.33 0.99 7.66 1.98 8 3 C5.03 3 2.06 3 -1 3 C-0.67 2.01 -0.34 1.02 0 0 Z " fill="#585952" transform="translate(320,257)"/>
<path d="M0 0 C2.97 0 5.94 0 9 0 C8.67 0.99 8.34 1.98 8 3 C5.6568787 2.74438677 3.32156597 2.40729228 1 2 C0.67 1.34 0.34 0.68 0 0 Z " fill="#94968F" transform="translate(132,258)"/>
<path d="M0 0 C0.99 0.33 1.98 0.66 3 1 C3.6875 3.0625 3.6875 3.0625 4 5 C3.01 5.33 2.02 5.66 1 6 C0 5 0 5 -0.0625 2.4375 C-0.041875 1.633125 -0.02125 0.82875 0 0 Z " fill="#A59C81" transform="translate(199,253)"/>
<path d="M0 0 C0.33 0 0.66 0 1 0 C1.66 2.64 2.32 5.28 3 8 C1.68 8 0.36 8 -1 8 C-1.125 2.25 -1.125 2.25 0 0 Z " fill="#8A8D74" transform="translate(129,246)"/>
<path d="M0 0 C0.66 0 1.32 0 2 0 C1.5020163 3.73487777 1.12508244 5.81237635 -1 9 C-1.125 2.25 -1.125 2.25 0 0 Z " fill="#D9C896" transform="translate(269,245)"/>
<path d="M0 0 C0.33 0 0.66 0 1 0 C1 2.31 1 4.62 1 7 C-2 6 -2 6 -3.1875 3.9375 C-3.5896875 2.9784375 -3.5896875 2.9784375 -4 2 C-2.68 2.33 -1.36 2.66 0 3 C0 2.01 0 1.02 0 0 Z " fill="#7A7F70" transform="translate(144,242)"/>
<path d="" fill="#FF0000" transform="translate(0,0)"/>
</svg>
