<?xml version="1.0" encoding="UTF-8"?>
<svg version="1.1" xmlns="http://www.w3.org/2000/svg" width="388" height="121">
<path d="M0 0 C-1.9661225 4.34185387 -4.71235515 6.85617758 -9 9 C-9.268125 9.5775 -9.53625 10.155 -9.8125 10.75 C-11.38552905 13.73047609 -13.59447355 15.65174799 -16 18 C-18.82715086 20.99345386 -20.20880622 23.41278199 -21.3125 27.3125 C-23.24685701 33.59916028 -27.05215387 38.3623077 -32.8125 41.5625 C-37.31063946 42.17989169 -41.52646835 41.6542319 -46 41 C-45.1875 39.0625 -45.1875 39.0625 -44 37 C-41 36 -41 36 -37.625 36.25 C-33.02144377 35.93251336 -31.95794831 34.38051235 -29 31 C-28.34 31 -27.68 31 -27 31 C-26.95101562 30.38511719 -26.90203125 29.77023438 -26.8515625 29.13671875 C-26.77679688 28.32847656 -26.70203125 27.52023438 -26.625 26.6875 C-26.55539063 25.88699219 -26.48578125 25.08648437 -26.4140625 24.26171875 C-26 22 -26 22 -24 19 C-24.680625 19.28875 -25.36125 19.5775 -26.0625 19.875 C-29 21 -29 21 -32.25 21.5625 C-37.01982577 22.80999289 -39.85597711 26.58122115 -43.08203125 30.1015625 C-45 32 -45 32 -47 32 C-47.33 32.99 -47.66 33.98 -48 35 C-48.66 35 -49.32 35 -50 35 C-50.4640625 36.175625 -50.4640625 36.175625 -50.9375 37.375 C-52 40 -52 40 -53 42 C-29.735 42.495 -29.735 42.495 -6 43 C-5.67 41.68 -5.34 40.36 -5 39 C-2.03 41.475 -2.03 41.475 1 44 C-0.28519565 46.86697492 -1.57129254 48.97607712 -4 51 C-4.66 51 -5.32 51 -6 51 C-6.66 50.01 -7.32 49.02 -8 48 C-10.40018864 47.56827591 -10.40018864 47.56827591 -13.22827148 47.67529297 C-14.3195787 47.67874725 -15.41088593 47.68220154 -16.53526306 47.6857605 C-17.71858719 47.70438141 -18.90191132 47.72300232 -20.12109375 47.7421875 C-21.3319313 47.74880402 -22.54276886 47.75542053 -23.79029846 47.76223755 C-27.67295286 47.78571791 -31.55504704 47.82943975 -35.4375 47.875 C-39.31631572 47.91002425 -43.19509997 47.94082678 -47.07398987 47.96633911 C-49.49130946 47.98335492 -51.90859483 48.00652805 -54.32579041 48.03634644 C-55.96747948 48.05098434 -55.96747948 48.05098434 -57.64233398 48.06591797 C-58.60670883 48.07718719 -59.57108368 48.08845642 -60.56468201 48.10006714 C-63 48 -63 48 -66 47 C-65.34 45.68 -64.68 44.36 -64 43 C-63.34 43 -62.68 43 -62 43 C-62 42.34 -62 41.68 -62 41 C-61.34 41 -60.68 41 -60 41 C-59.67 40.01 -59.34 39.02 -59 38 C-57.546875 36.60546875 -57.546875 36.60546875 -55.75 35.1875 C-53.36598529 33.22419377 -51.557982 31.46731165 -49.5625 29.0625 C-45.8139793 24.58256063 -41.63205383 19.87735128 -36 18 C-36 17.34 -36 16.68 -36 16 C-35.40832031 15.91363281 -34.81664062 15.82726563 -34.20703125 15.73828125 C-28.54217693 14.73099068 -25.9317378 13.39429519 -22 9 C-21.01 9 -20.02 9 -19 9 C-18.9071875 8.1646875 -18.9071875 8.1646875 -18.8125 7.3125 C-15.61795411 -1.77966908 -8.152343 -0.53712362 0 0 Z M-18 8 C-18 8.33 -18 8.66 -18 9 C-16.02 9 -14.04 9 -12 9 C-12 8.67 -12 8.34 -12 8 C-13.98 8 -15.96 8 -18 8 Z M-22.6875 14.3125 C-24.30697031 16.03837129 -24.30697031 16.03837129 -24 19 C-23.34 19 -22.68 19 -22 19 C-20.61061923 17.03852126 -19.2739589 15.03833424 -18 13 C-20.96162871 12.69302969 -20.96162871 12.69302969 -22.6875 14.3125 Z " fill="#C0A678" transform="translate(229,28)"/>
<path d="M0 0 C-1.9661225 4.34185387 -4.71235515 6.85617758 -9 9 C-9.268125 9.5775 -9.53625 10.155 -9.8125 10.75 C-11.38552905 13.73047609 -13.59447355 15.65174799 -16 18 C-18.82715086 20.99345386 -20.20880622 23.41278199 -21.3125 27.3125 C-23.24685701 33.59916028 -27.05215387 38.3623077 -32.8125 41.5625 C-37.31063946 42.17989169 -41.52646835 41.6542319 -46 41 C-45.1875 39.0625 -45.1875 39.0625 -44 37 C-41 36 -41 36 -37.625 36.25 C-33.02144377 35.93251336 -31.95794831 34.38051235 -29 31 C-28.34 31 -27.68 31 -27 31 C-26.95101562 30.38511719 -26.90203125 29.77023438 -26.8515625 29.13671875 C-26.77679688 28.32847656 -26.70203125 27.52023438 -26.625 26.6875 C-26.55539063 25.88699219 -26.48578125 25.08648437 -26.4140625 24.26171875 C-26 22 -26 22 -24 19 C-23.34 19 -22.68 19 -22 19 C-21.34 17.68 -20.68 16.36 -20 15 C-22.21081851 14.89459074 -22.21081851 14.89459074 -25 16 C-25.33 16.66 -25.66 17.32 -26 18 C-26.33 17.34 -26.66 16.68 -27 16 C-25.875 12.9375 -25.875 12.9375 -24 10 C-21.3125 9.125 -21.3125 9.125 -19 9 C-18.9071875 8.1646875 -18.9071875 8.1646875 -18.8125 7.3125 C-15.61795411 -1.77966908 -8.152343 -0.53712362 0 0 Z M-18 8 C-18 8.33 -18 8.66 -18 9 C-16.02 9 -14.04 9 -12 9 C-12 8.67 -12 8.34 -12 8 C-13.98 8 -15.96 8 -18 8 Z " fill="#D6CCAA" transform="translate(229,28)"/>
<path d="M0 0 C-0.20496094 0.55171875 -0.40992188 1.1034375 -0.62109375 1.671875 C-1.12113992 4.74432361 -0.29298564 6.41615428 0.9375 9.25 C1.50791016 10.58804688 1.50791016 10.58804688 2.08984375 11.953125 C2.39019531 12.62859375 2.69054687 13.3040625 3 14 C5.33902212 9.49962876 5.33902212 9.49962876 5.8125 4.625 C5.10416667 2.80208333 5.10416667 2.80208333 3 2 C3 1.34 3 0.68 3 0 C7.455 -0.495 7.455 -0.495 12 -1 C12 0.32 12 1.64 12 3 C12.54976652 6.57348237 13.57714744 9.68001069 15 13 C16.96189209 9.3321148 18.39301257 6.12751449 19 2 C18.34 2 17.68 2 17 2 C17 1.34 17 0.68 17 0 C19.64 0 22.28 0 25 0 C25 0.66 25 1.32 25 2 C24.53811279 2.4535083 24.07622559 2.9070166 23.6003418 3.37426758 C21.7956432 5.20759908 21.2138671 6.59012612 20.39453125 9.01171875 C20.13349609 9.76904297 19.87246094 10.52636719 19.60351562 11.30664062 C19.34248047 12.09232422 19.08144531 12.87800781 18.8125 13.6875 C18.40354492 14.88342773 18.40354492 14.88342773 17.98632812 16.10351562 C17.31637808 18.06635172 16.65713854 20.03283769 16 22 C15.01 22 14.02 22 13 22 C12.3291288 20.3767313 11.66342971 18.75132422 11 17.125 C10.62875 16.22007813 10.2575 15.31515625 9.875 14.3828125 C9 12 9 12 9 10 C8.34 10 7.68 10 7 10 C6.896875 10.845625 6.79375 11.69125 6.6875 12.5625 C5.9171146 16.41442701 4.63725486 19.44075031 3 23 C0.74054594 20.93662409 -0.55827584 19.17251372 -1.71875 16.34765625 C-2.01136719 15.65349609 -2.30398437 14.95933594 -2.60546875 14.24414062 C-2.90066406 13.52419922 -3.19585937 12.80425781 -3.5 12.0625 C-6.09506512 5.66284582 -6.09506512 5.66284582 -10 0 C-2.25 -1.125 -2.25 -1.125 0 0 Z " fill="#E6E4C7" transform="translate(228,44)"/>
<path d="M0 0 C5.61 0 11.22 0 17 0 C19 4 19 4 19 7 C18.01 7 17.02 7 16 7 C15.566875 6.525625 15.13375 6.05125 14.6875 5.5625 C12.3293094 3.37899018 10.12597439 3.34733049 7 3 C7.66 5.31 8.32 7.62 9 10 C9.66 9.01 10.32 8.02 11 7 C11.99 7.33 12.98 7.66 14 8 C13.67 10.97 13.34 13.94 13 17 C12.34 17 11.68 17 11 17 C10.67 16.01 10.34 15.02 10 14 C9.34 14 8.68 14 8 14 C7.957279 15.66611905 7.95936168 17.33382885 8 19 C8.98267859 20.20561184 8.98267859 20.20561184 10.84765625 20.09765625 C12.8984375 20.06510417 14.94921875 20.03255208 17 20 C17.33 19.01 17.66 18.02 18 17 C18.66 17 19.32 17 20 17 C20.125 19.375 20.125 19.375 20 22 C17.4345406 24.5654594 15.52313332 24.54046087 12 25 C12 27.97 12 30.94 12 34 C11.01 34 10.02 34 9 34 C9 31.03 9 28.06 9 25 C5.7 24.34 2.4 23.68 -1 23 C-0.67 22.34 -0.34 21.68 0 21 C0.66 21 1.32 21 2 21 C2 15.06 2 9.12 2 3 C1.34 3 0.68 3 0 3 C0 2.01 0 1.02 0 0 Z " fill="#C6C092" transform="translate(298,43)"/>
<path d="M0 0 C3.25 0.125 3.25 0.125 7 1 C9.125 3.6875 9.125 3.6875 11 7 C13.98060418 11.0838695 13.98060418 11.0838695 18 14 C18.08096803 12.54257537 18.13917774 11.08387193 18.1875 9.625 C18.22230469 8.81289063 18.25710938 8.00078125 18.29296875 7.1640625 C18.19628906 6.44992188 18.09960938 5.73578125 18 5 C17.01 4.34 16.02 3.68 15 3 C15.33 2.01 15.66 1.02 16 0 C18.31 0 20.62 0 23 0 C23.33 0.99 23.66 1.98 24 3 C23.01 3.495 23.01 3.495 22 4 C21.67 10.27 21.34 16.54 21 23 C20.01 23 19.02 23 18 23 C15.80859375 20.6640625 15.80859375 20.6640625 13.4375 17.625 C10.36808795 13.67969922 10.36808795 13.67969922 7 10 C6.91878076 11.60332791 6.86070866 13.20784026 6.8125 14.8125 C6.77769531 15.70582031 6.74289062 16.59914063 6.70703125 17.51953125 C6.78858208 20.40786775 6.78858208 20.40786775 10 23 C6.7 23 3.4 23 0 23 C0 22.34 0 21.68 0 21 C0.99 20.67 1.98 20.34 3 20 C3.02712153 18.083412 3.04645097 16.1667127 3.0625 14.25 C3.07410156 13.18265625 3.08570313 12.1153125 3.09765625 11.015625 C3.01454043 8.44900837 2.89084647 6.39800183 2 4 C1.34 3.67 0.68 3.34 0 3 C0 2.01 0 1.02 0 0 Z " fill="#F0F0CF" transform="translate(270,43)"/>
<path d="M0 0 C0.495 1.485 0.495 1.485 1 3 C1.66 2.67 2.32 2.34 3 2 C3 2.99 3 3.98 3 5 C0.20560623 6.18550039 -2.24307582 7.04207082 -5.25 7.5625 C-10.01982577 8.80999289 -12.85597711 12.58122115 -16.08203125 16.1015625 C-18 18 -18 18 -20 18 C-20.33 18.99 -20.66 19.98 -21 21 C-21.66 21 -22.32 21 -23 21 C-23.309375 21.78375 -23.61875 22.5675 -23.9375 23.375 C-25 26 -25 26 -26 28 C-5.705 28.495 -5.705 28.495 15 29 C15 29.33 15 29.66 15 30 C-0.51 30 -16.02 30 -32 30 C-31.01 28.68 -30.02 27.36 -29 26 C-28.855625 25.195625 -28.71125 24.39125 -28.5625 23.5625 C-27.29840995 17.80386756 -22.26130422 14.37123563 -17.96484375 10.71484375 C-16.26006131 9.226972 -14.68597272 7.69758419 -13.125 6.0625 C-11 4 -11 4 -9 4 C-9 3.34 -9 2.68 -9 2 C-6.03 1.34 -3.06 0.68 0 0 Z " fill="#BDA674" transform="translate(202,42)"/>
<path d="M0 0 C1 1 1 1 1.0625 4.5625 C1.041875 5.696875 1.02125 6.83125 1 8 C-2 7 -2 7 -4 4 C-5.98 4.99 -5.98 4.99 -8 6 C-8 6.66 -8 7.32 -8 8 C-7.2575 8.12375 -6.515 8.2475 -5.75 8.375 C-1.1955836 9.41009464 -1.1955836 9.41009464 1 11 C2.4375 13.8125 2.4375 13.8125 3 17 C1.81327489 19.9008836 0.82793481 21.47054813 -1.8203125 23.1640625 C-4.41917819 24.1607601 -6.01345856 24.02743256 -8.75 23.625 C-9.54921875 23.51414062 -10.3484375 23.40328125 -11.171875 23.2890625 C-12.07679688 23.14597656 -12.07679688 23.14597656 -13 23 C-15.125 18.375 -15.125 18.375 -14 15 C-13.34 15 -12.68 15 -12 15 C-11.608125 15.804375 -11.21625 16.60875 -10.8125 17.4375 C-9.1474527 20.40122736 -9.1474527 20.40122736 -5.3125 20.8125 C-3.6728125 20.9053125 -3.6728125 20.9053125 -2 21 C-2.10933896 18.56678511 -2.10933896 18.56678511 -3 16 C-5.26035359 14.53187026 -5.26035359 14.53187026 -8 13.5625 C-12.83175323 11.3511237 -12.83175323 11.3511237 -14.4375 8 C-14 5 -14 5 -12.125 2.125 C-8.04479272 -0.64954095 -4.81286641 -0.69607572 0 0 Z " fill="#E2CB89" transform="translate(335,43)"/>
<path d="M0 0 C1.20849609 -0.00386719 1.20849609 -0.00386719 2.44140625 -0.0078125 C4.4375 0.125 4.4375 0.125 5.4375 1.125 C5.47842937 3.45797433 5.47991723 5.79205225 5.4375 8.125 C2.4375 7.125 2.4375 7.125 0.4375 4.125 C-2.64615871 3.8747843 -2.64615871 3.8747843 -5.5625 4.125 C-4.89190168 7.27128673 -4.89190168 7.27128673 -2.34765625 8.3359375 C-0.53663314 9.11023432 1.27586686 9.88108613 3.08984375 10.6484375 C5.99918094 12.47827021 6.62870475 13.82284868 7.4375 17.125 C6.24281391 19.97897232 5.23455986 21.61358176 2.6171875 23.29296875 C0.01920321 24.28467243 -1.57832644 24.15208435 -4.3125 23.75 C-5.11171875 23.63914062 -5.9109375 23.52828125 -6.734375 23.4140625 C-7.63929687 23.27097656 -7.63929687 23.27097656 -8.5625 23.125 C-8.8925 20.485 -9.2225 17.845 -9.5625 15.125 C-8.9025 15.125 -8.2425 15.125 -7.5625 15.125 C-7.170625 15.929375 -6.77875 16.73375 -6.375 17.5625 C-4.7099527 20.52622736 -4.7099527 20.52622736 -0.875 20.9375 C0.7646875 21.0303125 0.7646875 21.0303125 2.4375 21.125 C2.28142658 18.69863029 2.28142658 18.69863029 1.4375 16.125 C-0.55170619 14.62834172 -0.55170619 14.62834172 -3 13.625 C-7.37577543 11.39174938 -7.37577543 11.39174938 -9.3125 8.625 C-9.65259006 5.22409945 -8.6274633 3.77995281 -6.5625 1.125 C-4.1828388 -0.0648306 -2.64764265 -0.00849966 0 0 Z " fill="#D2C398" transform="translate(125.5625,42.875)"/>
<path d="M0 0 C0.33 2.31 0.66 4.62 1 7 C0.01 7 -0.98 7 -2 7 C-2.433125 6.34 -2.86625 5.68 -3.3125 5 C-3.869375 4.34 -4.42625 3.68 -5 3 C-8.12586875 2.66602213 -8.12586875 2.66602213 -11 3 C-13.38831687 7.02212736 -13.38831687 7.02212736 -13.875 11.5625 C-12.83818472 14.45077114 -11.97082043 16.62142362 -10 19 C-7 19.66666667 -7 19.66666667 -4 19 C-2.2488427 17.5833253 -2.2488427 17.5833253 -1 16 C-0.34 16 0.32 16 1 16 C0.00456145 18.624338 -0.97192355 19.97605244 -3.125 21.8125 C-6.96417352 23.39824559 -10.1196781 23.26992353 -14 22 C-17.53733123 19.44107954 -18.75963588 17.8112289 -20 13.625 C-20 8.16985925 -17.97745093 4.46617639 -15 0 C-9.97560615 -1.67479795 -5.09914442 -1.23615622 0 0 Z " fill="#C7B580" transform="translate(170,44)"/>
<path d="M0 0 C0.88751953 0.19529297 0.88751953 0.19529297 1.79296875 0.39453125 C2.12296875 2.37453125 2.45296875 4.35453125 2.79296875 6.39453125 C1.80296875 6.39453125 0.81296875 6.39453125 -0.20703125 6.39453125 C-0.86703125 5.40453125 -1.52703125 4.41453125 -2.20703125 3.39453125 C-4.79083302 3.14422148 -4.79083302 3.14422148 -7.20703125 3.39453125 C-7.53703125 4.71453125 -7.86703125 6.03453125 -8.20703125 7.39453125 C-7.59214844 7.57628906 -6.97726563 7.75804687 -6.34375 7.9453125 C-5.53550781 8.19667969 -4.72726563 8.44804688 -3.89453125 8.70703125 C-2.69376953 9.07248047 -2.69376953 9.07248047 -1.46875 9.4453125 C0.93076485 10.45236277 2.17825226 11.37102577 3.79296875 13.39453125 C4.23046875 15.83203125 4.23046875 15.83203125 3.79296875 18.39453125 C1.71740107 21.26839419 0.33766031 22.24059668 -3.08203125 23.20703125 C-6.31036682 23.40073138 -9.05244583 23.07051384 -12.20703125 22.39453125 C-12.20703125 19.75453125 -12.20703125 17.11453125 -12.20703125 14.39453125 C-11.54703125 14.39453125 -10.88703125 14.39453125 -10.20703125 14.39453125 C-9.52640625 15.60109375 -9.52640625 15.60109375 -8.83203125 16.83203125 C-7.47261202 19.51236697 -7.47261202 19.51236697 -5.14453125 20.26953125 C-3.12455236 20.56323807 -3.12455236 20.56323807 -1.20703125 19.39453125 C-0.99568595 17.00330175 -0.99568595 17.00330175 -2.20703125 14.39453125 C-4.28053299 13.3206561 -4.28053299 13.3206561 -6.70703125 12.45703125 C-11.04627226 10.73797091 -11.04627226 10.73797091 -12.58203125 7.45703125 C-12.20703125 4.39453125 -12.20703125 4.39453125 -10.33203125 1.45703125 C-6.41781691 -1.12635021 -4.47024477 -0.78028742 0 0 Z " fill="#DBD3AA" transform="translate(109.20703125,43.60546875)"/>
<path d="M0 0 C0.66 0.165 1.32 0.33 2 0.5 C2 3.14 2 5.78 2 8.5 C1.34 8.5 0.68 8.5 0 8.5 C-0.391875 7.675 -0.78375 6.85 -1.1875 6 C-1.785625 5.175 -2.38375 4.35 -3 3.5 C-6.62599422 3.08274322 -6.62599422 3.08274322 -10 3.5 C-12.51919563 7.27879345 -12.55652715 11.11959278 -12 15.5 C-11.13575439 18.09869315 -11.13575439 18.09869315 -9 19.5 C-5.45769191 20.08342353 -5.45769191 20.08342353 -2 19.5 C-1.34 18.51 -0.68 17.52 0 16.5 C0.99 16.83 1.98 17.16 3 17.5 C0.31215046 20.67654946 -1.39641222 22.32441083 -5.4375 23.5 C-9.58956112 23.5 -11.58093877 22.83117811 -15 20.5 C-17.40777323 17.61067212 -17.96115399 15.80521864 -18.4375 12.0625 C-17.91838869 7.83545073 -16.63076908 5.80725256 -14 2.5 C-13.5875 1.88125 -13.175 1.2625 -12.75 0.625 C-9.07436643 -1.73790729 -4.12547514 -0.68757919 0 0 Z " fill="#EEF0D9" transform="translate(44,43.5)"/>
<path d="M0 0 C3.63 0 7.26 0 11 0 C11 0.99 11 1.98 11 3 C10.01 3 9.02 3 8 3 C8 8.94 8 14.88 8 21 C14.65999671 20.79225648 14.65999671 20.79225648 16.9375 17.9375 C17.4634375 16.9784375 17.4634375 16.9784375 18 16 C18.99 16.33 19.98 16.66 21 17 C20.34 18.98 19.68 20.96 19 23 C13.06 23.33 7.12 23.66 1 24 C0.67 23.01 0.34 22.02 0 21 C0.66 20.67 1.32 20.34 2 20 C2.33 14.39 2.66 8.78 3 3 C2.01 2.67 1.02 2.34 0 2 C0 1.34 0 0.68 0 0 Z " fill="#F8F9DF" transform="translate(49,43)"/>
<path d="M0 0 C3 1 3 1 3.9831543 2.73413086 C4.3994812 3.83833374 4.3994812 3.83833374 4.82421875 4.96484375 C5.28344727 6.16463867 5.28344727 6.16463867 5.75195312 7.38867188 C6.21504883 8.6503418 6.21504883 8.6503418 6.6875 9.9375 C7.00783203 10.77474609 7.32816406 11.61199219 7.65820312 12.47460938 C10 18.68112007 10 18.68112007 10 21 C10.99 21.33 11.98 21.66 13 22 C13 22.33 13 22.66 13 23 C9.7 23 6.4 23 3 23 C3.165 22.236875 3.33 21.47375 3.5 20.6875 C4.09145396 17.96403764 4.09145396 17.96403764 4 15 C1.69 15 -0.62 15 -3 15 C-3.6878236 17.35367713 -3.6878236 17.35367713 -4 20 C-3.34 20.99 -2.68 21.98 -2 23 C-4.64 23 -7.28 23 -10 23 C-10 22.34 -10 21.68 -10 21 C-9.31393677 20.32650513 -9.31393677 20.32650513 -8.61401367 19.6394043 C-6.76772704 17.76407307 -6.09795224 16.22285408 -5.17578125 13.76953125 C-4.86962891 12.96708984 -4.56347656 12.16464844 -4.24804688 11.33789062 C-3.93931641 10.50451172 -3.63058594 9.67113281 -3.3125 8.8125 C-2.83200195 7.5450293 -2.83200195 7.5450293 -2.34179688 6.25195312 C-1.55393312 4.17058172 -0.77365745 2.08668461 0 0 Z M0 7 C-0.66 8.98 -1.32 10.96 -2 13 C-0.35 13 1.3 13 3 13 C2.34 11.02 1.68 9.04 1 7 C0.67 7 0.34 7 0 7 Z " fill="#D9D9BF" transform="translate(81,43)"/>
<path d="M0 0 C-0.20496094 0.55171875 -0.40992188 1.1034375 -0.62109375 1.671875 C-1.12113992 4.74432361 -0.29298564 6.41615428 0.9375 9.25 C1.50791016 10.58804688 1.50791016 10.58804688 2.08984375 11.953125 C2.39019531 12.62859375 2.69054687 13.3040625 3 14 C4.32 11.03 5.64 8.06 7 5 C9 7 9 7 9 10 C8.34 10 7.68 10 7 10 C6.896875 10.845625 6.79375 11.69125 6.6875 12.5625 C5.9171146 16.41442701 4.63725486 19.44075031 3 23 C0.74054594 20.93662409 -0.55827584 19.17251372 -1.71875 16.34765625 C-2.01136719 15.65349609 -2.30398437 14.95933594 -2.60546875 14.24414062 C-2.90066406 13.52419922 -3.19585937 12.80425781 -3.5 12.0625 C-6.09506512 5.66284582 -6.09506512 5.66284582 -10 0 C-2.25 -1.125 -2.25 -1.125 0 0 Z " fill="#E0D9B8" transform="translate(228,44)"/>
<path d="M0 0 C2.97 0 5.94 0 9 0 C9 0.99 9 1.98 9 3 C8.34 3 7.68 3 7 3 C6.94592433 5.58361518 6.906293 8.16609255 6.875 10.75 C6.85824219 11.47960938 6.84148437 12.20921875 6.82421875 12.9609375 C6.78627078 17.13521398 7.08485273 19.16970546 9 23 C6.03 23 3.06 23 0 23 C0 22.34 0 21.68 0 21 C0.66 21 1.32 21 2 21 C1.85888117 18.24968413 1.71228835 15.49984582 1.5625 12.75 C1.52318359 11.97269531 1.48386719 11.19539063 1.44335938 10.39453125 C1.40146484 9.64042969 1.35957031 8.88632812 1.31640625 8.109375 C1.27974854 7.41811523 1.24309082 6.72685547 1.20532227 6.01464844 C1.0121859 3.64379361 1.0121859 3.64379361 0 0 Z " fill="#D0BD90" transform="translate(137,43)"/>
<path d="M0 0 C2.97 0 5.94 0 9 0 C9 0.99 9 1.98 9 3 C8.01 3.495 8.01 3.495 7 4 C6.67 9.61 6.34 15.22 6 21 C6.99 21 7.98 21 9 21 C8.67 21.99 8.34 22.98 8 24 C5.36 23.67 2.72 23.34 0 23 C0 22.34 0 21.68 0 21 C0.66 21 1.32 21 2 21 C2 15.06 2 9.12 2 3 C1.34 3 0.68 3 0 3 C0 2.01 0 1.02 0 0 Z " fill="#F7F7DE" transform="translate(257,43)"/>
<path d="M0 0 C0.33 0 0.66 0 1 0 C2.83848773 9.24257922 2.83848773 9.24257922 0.94140625 13.21875 C-2.14326988 17.00048282 -5.08605043 19.24400776 -10 20 C-13.3646145 19.84844079 -16.66844397 19.48722361 -20 19 C-19.1875 17.0625 -19.1875 17.0625 -18 15 C-15 14 -15 14 -11.625 14.25 C-7.02144377 13.93251336 -5.95794831 12.38051235 -3 9 C-2.34 9 -1.68 9 -1 9 C-0.67 6.03 -0.34 3.06 0 0 Z " fill="#B9A275" transform="translate(203,50)"/>
<path d="M0 0 C1.76923828 0.04060547 1.76923828 0.04060547 3.57421875 0.08203125 C4.47785156 0.11683594 5.38148438 0.15164062 6.3125 0.1875 C4.49838823 4.01729151 3.12652357 6.08589517 -0.6875 8.1875 C-4.41718828 8.22427157 -8.00955623 7.78009339 -11.6875 7.1875 C-8.90282033 0.97552228 -6.90934398 -0.20522804 0 0 Z " fill="#E3DCB0" transform="translate(222.6875,27.8125)"/>
<path d="M0 0 C1.98 1.65 3.96 3.3 6 5 C4.71480435 7.86697492 3.42870746 9.97607712 1 12 C0.34 12 -0.32 12 -1 12 C-1.66 11.01 -2.32 10.02 -3 9 C-6.46712111 7.84429296 -9.5414956 7.67164707 -13.1875 7.4375 C-14.45980469 7.35371094 -15.73210937 7.26992187 -17.04296875 7.18359375 C-18.01878906 7.12300781 -18.99460938 7.06242187 -20 7 C-20 6.67 -20 6.34 -20 6 C-17.95928485 5.66089006 -15.91737379 5.32897296 -13.875 5 C-12.73804688 4.814375 -11.60109375 4.62875 -10.4296875 4.4375 C-7.23862398 4.03043951 -4.21182209 3.92190098 -1 4 C-0.67 2.68 -0.34 1.36 0 0 Z " fill="#CEBE96" transform="translate(224,67)"/>
<path d="M0 0 C3.63 0 7.26 0 11 0 C11 0.99 11 1.98 11 3 C10.01 3 9.02 3 8 3 C8 8.94 8 14.88 8 21 C7.67 21 7.34 21 7 21 C7 15.72 7 10.44 7 5 C6.34 5 5.68 5 5 5 C4.67 10.94 4.34 16.88 4 23 C3.01 23.33 2.02 23.66 1 24 C0.67 23.01 0.34 22.02 0 21 C0.66 20.67 1.32 20.34 2 20 C2.33 14.39 2.66 8.78 3 3 C2.01 2.67 1.02 2.34 0 2 C0 1.34 0 0.68 0 0 Z " fill="#E5E5D4" transform="translate(49,43)"/>
<path d="M0 0 C0.33 0.99 0.66 1.98 1 3 C1.66 2.67 2.32 2.34 3 2 C3 2.99 3 3.98 3 5 C0.18117134 6.1958667 -2.53568732 7.14348767 -5.5 7.9375 C-9.00033578 8.84514548 -9.00033578 8.84514548 -11.8125 10.6875 C-12.534375 11.120625 -13.25625 11.55375 -14 12 C-14.66 11.67 -15.32 11.34 -16 11 C-14.12050295 7.42895561 -12.82946843 5.45255699 -9 4 C-9 3.34 -9 2.68 -9 2 C-6.03 1.34 -3.06 0.68 0 0 Z " fill="#C6B384" transform="translate(202,42)"/>
<path d="M0 0 C1.65 0 3.3 0 5 0 C6.19219354 2.38438709 6.12916022 3.87656002 6.1328125 6.53515625 C6.13410156 7.42654297 6.13539063 8.31792969 6.13671875 9.23632812 C6.13285156 10.16896484 6.12898438 11.10160156 6.125 12.0625 C6.12886719 12.99900391 6.13273437 13.93550781 6.13671875 14.90039062 C6.13542969 15.79048828 6.13414062 16.68058594 6.1328125 17.59765625 C6.13168457 18.41758057 6.13055664 19.23750488 6.12939453 20.08227539 C6 22 6 22 5 23 C3.00041636 23.04080783 0.99954746 23.04254356 -1 23 C-0.67 22.34 -0.34 21.68 0 21 C0.66 21 1.32 21 2 21 C2 15.06 2 9.12 2 3 C1.34 3 0.68 3 0 3 C0 2.01 0 1.02 0 0 Z " fill="#EEE7AD" transform="translate(298,43)"/>
<path d="M0 0 C2.31 0 4.62 0 7 0 C7.33 0.99 7.66 1.98 8 3 C7.01 3.495 7.01 3.495 6 4 C5.67 10.27 5.34 16.54 5 23 C4.01 23 3.02 23 2 23 C2.66 21.02 3.32 19.04 4 17 C2.68 16.34 1.36 15.68 0 15 C0.66 14.67 1.32 14.34 2 14 C2.08096803 12.54257537 2.13917774 11.08387193 2.1875 9.625 C2.22230469 8.81289063 2.25710938 8.00078125 2.29296875 7.1640625 C2.19628906 6.44992188 2.09960938 5.73578125 2 5 C1.01 4.34 0.02 3.68 -1 3 C-0.67 2.01 -0.34 1.02 0 0 Z " fill="#C5C7AA" transform="translate(286,43)"/>
<path d="M0 0 C2.64 0 5.28 0 8 0 C8 0.66 8 1.32 8 2 C7.56042969 2.38800781 7.12085938 2.77601562 6.66796875 3.17578125 C4.27222613 5.79594941 3.41108558 8.87846731 2.3125 12.1875 C1.97508789 13.16879883 1.97508789 13.16879883 1.63085938 14.16992188 C1.07942691 15.77728884 0.53865109 17.38830483 0 19 C-0.33 18.34 -0.66 17.68 -1 17 C-1.66 17 -2.32 17 -3 17 C-3.33 15.02 -3.66 13.04 -4 11 C-3.34 11.66 -2.68 12.32 -2 13 C-0.03810791 9.3321148 1.39301257 6.12751449 2 2 C1.34 2 0.68 2 0 2 C0 1.34 0 0.68 0 0 Z " fill="#D2D5C1" transform="translate(245,44)"/>
<path d="M0 0 C0.66 0 1.32 0 2 0 C2.45375 0.804375 2.9075 1.60875 3.375 2.4375 C4.73441923 5.11783572 4.73441923 5.11783572 7.0625 5.875 C9.08247889 6.16870682 9.08247889 6.16870682 11 5 C11.65555119 2.47266765 11.65555119 2.47266765 12 0 C12.99 0 13.98 0 15 0 C15.75 1.75 15.75 1.75 16 4 C13.95735644 6.85970099 12.51367627 7.85483062 9.125 8.8125 C5.89666443 9.00620013 3.15458542 8.67598259 0 8 C0 5.36 0 2.72 0 0 Z " fill="#DCDABA" transform="translate(97,58)"/>
<path d="M0 0 C1.32 0 2.64 0 4 0 C4.433125 0.66 4.86625 1.32 5.3125 2 C6.95288689 4.40404634 6.95288689 4.40404634 10.5625 4.4375 C12.2640625 4.2209375 12.2640625 4.2209375 14 4 C14.66 3.01 15.32 2.02 16 1 C16.99 1.33 17.98 1.66 19 2 C16.31215046 5.17654946 14.60358778 6.82441083 10.5625 8 C6.43250325 8 4.3561689 7.3972635 1 5 C0.125 2.3125 0.125 2.3125 0 0 Z " fill="#F7F8E6" transform="translate(28,59)"/>
<path d="M0 0 C3.16020751 0.07483187 6.11068996 0.41829749 9.1875 1.1875 C9.1875 3.8275 9.1875 6.4675 9.1875 9.1875 C8.5275 9.1875 7.8675 9.1875 7.1875 9.1875 C6.81625 8.3625 6.445 7.5375 6.0625 6.6875 C5.44375 5.8625 4.825 5.0375 4.1875 4.1875 C1.47710114 3.81461145 -1.06331646 4.0565865 -3.8125 4.1875 C-4.4725 3.5275 -5.1325 2.8675 -5.8125 2.1875 C-3.8125 0.1875 -3.8125 0.1875 0 0 Z " fill="#D3D4CB" transform="translate(36.8125,42.8125)"/>
<path d="M0 0 C0.57490173 0.32342377 1.14980347 0.64684753 1.74212646 0.98007202 C4.08588844 2.03879758 5.57810919 2.27047043 8.12597656 2.31884766 C8.92650452 2.33871735 9.72703247 2.35858704 10.55181885 2.37905884 C11.83327789 2.39638565 11.83327789 2.39638565 13.140625 2.4140625 C14.02280701 2.43342865 14.90498901 2.4527948 15.81390381 2.4727478 C18.62583816 2.53242848 21.4378137 2.57888283 24.25 2.625 C26.15887181 2.66319038 28.06772659 2.70224273 29.9765625 2.7421875 C34.65090296 2.83812058 39.32532409 2.92219416 44 3 C44 3.33 44 3.66 44 4 C28.49 4 12.98 4 -3 4 C-2.01 2.68 -1.02 1.36 0 0 Z " fill="#A99670" transform="translate(173,68)"/>
<path d="M0 0 C0.66 0 1.32 0 2 0 C2.391875 0.804375 2.78375 1.60875 3.1875 2.4375 C4.8525473 5.40122736 4.8525473 5.40122736 8.6875 5.8125 C10.3271875 5.9053125 10.3271875 5.9053125 12 6 C12.66 4.35 13.32 2.7 14 1 C14.66 1.33 15.32 1.66 16 2 C15.7041325 4.86005251 15.15920836 5.85571743 13 7.8125 C8.80368655 9.47354074 5.36253252 8.78886754 1 8 C0.67 5.36 0.34 2.72 0 0 Z " fill="#D5D0B6" transform="translate(116,58)"/>
<path d="M0 0 C0.763125 0.20625 1.52625 0.4125 2.3125 0.625 C3 2.9375 3 2.9375 3.3125 5.625 C2.125 7.5 2.125 7.5 0.3125 8.625 C-2.01238881 8.3431953 -3.59642835 7.67053582 -5.6875 6.625 C-5.875 4.25 -5.875 4.25 -5.6875 1.625 C-2.6875 -0.375 -2.6875 -0.375 0 0 Z M-2.6875 2.625 C-2.3575 3.615 -2.0275 4.605 -1.6875 5.625 C-1.0275 5.625 -0.3675 5.625 0.3125 5.625 C0.3125 4.635 0.3125 3.645 0.3125 2.625 C-0.6775 2.625 -1.6675 2.625 -2.6875 2.625 Z " fill="#EBEADA" transform="translate(252.6875,69.375)"/>
<path d="M0 0 C0.99 0.33 1.98 0.66 3 1 C3.05607422 2.46373047 3.05607422 2.46373047 3.11328125 3.95703125 C3.17902344 5.22933594 3.24476563 6.50164063 3.3125 7.8125 C3.37050781 9.07707031 3.42851562 10.34164062 3.48828125 11.64453125 C3.7065855 15.29900702 3.7065855 15.29900702 7 18 C3.7 18 0.4 18 -3 18 C-3 17.34 -3 16.68 -3 16 C-2.01 15.67 -1.02 15.34 0 15 C0 10.05 0 5.1 0 0 Z " fill="#D3D4C3" transform="translate(273,48)"/>
<path d="M0 0 C0.33 2.31 0.66 4.62 1 7 C0.01 7 -0.98 7 -2 7 C-2.61875 6.01 -2.61875 6.01 -3.25 5 C-3.8275 4.34 -4.405 3.68 -5 3 C-8.54178598 2.74996036 -8.54178598 2.74996036 -12 3 C-12.66 2.67 -13.32 2.34 -14 2 C-14 1.34 -14 0.68 -14 0 C-9.72000646 -2.13999677 -4.50951645 -1.09321611 0 0 Z " fill="#B8AF80" transform="translate(170,44)"/>
<path d="M0 0 C1.65 0.33 3.3 0.66 5 1 C5 3.31 5 5.62 5 8 C0.25 9.125 0.25 9.125 -2 8 C-2 4.23312136 -1.76462683 3.08809695 0 0 Z " fill="#C8C297" transform="translate(330,69)"/>
<path d="M0 0 C2.00720923 0.28674418 4.0085944 0.61866701 6 1 C6 1.66 6 2.32 6 3 C4.35 3 2.7 3 1 3 C1 3.99 1 4.98 1 6 C1.66 6 2.32 6 3 6 C3 5.34 3 4.68 3 4 C3.99 4 4.98 4 6 4 C6 5.32 6 6.64 6 8 C3.6875 8.6875 3.6875 8.6875 1 9 C-0.875 7.875 -0.875 7.875 -2 6 C-1.57894737 1.57894737 -1.57894737 1.57894737 0 0 Z " fill="#E5E9D7" transform="translate(263,69)"/>
<path d="M0 0 C1.20849609 -0.00386719 1.20849609 -0.00386719 2.44140625 -0.0078125 C4.4375 0.125 4.4375 0.125 5.4375 1.125 C5.47842937 3.45797433 5.47991723 5.79205225 5.4375 8.125 C2.4375 7.125 2.4375 7.125 0.4375 4.125 C-2.64615871 3.8747843 -2.64615871 3.8747843 -5.5625 4.125 C-5.8925 3.135 -6.2225 2.145 -6.5625 1.125 C-4.1828388 -0.0648306 -2.64764265 -0.00849966 0 0 Z " fill="#A6A07F" transform="translate(125.5625,42.875)"/>
<path d="M0 0 C0.125 2.875 0.125 2.875 0 6 C-0.66 6.66 -1.32 7.32 -2 8 C-4.625 7.625 -4.625 7.625 -7 7 C-7 4.66666667 -7 2.33333333 -7 0 C-4.3333581 -1.33332095 -2.83319697 -0.67102033 0 0 Z " fill="#EBF0E2" transform="translate(290,70)"/>
<path d="M0 0 C0.33 0.66 0.66 1.32 1 2 C0.67 2.66 0.34 3.32 0 4 C0.66 4.33 1.32 4.66 2 5 C0.68 8.63 -0.64 12.26 -2 16 C-2.66 16 -3.32 16 -4 16 C-4.02696365 14.20841511 -4.04637917 12.41671527 -4.0625 10.625 C-4.07410156 9.62726562 -4.08570313 8.62953125 -4.09765625 7.6015625 C-4 5 -4 5 -3 3 C-2.34 3 -1.68 3 -1 3 C-0.67 2.01 -0.34 1.02 0 0 Z " fill="#C4B692" transform="translate(208,44)"/>
<path d="M0 0 C0 0.66 0 1.32 0 2 C-1.32 2 -2.64 2 -4 2 C-4 2.99 -4 3.98 -4 5 C-3.01 4.67 -2.02 4.34 -1 4 C-0.67 4.99 -0.34 5.98 0 7 C-2.3125 7.6875 -2.3125 7.6875 -5 8 C-6.875 6.875 -6.875 6.875 -8 5 C-7.8125 2.375 -7.8125 2.375 -7 0 C-4.3333581 -1.33332095 -2.83319697 -0.67102033 0 0 Z " fill="#DDD8C7" transform="translate(323,70)"/>
<path d="M0 0 C1.47906892 -0.02689216 2.95827483 -0.04634621 4.4375 -0.0625 C5.26121094 -0.07410156 6.08492188 -0.08570313 6.93359375 -0.09765625 C9 0 9 0 10 1 C10.04092937 3.33297433 10.04241723 5.66705225 10 8 C7 7 7 7 5 4 C2.43717258 3.27034634 2.43717258 3.27034634 0 3 C0 2.01 0 1.02 0 0 Z " fill="#AAA168" transform="translate(326,43)"/>
<path d="M0 0 C0.66 0 1.32 0 2 0 C2.37125 0.78375 2.7425 1.5675 3.125 2.375 C5.87058992 6.21882589 8.43631198 6.17703987 13 7 C9.64672361 9.23551759 9.09256343 9.17283528 5.3125 8.625 C4.50425781 8.51414062 3.69601562 8.40328125 2.86328125 8.2890625 C2.24839844 8.19367188 1.63351562 8.09828125 1 8 C-1.125 3.375 -1.125 3.375 0 0 Z " fill="#C9C39D" transform="translate(321,58)"/>
<path d="M0 0 C4.29 0 8.58 0 13 0 C11 4 11 4 8.875 4.75 C7.946875 4.87375 7.946875 4.87375 7 5 C7 4.67 7 4.34 7 4 C4.69 3.67 2.38 3.34 0 3 C0 2.01 0 1.02 0 0 Z " fill="#ECEAC7" transform="translate(216,28)"/>
<path d="M0 0 C2.97 0 5.94 0 9 0 C9 0.99 9 1.98 9 3 C8.34 3 7.68 3 7 3 C7 3.66 7 4.32 7 5 C6.34 5 5.68 5 5 5 C4.67 4.01 4.34 3.02 4 2 C4.01160156 2.66386719 4.02320313 3.32773437 4.03515625 4.01171875 C4.12478032 12.78207381 4.12478032 12.78207381 3 17 C2.67 17 2.34 17 2 17 C1.93941406 16.10796875 1.87882813 15.2159375 1.81640625 14.296875 C1.73261719 13.12640625 1.64882812 11.9559375 1.5625 10.75 C1.48128906 9.58984375 1.40007812 8.4296875 1.31640625 7.234375 C1.0644608 3.84154434 1.0644608 3.84154434 0 0 Z " fill="#C2B18C" transform="translate(137,43)"/>
<path d="M0 0 C0.80824219 0.11085937 1.61648437 0.22171875 2.44921875 0.3359375 C3.37154297 0.47902344 3.37154297 0.47902344 4.3125 0.625 C4.6425 2.605 4.9725 4.585 5.3125 6.625 C4.3225 6.625 3.3325 6.625 2.3125 6.625 C1.6525 5.635 0.9925 4.645 0.3125 3.625 C-1.68706611 3.58334237 -3.68793389 3.58334237 -5.6875 3.625 C-6.3475 2.965 -7.0075 2.305 -7.6875 1.625 C-4.33422361 -0.61051759 -3.78006343 -0.54783528 0 0 Z " fill="#C6C1AB" transform="translate(106.6875,43.375)"/>
<path d="M0 0 C0.33 0.99 0.66 1.98 1 3 C1.66 2.67 2.32 2.34 3 2 C3 2.99 3 3.98 3 5 C-0.82989106 6.80230168 -3.78121808 7.19622241 -8 7 C-6.68 6.34 -5.36 5.68 -4 5 C-5.65 4.67 -7.3 4.34 -9 4 C-9 3.34 -9 2.68 -9 2 C-6.03 1.34 -3.06 0.68 0 0 Z " fill="#BAAD7F" transform="translate(202,42)"/>
<path d="M0 0 C0.99 0.33 1.98 0.66 3 1 C2.34 2.98 1.68 4.96 1 7 C-2.63 7 -6.26 7 -10 7 C-10 6.34 -10 5.68 -10 5 C-8.906875 4.9175 -7.81375 4.835 -6.6875 4.75 C-2.96723336 4.36310791 -2.96723336 4.36310791 -1.0625 1.9375 C-0.711875 1.298125 -0.36125 0.65875 0 0 Z " fill="#E8EADB" transform="translate(67,59)"/>
<path d="M0 0 C0.99 0 1.98 0 3 0 C3 2.31 3 4.62 3 7 C4.32 7.33 5.64 7.66 7 8 C7 8.66 7 9.32 7 10 C4.35831079 9.64301497 2.39109264 9.247692 0.125 7.8125 C-1 6 -1 6 -0.6875 2.8125 C-0.460625 1.884375 -0.23375 0.95625 0 0 Z " fill="#E0DCBD" transform="translate(98,46)"/>
<path d="M0 0 C0.99 0.33 1.98 0.66 3 1 C4.80795432 5.0916861 5.21156222 8.55719328 5 13 C4.01 12.67 3.02 12.34 2 12 C0.51117562 7.92532275 -0.26270217 4.33458585 0 0 Z " fill="#EFEDD1" transform="translate(81,43)"/>
<path d="M0 0 C1.98 0 3.96 0 6 0 C6.33 0.99 6.66 1.98 7 3 C6.34 3 5.68 3 5 3 C5 4.65 5 6.3 5 8 C4.01 8.33 3.02 8.66 2 9 C2 7.02 2 5.04 2 3 C1.01 2.67 0.02 2.34 -1 2 C-0.67 1.34 -0.34 0.68 0 0 Z " fill="#E2E4CA" transform="translate(295,69)"/>
<path d="M0 0 C0 0.66 0 1.32 0 2 C-3 3 -3 3 -6 2 C-8.39254576 1.77439324 -10.78928123 1.59151405 -13.1875 1.4375 C-14.45980469 1.35371094 -15.73210937 1.26992187 -17.04296875 1.18359375 C-18.01878906 1.12300781 -18.99460938 1.06242187 -20 1 C-20 0.67 -20 0.34 -20 0 C-13.63224179 -1.37681259 -6.24452893 -2.08150964 0 0 Z " fill="#D6BE8F" transform="translate(224,73)"/>
<path d="M0 0 C0.66 0.66 1.32 1.32 2 2 C1.34 2 0.68 2 0 2 C0.33 2.66 0.66 3.32 1 4 C0.91061582 6.88912732 0.765952 9.74393255 0.5625 12.625 C0.51029297 13.42679688 0.45808594 14.22859375 0.40429688 15.0546875 C0.27451629 17.03679103 0.13790265 19.01844499 0 21 C-0.99 21.33 -1.98 21.66 -3 22 C-3.33 21.01 -3.66 20.02 -4 19 C-3.34 18.67 -2.68 18.34 -2 18 C-1.93941406 16.78441406 -1.87882812 15.56882812 -1.81640625 14.31640625 C-1.73201668 12.73175772 -1.6473679 11.14712298 -1.5625 9.5625 C-1.50352539 8.35883789 -1.50352539 8.35883789 -1.44335938 7.13085938 C-1.11328125 1.11328125 -1.11328125 1.11328125 0 0 Z " fill="#F2F3E5" transform="translate(53,45)"/>
<path d="M0 0 C0.99 0 1.98 0 3 0 C3 1.98 3 3.96 3 6 C4.32 6.33 5.64 6.66 7 7 C6.67 7.66 6.34 8.32 6 9 C4.33388095 9.042721 2.66617115 9.04063832 1 9 C0 8 0 8 -0.09765625 6.15234375 C-0.06510417 4.1015625 -0.03255208 2.05078125 0 0 Z " fill="#D6D4C1" transform="translate(236,69)"/>
<path d="M0 0 C2 1 2 1 2.875 3.4375 C3.77050152 6.13605515 3.77050152 6.13605515 6.125 7.3125 C6.74375 7.539375 7.3625 7.76625 8 8 C8 8.33 8 8.66 8 9 C4.7 9 1.4 9 -2 9 C-1.34 6.03 -0.68 3.06 0 0 Z " fill="#E8EACD" transform="translate(86,57)"/>
<path d="M0 0 C0.33 0 0.66 0 1 0 C1 5.94 1 11.88 1 18 C2.98 17.67 4.96 17.34 7 17 C6.67 17.99 6.34 18.98 6 20 C3.36 19.67 0.72 19.34 -2 19 C-2 18.34 -2 17.68 -2 17 C-1.34 17 -0.68 17 0 17 C0 11.39 0 5.78 0 0 Z " fill="#DFE2CC" transform="translate(259,47)"/>
<path d="M0 0 C0.33 0 0.66 0 1 0 C2.86111147 9.35631492 2.86111147 9.35631492 0.80078125 13.2890625 C-0.71166836 15.06884582 -2.12385974 16.6083314 -4 18 C-4.66 18 -5.32 18 -6 18 C-6 17.34 -6 16.68 -6 16 C-5.01 15.34 -4.02 14.68 -3 14 C-2.31089738 12.16326887 -2.31089738 12.16326887 -2 10 C-1.82339844 9.14921875 -1.64679688 8.2984375 -1.46484375 7.421875 C-1.29082031 6.54015625 -1.11679688 5.6584375 -0.9375 4.75 C-0.76089844 3.85796875 -0.58429688 2.9659375 -0.40234375 2.046875 C-0.26957031 1.37140625 -0.13679687 0.6959375 0 0 Z " fill="#BBAB83" transform="translate(203,50)"/>
<path d="M0 0 C2 2 2 2 2 5 C1.34 5 0.68 5 0 5 C-0.12375 5.928125 -0.2475 6.85625 -0.375 7.8125 C-1 11 -1 11 -3 14 C-3 13.34 -3 12.68 -3 12 C-3.66 12 -4.32 12 -5 12 C-4.11264751 9.33794254 -3.0859614 6.8687528 -1.9375 4.3125 C-1.57527344 3.50425781 -1.21304688 2.69601563 -0.83984375 1.86328125 C-0.56269531 1.24839844 -0.28554687 0.63351563 0 0 Z " fill="#C9C6AB" transform="translate(235,49)"/>
<path d="M0 0 C0.66 0 1.32 0 2 0 C2.309375 1.11375 2.61875 2.2275 2.9375 3.375 C3.82326483 6.7945155 3.82326483 6.7945155 5 9 C2.625 8.8125 2.625 8.8125 0 8 C-1.4375 5.625 -1.4375 5.625 -2 3 C-1.34 2.01 -0.68 1.02 0 0 Z " fill="#D8CEAA" transform="translate(118,46)"/>
<path d="M0 0 C1.98 0 3.96 0 6 0 C6 0.99 6 1.98 6 3 C5.01 3.495 5.01 3.495 4 4 C3.67 9.61 3.34 15.22 3 21 C2.67 21 2.34 21 2 21 C1.97310551 18.04160645 1.95321259 15.08345573 1.9375 12.125 C1.92912109 11.28324219 1.92074219 10.44148438 1.91210938 9.57421875 C1.90888672 8.76855469 1.90566406 7.96289062 1.90234375 7.1328125 C1.89710693 6.38918457 1.89187012 5.64555664 1.88647461 4.87939453 C2 3 2 3 3 1 C2.01 0.67 1.02 0.34 0 0 Z " fill="#E5E3D1" transform="translate(260,43)"/>
<path d="M0 0 C2.31 0 4.62 0 7 0 C7.33 0.99 7.66 1.98 8 3 C5.525 4.485 5.525 4.485 3 6 C1.68 5.01 0.36 4.02 -1 3 C-0.67 2.01 -0.34 1.02 0 0 Z " fill="#E4E3BB" transform="translate(286,43)"/>
<path d="M0 0 C-0.66 1.98 -1.32 3.96 -2 6 C-2.33 4.68 -2.66 3.36 -3 2 C-3.99 2 -4.98 2 -6 2 C-6.33 2.66 -6.66 3.32 -7 4 C-7.99 3.34 -8.98 2.68 -10 2 C-10 1.34 -10 0.68 -10 0 C-6.30458414 -0.95024979 -3.69541586 -0.95024979 0 0 Z " fill="#D5D6B9" transform="translate(241,44)"/>
<path d="M0 0 C0.66 0.99 1.32 1.98 2 3 C1.3125 5.625 1.3125 5.625 0 8 C-0.99 8.33 -1.98 8.66 -3 9 C-3.75 6.75 -3.75 6.75 -4 4 C-2.0625 1.6875 -2.0625 1.6875 0 0 Z " fill="#B39B70" transform="translate(177,60)"/>
<path d="M0 0 C0.99 0.33 1.98 0.66 3 1 C2.67 3.97 2.34 6.94 2 10 C1.34 10 0.68 10 0 10 C-1.37494222 7.73538929 -2.07991957 6.54345306 -1.6875 3.875 C-1 2 -1 2 0 0 Z " fill="#CBC5A6" transform="translate(309,50)"/>
<path d="M0 0 C0.66 0.33 1.32 0.66 2 1 C2 3.97 2 6.94 2 10 C1.01 10 0.02 10 -1 10 C-1.125 2.25 -1.125 2.25 0 0 Z " fill="#D4D2BE" transform="translate(308,67)"/>
<path d="M0 0 C-0.33 1.98 -0.66 3.96 -1 6 C-1.66 5.67 -2.32 5.34 -3 5 C-3 4.01 -3 3.02 -3 2 C-4.65 2.33 -6.3 2.66 -8 3 C-8.66 2.01 -9.32 1.02 -10 0 C-2.25 -1.125 -2.25 -1.125 0 0 Z " fill="#CAC5A5" transform="translate(228,44)"/>
<path d="M0 0 C1.65 0 3.3 0 5 0 C5.125 2.875 5.125 2.875 5 6 C4.34 6.66 3.68 7.32 3 8 C2.01 8 1.02 8 0 8 C0.66 6.02 1.32 4.04 2 2 C1.34 1.34 0.68 0.68 0 0 Z " fill="#D9C7A4" transform="translate(208,40)"/>
<path d="M0 0 C0.33 1.65 0.66 3.3 1 5 C0.566875 4.505 0.13375 4.01 -0.3125 3.5 C-1.99740483 1.66781808 -1.99740483 1.66781808 -5 2 C-5.33 2.66 -5.66 3.32 -6 4 C-6.99 4.495 -6.99 4.495 -8 5 C-7.625 2.5625 -7.625 2.5625 -7 0 C-4.3333581 -1.33332095 -2.83319697 -0.67102033 0 0 Z " fill="#DFDECD" transform="translate(255,70)"/>
<path d="M0 0 C0.99 0 1.98 0 3 0 C3 0.66 3 1.32 3 2 C2.34 2 1.68 2 1 2 C0.67 3.98 0.34 5.96 0 8 C-1.32 8 -2.64 8 -4 8 C-2.25 2.25 -2.25 2.25 0 0 Z " fill="#F8F9E8" transform="translate(30,46)"/>
<path d="M0 0 C2 2 2 2 2 5 C3.2065625 5.185625 3.2065625 5.185625 4.4375 5.375 C5.7059375 5.684375 5.7059375 5.684375 7 6 C7.33 6.66 7.66 7.32 8 8 C3.545 7.01 3.545 7.01 -1 6 C-1.042721 4.33388095 -1.04063832 2.66617115 -1 1 C-0.67 0.67 -0.34 0.34 0 0 Z " fill="#C2AB6F" transform="translate(325,46)"/>
<path d="M0 0 C2.3125 1.25 2.3125 1.25 3.3125 3.25 C0.0125 3.25 -3.2875 3.25 -6.6875 3.25 C-6.6875 2.59 -6.6875 1.93 -6.6875 1.25 C-4.03583924 -0.51777384 -3.14407099 -0.87741516 0 0 Z " fill="#E3E4D5" transform="translate(276.6875,62.75)"/>
<path d="M0 0 C0.99 0.33 1.98 0.66 3 1 C-1.625 5.875 -1.625 5.875 -5 7 C-5.99 6.01 -6.98 5.02 -8 4 C-6.865625 3.71125 -5.73125 3.4225 -4.5625 3.125 C-3.386875 2.75375 -2.21125 2.3825 -1 2 C-0.67 1.34 -0.34 0.68 0 0 Z " fill="#E5EADF" transform="translate(44,60)"/>
<path d="M0 0 C0.66 0 1.32 0 2 0 C2 1.65 2 3.3 2 5 C0.02 5.99 0.02 5.99 -2 7 C-2.66 6.34 -3.32 5.68 -4 5 C-3.67 4.34 -3.34 3.68 -3 3 C-2.34 3 -1.68 3 -1 3 C-0.67 2.01 -0.34 1.02 0 0 Z " fill="#D4D2AD" transform="translate(316,60)"/>
<path d="M0 0 C0.33 0.66 0.66 1.32 1 2 C1.66 2.33 2.32 2.66 3 3 C2.34 3 1.68 3 1 3 C0.5978125 4.2065625 0.5978125 4.2065625 0.1875 5.4375 C-0.4003125 6.7059375 -0.4003125 6.7059375 -1 8 C-1.99 8.33 -2.98 8.66 -4 9 C-3.46930939 5.17902761 -2.50298434 2.93828597 0 0 Z " fill="#C9B98A" transform="translate(155,44)"/>
<path d="M0 0 C2.64 0 5.28 0 8 0 C8 2 8 2 6.5 3.625 C6.005 4.07875 5.51 4.5325 5 5 C4.01 4.67 3.02 4.34 2 4 C2 3.34 2 2.68 2 2 C1.34 2 0.68 2 0 2 C0 1.34 0 0.68 0 0 Z " fill="#E0E2D5" transform="translate(245,44)"/>
<path d="M0 0 C0.66 0 1.32 0 2 0 C3.4606285 2.64738916 4 3.89448334 4 7 C2.68 7.33 1.36 7.66 0 8 C0 5.36 0 2.72 0 0 Z " fill="#E2E3D0" transform="translate(97,58)"/>
<path d="M0 0 C0.99 0.33 1.98 0.66 3 1 C2.67 4.3 2.34 7.6 2 11 C1.34 11 0.68 11 0 11 C0 7.37 0 3.74 0 0 Z " fill="#D5C799" transform="translate(204,49)"/>
<path d="M0 0 C0.66 0 1.32 0 2 0 C2 2.64 2 5.28 2 8 C1.34 8 0.68 8 0 8 C-0.66 6.02 -1.32 4.04 -2 2 C-1.34 1.34 -0.68 0.68 0 0 Z " fill="#EBEFE5" transform="translate(44,44)"/>
<path d="M0 0 C0.99 0.33 1.98 0.66 3 1 C2.67 3.64 2.34 6.28 2 9 C1.34 9 0.68 9 0 9 C0 6.03 0 3.06 0 0 Z " fill="#E4E6E1" transform="translate(275,69)"/>
<path d="M0 0 C0 0.66 0 1.32 0 2 C-1.32 2 -2.64 2 -4 2 C-4 2.66 -4 3.32 -4 4 C-4.66 4 -5.32 4 -6 4 C-6.33 2.68 -6.66 1.36 -7 0 C-4.3333581 -1.33332095 -2.83319697 -0.67102033 0 0 Z " fill="#D1CFB1" transform="translate(323,70)"/>
<path d="M0 0 C0.66 0 1.32 0 2 0 C0.84826645 2.46800047 -0.04783565 4.04783565 -2 6 C-5.625 5.625 -5.625 5.625 -9 5 C-9 4.67 -9 4.34 -9 4 C-7.88625 3.71125 -6.7725 3.4225 -5.625 3.125 C-1.99708908 2.30758671 -1.99708908 2.30758671 0 0 Z " fill="#ACA77C" transform="translate(169,60)"/>
<path d="M0 0 C0 0.66 0 1.32 0 2 C-2.31 2.33 -4.62 2.66 -7 3 C-7 2.01 -7 1.02 -7 0 C-4.3333581 -1.33332095 -2.83319697 -0.67102033 0 0 Z " fill="#E0E3D4" transform="translate(290,70)"/>
<path d="M0 0 C0.66 0.33 1.32 0.66 2 1 C2 3.31 2 5.62 2 8 C1.01 7.67 0.02 7.34 -1 7 C-1.6875 4.9375 -1.6875 4.9375 -2 3 C-1.34 3 -0.68 3 0 3 C0 2.01 0 1.02 0 0 Z " fill="#C7BB8A" transform="translate(334,43)"/>
<path d="M0 0 C2.00720923 0.28674418 4.0085944 0.61866701 6 1 C6 1.66 6 2.32 6 3 C4.35 3 2.7 3 1 3 C0.67 3.66 0.34 4.32 0 5 C-0.5625 3.0625 -0.5625 3.0625 -1 1 C-0.67 0.67 -0.34 0.34 0 0 Z " fill="#DBDED0" transform="translate(263,69)"/>
<path d="M0 0 C-0.33 0.99 -0.66 1.98 -1 3 C-1.66 3 -2.32 3 -3 3 C-2.67 5.31 -2.34 7.62 -2 10 C-2.66 10 -3.32 10 -4 10 C-5.3442623 4.62295082 -5.3442623 4.62295082 -3.6875 1.625 C-2 0 -2 0 0 0 Z " fill="#C5BC8A" transform="translate(326,44)"/>
<path d="M0 0 C0.33 0.66 0.66 1.32 1 2 C1.99 2.33 2.98 2.66 4 3 C4 3.33 4 3.66 4 4 C1.36 4 -1.28 4 -4 4 C-4 3.34 -4 2.68 -4 2 C-2.68 1.34 -1.36 0.68 0 0 Z " fill="#E9EBDB" transform="translate(75,62)"/>
<path d="M0 0 C0.33 0 0.66 0 1 0 C1.25 6.625 1.25 6.625 -1 10 C-1.66 10 -2.32 10 -3 10 C-2.01 6.7 -1.02 3.4 0 0 Z " fill="#D8E1CA" transform="translate(77,53)"/>
<path d="M0 0 C0.99 0 1.98 0 3 0 C3.33 2.31 3.66 4.62 4 7 C3.01 7.495 3.01 7.495 2 8 C0.74335022 5.09399739 0 3.20395416 0 0 Z " fill="#F2EEC8" transform="translate(235,46)"/>
<path d="M0 0 C-0.33 0.99 -0.66 1.98 -1 3 C-2.9375 3.75 -2.9375 3.75 -5 4 C-5.66 3.67 -6.32 3.34 -7 3 C-7 2.34 -7 1.68 -7 1 C-4.53721199 -0.231394 -2.7204945 -0.07159196 0 0 Z " fill="#A3A16A" transform="translate(163,43)"/>
<path d="M0 0 C-0.33 0.99 -0.66 1.98 -1 3 C-3.375 3.625 -3.375 3.625 -6 4 C-6.66 3.34 -7.32 2.68 -8 2 C-4.77208445 -0.1519437 -3.71599191 -0.20086443 0 0 Z " fill="#ACA994" transform="translate(107,43)"/>
<path d="M0 0 C0.66 0.66 1.32 1.32 2 2 C1.625 4.125 1.625 4.125 1 6 C-0.98 6 -2.96 6 -5 6 C-4.67 5.34 -4.34 4.68 -4 4 C-2.68 4 -1.36 4 0 4 C0 2.68 0 1.36 0 0 Z " fill="#E8E4B8" transform="translate(302,60)"/>
<path d="M0 0 C1.65 0.99 3.3 1.98 5 3 C4.67 4.65 4.34 6.3 4 8 C3.67 7.34 3.34 6.68 3 6 C2.34 6 1.68 6 1 6 C0.67 4.02 0.34 2.04 0 0 Z " fill="#C9C9A9" transform="translate(241,55)"/>
<path d="M0 0 C2 2 2 2 2 6 C1.34 6 0.68 6 0 6 C-0.33 6.99 -0.66 7.98 -1 9 C-1.80967438 6.08517222 -2.21845993 4.53886783 -1.0625 1.6875 C-0.711875 1.130625 -0.36125 0.57375 0 0 Z " fill="#DBD7B7" transform="translate(239,50)"/>
<path d="M0 0 C2.97 0 5.94 0 9 0 C6.4345406 2.5654594 4.52313332 2.54046087 1 3 C0.67 2.01 0.34 1.02 0 0 Z " fill="#D5C48B" transform="translate(191,46)"/>
<path d="M0 0 C0.66 0 1.32 0 2 0 C2 2.31 2 4.62 2 7 C1.01 6.67 0.02 6.34 -1 6 C-0.67 4.02 -0.34 2.04 0 0 Z " fill="#C1BEA2" transform="translate(129,44)"/>
<path d="M0 0 C1.65 0 3.3 0 5 0 C5 0.99 5 1.98 5 3 C2 4 2 4 -1 3 C-0.67 2.01 -0.34 1.02 0 0 Z " fill="#AAA671" transform="translate(306,43)"/>
<path d="M0 0 C0.99 0.33 1.98 0.66 3 1 C2.1875 2.9375 2.1875 2.9375 1 5 C0.01 5.33 -0.98 5.66 -2 6 C-2 4.68 -2 3.36 -2 2 C-1.34 2 -0.68 2 0 2 C0 1.34 0 0.68 0 0 Z " fill="#DAD5BE" transform="translate(217,36)"/>
<path d="M0 0 C3 3.875 3 3.875 3 5 C0.69 5.33 -1.62 5.66 -4 6 C-2.84826645 3.53199953 -1.95216435 1.95216435 0 0 Z " fill="#E9E1C0" transform="translate(215,29)"/>
<path d="M0 0 C0 0.99 0 1.98 0 3 C-4.75 4.125 -4.75 4.125 -7 3 C-7 2.34 -7 1.68 -7 1 C-2.25 0 -2.25 0 0 0 Z " fill="#DFD9BB" transform="translate(335,74)"/>
<path d="M0 0 C0.99 0 1.98 0 3 0 C1.70700306 2.88437779 0.34058637 4.87219421 -2 7 C-2.66 6.67 -3.32 6.34 -4 6 C-3.34 5.01 -2.68 4.02 -2 3 C-1.34 3 -0.68 3 0 3 C0 2.01 0 1.02 0 0 Z " fill="#DCD3B5" transform="translate(227,72)"/>
<path d="M0 0 C2.46800047 1.15173355 4.04783565 2.04783565 6 4 C3.03 4 0.06 4 -3 4 C-2.01 2.68 -1.02 1.36 0 0 Z " fill="#AD9253" transform="translate(173,68)"/>
<path d="M0 0 C0.33 0 0.66 0 1 0 C1 3.3 1 6.6 1 10 C0.01 10.33 -0.98 10.66 -2 11 C-2.33 10.01 -2.66 9.02 -3 8 C-2.34 7.67 -1.68 7.34 -1 7 C-0.59270772 4.67843403 -0.25561323 2.3431213 0 0 Z " fill="#E4E4D6" transform="translate(52,56)"/>
<path d="M0 0 C3.26954202 0.56371414 4.82575883 1.49962266 7 4 C4.69 3.67 2.38 3.34 0 3 C0 2.01 0 1.02 0 0 Z " fill="#F9FCF1" transform="translate(32,63)"/>
<path d="M0 0 C2.31 0.66 4.62 1.32 7 2 C5.68 2.33 4.36 2.66 3 3 C3 3.66 3 4.32 3 5 C2.01 4.67 1.02 4.34 0 4 C0.33 3.67 0.66 3.34 1 3 C0.34 2.34 -0.32 1.68 -1 1 C-0.67 0.67 -0.34 0.34 0 0 Z " fill="#CBBA8D" transform="translate(121,51)"/>
<path d="M0 0 C1.98 0 3.96 0 6 0 C6 0.99 6 1.98 6 3 C5.34 3 4.68 3 4 3 C4 3.66 4 4.32 4 5 C3.34 5 2.68 5 2 5 C2 4.01 2 3.02 2 2 C1.34 1.34 0.68 0.68 0 0 Z " fill="#B5A875" transform="translate(140,43)"/>
<path d="" fill="#FFFFFF" transform="translate(0,0)"/>
<path d="" fill="#FFFFFF" transform="translate(0,0)"/>
</svg>
