<?xml version="1.0" encoding="UTF-8"?>
<svg version="1.1" xmlns="http://www.w3.org/2000/svg" width="388" height="121">
<path d="M0 0 C-0.875 1.02083333 -1.75 2.04166667 -2.625 3.0625 C-3.44097656 4.02736328 -3.44097656 4.02736328 -4.2734375 5.01171875 C-5.36952136 6.27395107 -6.49714352 7.50998056 -7.6640625 8.70703125 C-10.67772331 11.87657107 -12.21194462 13.99626713 -12.8125 18.375 C-13.75571562 23.59412642 -16.32350411 26.71771827 -20.13671875 30.3125 C-25.42936548 33.43176792 -31.0761247 32.68255178 -37 32 C-35.80078125 30.0234375 -35.80078125 30.0234375 -34 28 C-31.73046875 27.6015625 -31.73046875 27.6015625 -29.1875 27.625 C-25.49118549 27.37678034 -23.28134968 27.013516 -20.5 24.5 C-17.76602236 21.33314257 -17.2770897 18.30168001 -16.6328125 14.2578125 C-15.54054536 10.36071123 -12.83938116 7.77687906 -10 5 C-12.47594672 6.1458927 -13.92669723 6.9162254 -15.75 9 C-18 11 -18 11 -21.75 11.8125 C-31.96935924 14.06263414 -40.62475057 26.62475057 -47 33 C-30.17 33.33 -13.34 33.66 4 34 C4 33.01 4 32.02 4 31 C6.62187494 32.04874998 7.79371361 32.64931313 9.25 35.125 C9.4975 35.74375 9.745 36.3625 10 37 C8.02 38.65 6.04 40.3 4 42 C4 40.68 4 39.36 4 38 C-15.8 38 -35.6 38 -56 38 C-54.02304141 34.04608282 -51.78125805 31.50662656 -48.6953125 28.46484375 C-48.17492401 27.94491348 -47.65453552 27.42498322 -47.11837769 26.88929749 C-46.01959792 25.79353131 -44.91839618 24.70018908 -43.81494141 23.60913086 C-42.1325705 21.94498847 -40.45831212 20.27301123 -38.78515625 18.59960938 C-37.71401167 17.53338179 -36.64241196 16.46761119 -35.5703125 15.40234375 C-34.82323532 14.65693581 -34.82323532 14.65693581 -34.06106567 13.89646912 C-27.1813297 7.10938238 -27.1813297 7.10938238 -22.625 6.6875 C-18.70153185 5.94339397 -18.60865078 5.81702571 -16.375 2.9375 C-12.19040062 -1.87938775 -5.82996646 -0.4670893 0 0 Z " fill="#96815E" transform="translate(220,37)"/>
<path d="M0 0 C2.62187494 1.04874998 3.79371361 1.64931313 5.25 4.125 C5.62125 5.053125 5.62125 5.053125 6 6 C4.02 7.65 2.04 9.3 0 11 C0 9.68 0 8.36 0 7 C-19.8 7 -39.6 7 -60 7 C-58 3 -58 3 -56 1 C-54.68 1 -53.36 1 -52 1 C-52 1.66 -52 2.32 -52 3 C-34.84 3 -17.68 3 0 3 C0 2.01 0 1.02 0 0 Z " fill="#857152" transform="translate(224,68)"/>
<path d="M0 0 C2.97 0 5.94 0 9 0 C9 0.66 9 1.32 9 2 C8.34 2 7.68 2 7 2 C8.65 6.29 10.3 10.58 12 15 C12.515625 13.7625 13.03125 12.525 13.5625 11.25 C13.99755859 10.20585938 13.99755859 10.20585938 14.44140625 9.140625 C15.09161041 6.64893352 14.81890412 5.4125798 14 3 C13.67 2.01 13.34 1.02 13 0 C15.97 0 18.94 0 22 0 C22 0.66 22 1.32 22 2 C21.34 2 20.68 2 20 2 C21.32 6.29 22.64 10.58 24 15 C24.70125 13.081875 25.4025 11.16375 26.125 9.1875 C26.51945312 8.10855469 26.91390625 7.02960937 27.3203125 5.91796875 C27.54460937 4.95503906 27.76890625 3.99210937 28 3 C27.34 2.01 26.68 1.02 26 0 C28.64 0 31.28 0 34 0 C34 0.66 34 1.32 34 2 C33.5359375 2.45874512 33.071875 2.91749023 32.59375 3.39013672 C30.84292712 5.15866094 30.28177268 6.41772955 29.5 8.7578125 C29.2525 9.46550781 29.005 10.17320313 28.75 10.90234375 C28.24763264 12.39113035 27.74765361 13.88072487 27.25 15.37109375 C26.58077121 17.27769868 25.79747498 19.14337856 25 21 C24.01 21.33 23.02 21.66 22 22 C20.35 18.04 18.7 14.08 17 10 C15.35 13.96 13.7 17.92 12 22 C11.34 22 10.68 22 10 22 C9.76812988 21.47567383 9.53625977 20.95134766 9.29736328 20.41113281 C8.24089463 18.02365093 7.18296187 15.63682055 6.125 13.25 C5.76019531 12.425 5.39539063 11.6 5.01953125 10.75 C4.66503906 9.95078125 4.31054688 9.1515625 3.9453125 8.328125 C3.62062988 7.5949707 3.29594727 6.86181641 2.96142578 6.10644531 C2.02211514 4.04845339 1.01169513 2.02339027 0 0 Z " fill="#AFAB92" transform="translate(219,44)"/>
<path d="M0 0 C2.6015625 -0.4375 2.6015625 -0.4375 6 0 C8.5019293 2.02687943 10.39795281 4.47133223 12.375 7 C12.92027344 7.66773438 13.46554687 8.33546875 14.02734375 9.0234375 C15.36759766 10.66936335 16.68599573 12.33304313 18 14 C18 10.04 18 6.08 18 2 C17.01 2 16.02 2 15 2 C15 1.34 15 0.68 15 0 C17.97 0 20.94 0 24 0 C24 0.66 24 1.32 24 2 C23.01 2 22.02 2 21 2 C20.67 8.6 20.34 15.2 20 22 C14.86090289 17.59505962 11.15200097 14.06341582 7 9 C6.67 12.63 6.34 16.26 6 20 C7.32 20.33 8.64 20.66 10 21 C10 21.33 10 21.66 10 22 C6.7 22 3.4 22 0 22 C0.33 21.34 0.66 20.68 1 20 C1.99 20 2.98 20 4 20 C3.91299202 17.56077639 3.80613998 15.12521586 3.6875 12.6875 C3.66494141 11.99720703 3.64238281 11.30691406 3.61914062 10.59570312 C3.44765943 6.54757542 3.44765943 6.54757542 1.45703125 3.14453125 C0.73580078 2.57798828 0.73580078 2.57798828 0 2 C0 1.34 0 0.68 0 0 Z " fill="#CBCAAA" transform="translate(270,44)"/>
<path d="M0 0 C5.94 0.33 11.88 0.66 18 1 C18 2.98 18 4.96 18 7 C17.484375 6.505 16.96875 6.01 16.4375 5.5 C13.19319983 3.50350759 10.73782666 3.78435615 7 4 C6.67 6.31 6.34 8.62 6 11 C7.97536745 10.65213292 7.97536745 10.65213292 10 10 C10.33 9.34 10.66 8.68 11 8 C11.66 8 12.32 8 13 8 C13 10.64 13 13.28 13 16 C12.34 16 11.68 16 11 16 C10.67 15.34 10.34 14.68 10 14 C7.97536745 13.34786708 7.97536745 13.34786708 6 13 C6.33 15.31 6.66 17.62 7 20 C11.04962316 21.15703519 13.25145434 20.92492885 17 19 C17.66 18.34 18.32 17.68 19 17 C19 18.98 19 20.96 19 23 C12.11422188 24.01593448 5.90188971 23.83854735 -1 23 C-0.34 22.34 0.32 21.68 1 21 C1.46677296 18.31183834 1.46677296 18.31183834 1.625 15.25 C1.69976562 14.22390625 1.77453125 13.1978125 1.8515625 12.140625 C1.99583567 9.08810837 2.0274436 6.05538786 2 3 C1.34 3 0.68 3 0 3 C0 2.01 0 1.02 0 0 Z " fill="#8C8259" transform="translate(298,43)"/>
<path d="M0 0 C3 1 3 1 3.93554688 2.81005859 C4.19400391 3.58172363 4.45246094 4.35338867 4.71875 5.1484375 C5.01136719 5.98890625 5.30398437 6.829375 5.60546875 7.6953125 C5.90066406 8.57960938 6.19585937 9.46390625 6.5 10.375 C7.08585534 12.11465778 7.67933033 13.85177246 8.28125 15.5859375 C8.53970703 16.3598584 8.79816406 17.1337793 9.06445312 17.93115234 C10.02376712 20.37670633 10.02376712 20.37670633 13 23 C9.7 23 6.4 23 3 23 C3.66 22.01 4.32 21.02 5 20 C4.6878236 17.35367713 4.6878236 17.35367713 4 15 C1.69 15.33 -0.62 15.66 -3 16 C-3.67958603 18.39719432 -3.67958603 18.39719432 -4 21 C-3.34 21.66 -2.68 22.32 -2 23 C-4.64 23 -7.28 23 -10 23 C-9.67 22.34 -9.34 21.68 -9 21 C-8.34 21 -7.68 21 -7 21 C-6.82984375 20.32195313 -6.6596875 19.64390625 -6.484375 18.9453125 C-4.780614 12.40214525 -2.65633189 6.21608631 0 0 Z " fill="#B4B59D" transform="translate(81,43)"/>
<path d="M0 0 C0.33 1.98 0.66 3.96 1 6 C-2.875 4.125 -2.875 4.125 -4 3 C-5.66617115 2.95936168 -7.33388095 2.957279 -9 3 C-8.84776911 4.96281158 -8.84776911 4.96281158 -8 7 C-5.94315469 8.09755413 -5.94315469 8.09755413 -3.5 8.8125 C-1.05078125 9.80078125 -1.05078125 9.80078125 1 11 C2.3125 14.5 2.3125 14.5 2 18 C0.26807053 20.43753036 -1.09840506 21.59583675 -3.8125 22.8125 C-6.96720558 23.08290334 -9.89343576 22.53767458 -13 22 C-13.33 19.69 -13.66 17.38 -14 15 C-11 16 -11 16 -9.125 18.0625 C-7.13722682 20.26668531 -7.13722682 20.26668531 -4.25 20.25 C-3.13625 20.12625 -3.13625 20.12625 -2 20 C-2 18.02 -2 16.04 -2 14 C-2.61488281 13.82984375 -3.22976563 13.6596875 -3.86328125 13.484375 C-10.38184791 11.52984464 -10.38184791 11.52984464 -13.1875 9.125 C-14 7 -14 7 -13.25 4.375 C-12.8375 3.59125 -12.425 2.8075 -12 2 C-11.67 1.34 -11.34 0.68 -11 0 C-6.94952424 -1.35015859 -4.2079832 -0.62084998 0 0 Z " fill="#B5A06A" transform="translate(335,44)"/>
<path d="M0 0 C0 1.98 0 3.96 0 6 C-0.8353125 5.2575 -0.8353125 5.2575 -1.6875 4.5 C-4.38162983 2.75245633 -5.85375007 2.73781251 -9 3 C-9 4.32 -9 5.64 -9 7 C-8.37351562 7.26554687 -7.74703125 7.53109375 -7.1015625 7.8046875 C-5.87566406 8.33449219 -5.87566406 8.33449219 -4.625 8.875 C-3.81289062 9.22304688 -3.00078125 9.57109375 -2.1640625 9.9296875 C0 11 0 11 2 13 C2.375 15.375 2.375 15.375 2 18 C0.09154024 20.54461301 -1.30730178 21.75661955 -4.3125 22.8125 C-7.66063011 23.04609047 -10.70342836 22.58174794 -14 22 C-14 19.69 -14 17.38 -14 15 C-13.34 15 -12.68 15 -12 15 C-11.4225 15.825 -10.845 16.65 -10.25 17.5 C-8.19396698 20.35082131 -8.19396698 20.35082131 -4.75 20.3125 C-3.8425 20.209375 -2.935 20.10625 -2 20 C-2.15745886 17.58176694 -2.15745886 17.58176694 -3 15 C-4.98013538 13.39669202 -4.98013538 13.39669202 -7.4375 12.3125 C-10.09680535 11.00205579 -11.89048445 10.10951555 -14 8 C-13.8400431 4.96081884 -13.12524274 3.198301 -11.5 0.625 C-7.69142884 -1.85057125 -4.30526621 -0.84633438 0 0 Z " fill="#ADA585" transform="translate(111,44)"/>
<path d="M0 0 C0.33 2.64 0.66 5.28 1 8 C0.55269531 7.55527344 0.10539062 7.11054687 -0.35546875 6.65234375 C-4.00546023 3.01373163 -4.00546023 3.01373163 -8.8125 1.9375 C-11.31570932 2.9253049 -11.31570932 2.9253049 -13 6 C-13.57810336 10.07675486 -13.60426618 13.79146764 -11.75 17.5 C-9.6981086 19.25876406 -8.71484278 19.92015168 -6 20 C-3.35774595 18.68134288 -3.35774595 18.68134288 -1 17 C-0.34 16.67 0.32 16.34 1 16 C0.09298316 19.13333089 -0.41592104 20.64306286 -3.25 22.375 C-8.20870167 23.50197765 -11.02001569 22.61017891 -15.3125 19.9375 C-18.2385964 16.73920859 -18.95413313 15.19371503 -19.16796875 10.98828125 C-18.79807706 6.60979587 -16.70841599 3.86338199 -14 0.5625 C-9.36262662 -1.85279863 -5.03565885 -0.81134959 0 0 Z " fill="#ACAC9B" transform="translate(45,44)"/>
<path d="M0 0 C0.33 1.98 0.66 3.96 1 6 C0.34 6 -0.32 6 -1 6 C-1.433125 5.505 -1.86625 5.01 -2.3125 4.5 C-3.96020352 2.72788682 -3.96020352 2.72788682 -6.6875 2.8125 C-7.450625 2.874375 -8.21375 2.93625 -9 3 C-8.79905284 4.94389713 -8.79905284 4.94389713 -8 7 C-6.22531753 8.2729239 -6.22531753 8.2729239 -4.0625 9.125 C-1.46790013 10.26455203 -0.03450153 10.96549847 2 13 C2 16.4375 2 16.4375 1 20 C-2.50601376 22.73640098 -5.08508642 23.19802258 -9.375 22.6875 C-11.169375 22.3471875 -11.169375 22.3471875 -13 22 C-13.33 19.69 -13.66 17.38 -14 15 C-11 16 -11 16 -9.125 18.125 C-8.42375 18.74375 -7.7225 19.3625 -7 20 C-4.29294488 19.85974801 -4.29294488 19.85974801 -2 19 C-1.7886547 16.6087705 -1.7886547 16.6087705 -3 14 C-5.25827459 12.68231195 -7.53100829 11.73802845 -9.96875 10.796875 C-12 10 -12 10 -13 9 C-13.26293056 4.96839809 -13.29404844 3.44107266 -11 0 C-6.94952424 -1.35015859 -4.2079832 -0.62084998 0 0 Z " fill="#9D9273" transform="translate(130,44)"/>
<path d="M0 0 C0 2.31 0 4.62 0 7 C-0.99 6.34 -1.98 5.68 -3 5 C-3 4.34 -3 3.68 -3 3 C-6.35458155 2.23477199 -6.35458155 2.23477199 -10 2 C-12.11534739 3.52364183 -12.87632833 4.58202105 -13.6171875 7.0859375 C-14.04699189 10.90207951 -14.24863646 13.3718658 -12.8125 17 C-10.77716944 19.245882 -9.99698754 19.82370662 -7 20 C-4.31850007 19.61432869 -4.31850007 19.61432869 -2 19 C-1.67 18.01 -1.34 17.02 -1 16 C-0.34 16 0.32 16 1 16 C-0.02452506 18.97112267 -1.02951547 20.02108248 -3.625 21.875 C-8.01893496 23.33964499 -10.83030603 22.92515658 -15 21 C-17.64877043 18.81476439 -18.72630019 17.27966665 -19.4453125 13.91796875 C-19.80859268 9.28219781 -19.13542542 6.58594793 -16.125 3 C-11.29895907 -2.0358688 -6.57134801 -1.54619953 0 0 Z " fill="#90825F" transform="translate(170,44)"/>
<path d="M0 0 C3.3 0 6.6 0 10 0 C10 0.99 10 1.98 10 3 C9.01 3 8.02 3 7 3 C7 8.94 7 14.88 7 21 C14.06631817 20.0613289 14.06631817 20.0613289 19 16 C19.04254356 17.99954746 19.04080783 20.00041636 19 22 C18 23 18 23 16.14233398 23.11352539 C15.35157471 23.10828857 14.56081543 23.10305176 13.74609375 23.09765625 C12.89208984 23.09443359 12.03808594 23.09121094 11.15820312 23.08789062 C10.26037109 23.07951172 9.36253906 23.07113281 8.4375 23.0625 C7.53580078 23.05798828 6.63410156 23.05347656 5.70507812 23.04882812 C3.46998686 23.03700225 1.23502563 23.0205222 -1 23 C-0.51104248 22.5877417 -0.02208496 22.1754834 0.48168945 21.75073242 C2.32221224 19.62846375 2.35527774 18.75064629 2.29296875 15.98828125 C2.28330078 15.23095703 2.27363281 14.47363281 2.26367188 13.69335938 C2.23853516 12.90767578 2.21339844 12.12199219 2.1875 11.3125 C2.17396484 10.51521484 2.16042969 9.71792969 2.14648438 8.89648438 C2.11117089 6.93070033 2.05736447 4.96526418 2 3 C1.34 3 0.68 3 0 3 C0 2.01 0 1.02 0 0 Z " fill="#8C8D7F" transform="translate(50,43)"/>
<path d="M0 0 C2.97 0 5.94 0 9 0 C9 0.66 9 1.32 9 2 C8.34 2 7.68 2 7 2 C8.65 6.29 10.3 10.58 12 15 C13.32 11.7 14.64 8.4 16 5 C18 9 18 9 17.390625 11.21875 C17.01421875 11.9715625 16.6378125 12.724375 16.25 13.5 C15.88390625 14.2528125 15.5178125 15.005625 15.140625 15.78125 C14.76421875 16.5134375 14.3878125 17.245625 14 18 C13.62359375 18.7528125 13.2471875 19.505625 12.859375 20.28125 C12.57578125 20.8484375 12.2921875 21.415625 12 22 C11.34 22 10.68 22 10 22 C9.76812988 21.47567383 9.53625977 20.95134766 9.29736328 20.41113281 C8.24089463 18.02365093 7.18296187 15.63682055 6.125 13.25 C5.76019531 12.425 5.39539063 11.6 5.01953125 10.75 C4.66503906 9.95078125 4.31054688 9.1515625 3.9453125 8.328125 C3.62062988 7.5949707 3.29594727 6.86181641 2.96142578 6.10644531 C2.02211514 4.04845339 1.01169513 2.02339027 0 0 Z " fill="#AFA88C" transform="translate(219,44)"/>
<path d="M0 0 C2.97 0 5.94 0 9 0 C8.67 0.99 8.34 1.98 8 3 C7.34 3 6.68 3 6 3 C6.11358476 5.95918198 6.24033086 8.91676783 6.375 11.875 C6.4059375 12.71675781 6.436875 13.55851562 6.46875 14.42578125 C6.50742187 15.23144531 6.54609375 16.03710938 6.5859375 16.8671875 C6.6173584 17.61081543 6.6487793 18.35444336 6.68115234 19.12060547 C6.85419551 21.24010974 6.85419551 21.24010974 9 23 C6.03 23 3.06 23 0 23 C0.33 22.34 0.66 21.68 1 21 C1.15004973 19.6265365 1.24838006 18.2471474 1.31640625 16.8671875 C1.35830078 16.06152344 1.40019531 15.25585938 1.44335938 14.42578125 C1.48267578 13.58402344 1.52199219 12.74226563 1.5625 11.875 C1.60568359 11.02550781 1.64886719 10.17601562 1.69335938 9.30078125 C1.79954236 7.20071777 1.90028497 5.10038052 2 3 C1.34 3 0.68 3 0 3 C0 2.01 0 1.02 0 0 Z " fill="#8A8978" transform="translate(257,43)"/>
<path d="M0 0 C2.64 0 5.28 0 8 0 C8 0.99 8 1.98 8 3 C7.34 3 6.68 3 6 3 C6.14046255 5.95867918 6.28712224 8.91682264 6.4375 11.875 C6.47681641 12.71675781 6.51613281 13.55851562 6.55664062 14.42578125 C6.59853516 15.23144531 6.64042969 16.03710938 6.68359375 16.8671875 C6.72025146 17.61081543 6.75690918 18.35444336 6.79467773 19.12060547 C6.89955865 21.08864312 6.89955865 21.08864312 8 23 C5.36 23 2.72 23 0 23 C0.33 22.34 0.66 21.68 1 21 C1.15004973 19.6265365 1.24838006 18.2471474 1.31640625 16.8671875 C1.35830078 16.06152344 1.40019531 15.25585938 1.44335938 14.42578125 C1.48267578 13.58402344 1.52199219 12.74226563 1.5625 11.875 C1.60568359 11.02550781 1.64886719 10.17601562 1.69335938 9.30078125 C1.79954236 7.20071777 1.90028497 5.10038052 2 3 C1.34 3 0.68 3 0 3 C0 2.01 0 1.02 0 0 Z " fill="#938261" transform="translate(137,43)"/>
<path d="M0 0 C0.66 0.99 1.32 1.98 2 3 C2.66 2.01 3.32 1.02 4 0 C4.57553731 3.28878463 4.48569405 5.30671092 2.546875 8.07421875 C0.75244766 10.11368344 -1.08339292 12.07518475 -3 14 C-3.4228125 14.56976563 -3.845625 15.13953125 -4.28125 15.7265625 C-7.07586629 17.79711912 -9.79246664 17.28094129 -13.1875 17.1875 C-15.09595703 17.14689453 -15.09595703 17.14689453 -17.04296875 17.10546875 C-18.01878906 17.07066406 -18.99460938 17.03585938 -20 17 C-18.80078125 15.0234375 -18.80078125 15.0234375 -17 13 C-14.73046875 12.6015625 -14.73046875 12.6015625 -12.1875 12.625 C-8.37272837 12.38518249 -6.25269928 11.95687408 -3.4375 9.3125 C-0.9407876 6.40787402 -0.18391514 3.86221795 0 0 Z " fill="#917B5A" transform="translate(203,52)"/>
<path d="M0 0 C3.3 0 6.6 0 10 0 C8.10634283 3.78731434 6.40275595 5.82021099 3.5 8.8125 C-0.21574638 12.83838894 -2.17801391 15.59837713 -3 21 C-3.33 21 -3.66 21 -4 21 C-4.92017937 12.5309417 -4.92017937 12.5309417 -2.6640625 8.77734375 C-1.18027954 7.08109421 0.32453303 5.50592567 2 4 C1.01 3.67 0.02 3.34 -1 3 C-0.67 2.01 -0.34 1.02 0 0 Z " fill="#A89879" transform="translate(208,38)"/>
<path d="M0 0 C2.97 0 5.94 0 9 0 C9 0.66 9 1.32 9 2 C8.01 2 7.02 2 6 2 C5.67 8.6 5.34 15.2 5 22 C-2.875 15.25 -2.875 15.25 -4 11 C0.75 11.75 0.75 11.75 3 14 C3 10.04 3 6.08 3 2 C2.01 2 1.02 2 0 2 C0 1.34 0 0.68 0 0 Z " fill="#CDCCAE" transform="translate(285,44)"/>
<path d="M0 0 C3.28220895 1.64110448 3.74570789 4.69322988 5 8 C5 8.99 5 9.98 5 11 C2.69 11.33 0.38 11.66 -2 12 C-2.67958603 14.39719432 -2.67958603 14.39719432 -3 17 C-2.34 17.66 -1.68 18.32 -1 19 C-3.64 19 -6.28 19 -9 19 C-8.67 18.34 -8.34 17.68 -8 17 C-7.34 17 -6.68 17 -6 17 C-5.81824219 16.27554688 -5.63648437 15.55109375 -5.44921875 14.8046875 C-4.07832245 9.53200943 -2.69320059 4.74516295 0 0 Z " fill="#858579" transform="translate(80,47)"/>
<path d="M0 0 C-3.81088314 5.59723461 -3.81088314 5.59723461 -6.9375 6.65625 C-10.7969226 7.1825349 -14.22059196 7.06295851 -18 6 C-13.6850707 -1.67098542 -8.17051788 -0.64598531 0 0 Z " fill="#D1C9A6" transform="translate(228,29)"/>
<path d="M0 0 C2.72705554 -0.22111261 4.46420662 -0.30361625 6.875 1.0625 C8 3 8 3 8.0625 6.5 C7 10 7 10 4.4375 12 C0.09705465 13.26267501 -2.5864136 12.83705949 -7 12 C-7.33 9.69 -7.66 7.38 -8 5 C-5 6 -5 6 -3.125 8.125 C-2.073125 9.053125 -2.073125 9.053125 -1 10 C1.70705512 9.85974801 1.70705512 9.85974801 4 9 C3.67 7.35 3.34 5.7 3 4 C2.01 3.67 1.02 3.34 0 3 C0 2.01 0 1.02 0 0 Z " fill="#B1A583" transform="translate(124,54)"/>
<path d="M0 0 C-2 2 -2 2 -4.3828125 2.1953125 C-5.28773438 2.17210937 -6.19265625 2.14890625 -7.125 2.125 C-8.03507812 2.10695312 -8.94515625 2.08890625 -9.8828125 2.0703125 C-10.58148438 2.04710937 -11.28015625 2.02390625 -12 2 C-12.12375 2.598125 -12.2475 3.19625 -12.375 3.8125 C-13 6 -13 6 -15 9 C-18.0390625 9.73046875 -18.0390625 9.73046875 -21.625 10.1875 C-22.81351563 10.34605469 -24.00203125 10.50460938 -25.2265625 10.66796875 C-26.14179688 10.77753906 -27.05703125 10.88710938 -28 11 C-27.203125 9.0234375 -27.203125 9.0234375 -26 7 C-24.9275 6.87625 -23.855 6.7525 -22.75 6.625 C-18.69322967 5.94887161 -18.64694695 5.89103103 -16.375 2.9375 C-12.19040062 -1.87938775 -5.82996646 -0.4670893 0 0 Z " fill="#A79872" transform="translate(220,37)"/>
<path d="M0 0 C3.3 0 6.6 0 10 0 C10 0.99 10 1.98 10 3 C9.01 3 8.02 3 7 3 C7 8.94 7 14.88 7 21 C5 19 5 19 4.8046875 15.5234375 C4.81798507 14.14049032 4.84183768 12.75761346 4.875 11.375 C4.88402344 10.66859375 4.89304687 9.9621875 4.90234375 9.234375 C4.92592397 7.48943902 4.96179539 5.74467705 5 4 C4.01 4.33 3.02 4.66 2 5 C2 4.34 2 3.68 2 3 C1.34 3 0.68 3 0 3 C0 2.01 0 1.02 0 0 Z " fill="#9A9989" transform="translate(50,43)"/>
<path d="M0 0 C0.33 1.65 0.66 3.3 1 5 C-1.475 6.485 -1.475 6.485 -4 8 C-5.32 7.01 -6.64 6.02 -8 5 C-7.625 2.5625 -7.625 2.5625 -7 0 C-4.3333581 -1.33332095 -2.83319697 -0.67102033 0 0 Z " fill="#615E53" transform="translate(255,70)"/>
<path d="M0 0 C1.051875 0.2475 1.051875 0.2475 2.125 0.5 C2.125 2.81 2.125 5.12 2.125 7.5 C1.135 6.84 0.145 6.18 -0.875 5.5 C-0.875 4.84 -0.875 4.18 -0.875 3.5 C-4.22958155 2.73477199 -4.22958155 2.73477199 -7.875 2.5 C-10.28971331 4.16531952 -11.21879456 6.01569184 -12.875 8.5 C-12.875 7.51 -12.875 6.52 -12.875 5.5 C-13.535 5.17 -14.195 4.84 -14.875 4.5 C-9.7143963 -0.41486066 -7.1458753 -1.24276092 0 0 Z " fill="#645B44" transform="translate(167.875,43.5)"/>
<path d="M0 0 C-6 2 -6 2 -9.0625 2.8125 C-12.58550353 4.23669292 -14.48733897 6.19173179 -17 9 C-17.99 8.67 -18.98 8.34 -20 8 C-16.70030967 2.18625989 -16.70030967 2.18625989 -14 0 C-11.66015625 -0.546875 -11.66015625 -0.546875 -9.0625 -0.75 C-8.20785156 -0.82734375 -7.35320312 -0.9046875 -6.47265625 -0.984375 C-4.10667647 -0.9993259 -2.25166952 -0.68960644 0 0 Z " fill="#988761" transform="translate(204,47)"/>
<path d="M0 0 C0.33 0 0.66 0 1 0 C1.36116409 3.25047681 1.30929204 4.58761061 -0.6875 7.25 C-4.5191234 10.1496069 -7.08466368 10.10503859 -11.8125 9.5625 C-12.864375 9.376875 -13.91625 9.19125 -15 9 C-15 6.69 -15 4.38 -15 2 C-14.34 2 -13.68 2 -13 2 C-12.4225 2.825 -11.845 3.65 -11.25 4.5 C-9.19396698 7.35082131 -9.19396698 7.35082131 -5.75 7.3125 C-4.8425 7.209375 -3.935 7.10625 -3 7 C-1.79371992 4.66785852 -0.8345262 2.50357861 0 0 Z " fill="#848071" transform="translate(112,57)"/>
<path d="M0 0 C2.64 0 5.28 0 8 0 C8 0.66 8 1.32 8 2 C7.56042969 2.39832031 7.12085938 2.79664063 6.66796875 3.20703125 C4.3155763 5.73571541 3.49503283 8.45950496 2.3125 11.6875 C1.87550781 12.86699219 1.43851563 14.04648437 0.98828125 15.26171875 C0.66214844 16.16535156 0.33601562 17.06898437 0 18 C-0.99 17.67 -1.98 17.34 -3 17 C-2.70609375 16.44441406 -2.4121875 15.88882813 -2.109375 15.31640625 C-0.94782485 12.89105681 -0.06887385 10.49841208 0.75 7.9375 C1.03359375 7.08027344 1.3171875 6.22304688 1.609375 5.33984375 C2.31826434 2.73624636 2.31826434 2.73624636 0 0 Z " fill="#78776C" transform="translate(245,44)"/>
<path d="M0 0 C0.33 0 0.66 0 1 0 C1 5.94 1 11.88 1 18 C2.32 18.66 3.64 19.32 5 20 C2.03 20 -0.94 20 -4 20 C-3.67 19.34 -3.34 18.68 -3 18 C-2.34 18 -1.68 18 -1 18 C-1.01160156 16.86820313 -1.02320313 15.73640625 -1.03515625 14.5703125 C-1.04453454 13.08854331 -1.0536347 11.60677235 -1.0625 10.125 C-1.07087891 9.37863281 -1.07925781 8.63226563 -1.08789062 7.86328125 C-1.11328125 2.2265625 -1.11328125 2.2265625 0 0 Z " fill="#DFDFC9" transform="translate(261,46)"/>
<path d="M0 0 C1.32 0.33 2.64 0.66 4 1 C3.67 1.66 3.34 2.32 3 3 C12.9 3 22.8 3 33 3 C33 3.33 33 3.66 33 4 C21.12 4 9.24 4 -3 4 C-2.01 2.68 -1.02 1.36 0 0 Z " fill="#B2996B" transform="translate(168,69)"/>
<path d="M0 0 C0.33 0 0.66 0 1 0 C1 2.97 1 5.94 1 9 C1.99 9 2.98 9 4 9 C4.33 8.34 4.66 7.68 5 7 C5.721875 7.20625 6.44375 7.4125 7.1875 7.625 C10.49414186 8.06588558 12.0626192 7.50838474 15 6 C15.66 5.34 16.32 4.68 17 4 C17 5.98 17 7.96 17 10 C10.11422188 11.01593448 3.90188971 10.83854735 -3 10 C-2.34 9.34 -1.68 8.68 -1 8 C-0.54188325 6.02764667 -0.54188325 6.02764667 -0.375 3.875 C-0.25125 2.59625 -0.1275 1.3175 0 0 Z " fill="#6F6A4D" transform="translate(300,56)"/>
<path d="M0 0 C0.5775 0.639375 1.155 1.27875 1.75 1.9375 C4.48542664 4.46750415 4.48542664 4.46750415 8 5 C10.64225405 3.68134288 10.64225405 3.68134288 13 2 C13.66 1.67 14.32 1.34 15 1 C14.09298316 4.13333089 13.58407896 5.64306286 10.75 7.375 C7.38735576 8.13923733 5.30584106 7.98471861 2 7 C-0.375 4.9375 -0.375 4.9375 -2 3 C-1.34 2.01 -0.68 1.02 0 0 Z " fill="#BBBBAE" transform="translate(31,59)"/>
<path d="M0 0 C0.66 0.33 1.32 0.66 2 1 C2 5.62 2 10.24 2 15 C3.32 15.33 4.64 15.66 6 16 C6 16.33 6 16.66 6 17 C2.7 17 -0.6 17 -4 17 C-3.67 16.34 -3.34 15.68 -3 15 C-2.01 15 -1.02 15 0 15 C0 10.05 0 5.1 0 0 Z " fill="#87867C" transform="translate(274,49)"/>
<path d="M0 0 C0 1.98 0 3.96 0 6 C-0.515625 5.505 -1.03125 5.01 -1.5625 4.5 C-4.80680017 2.50350759 -7.26217334 2.78435615 -11 3 C-11 3.66 -11 4.32 -11 5 C-11.66 5 -12.32 5 -13 5 C-13.33 5.99 -13.66 6.98 -14 8 C-13.6721883 5.04969469 -13.0936225 3.14823562 -11.5 0.625 C-7.69142884 -1.85057125 -4.30526621 -0.84633438 0 0 Z " fill="#706C5C" transform="translate(111,44)"/>
<path d="M0 0 C0 0.66 0 1.32 0 2 C-1.65 2 -3.3 2 -5 2 C-5 2.99 -5 3.98 -5 5 C-4.34 5 -3.68 5 -3 5 C-3 4.34 -3 3.68 -3 3 C-2.01 3 -1.02 3 0 3 C-0.33 4.32 -0.66 5.64 -1 7 C-3.375 7.125 -3.375 7.125 -6 7 C-6.66 6.34 -7.32 5.68 -8 5 C-7.75 2.4375 -7.75 2.4375 -7 0 C-4.3333581 -1.33332095 -2.83319697 -0.67102033 0 0 Z " fill="#A0A094" transform="translate(269,70)"/>
<path d="M0 0 C0.33 1.98 0.66 3.96 1 6 C-2.875 4.125 -2.875 4.125 -4 3 C-6.45792029 2.66656449 -6.45792029 2.66656449 -9 3 C-9.66 3.99 -10.32 4.98 -11 6 C-12.125 2.25 -12.125 2.25 -11 0 C-6.94952424 -1.35015859 -4.2079832 -0.62084998 0 0 Z " fill="#867A5A" transform="translate(335,44)"/>
<path d="M0 0 C1.32 0.33 2.64 0.66 4 1 C4.33 2.98 4.66 4.96 5 7 C3.1875 8.0625 3.1875 8.0625 1 9 C0.01 8.67 -0.98 8.34 -2 8 C-2 4.23312136 -1.76462683 3.08809695 0 0 Z " fill="#8F886F" transform="translate(330,69)"/>
<path d="M0 0 C0.66 0.33 1.32 0.66 2 1 C2.33 7.27 2.66 13.54 3 20 C2.01 20 1.02 20 0 20 C-0.83854735 13.09811029 -1.01593448 6.88577812 0 0 Z " fill="#E8DEAD" transform="translate(301,45)"/>
<path d="M0 0 C4.5 2.25 4.5 2.25 6 6 C3.03 8.475 3.03 8.475 0 11 C0 7.37 0 3.74 0 0 Z " fill="#AA9D7A" transform="translate(224,68)"/>
<path d="M0 0 C0.66 0.99 1.32 1.98 2 3 C2.66 2.01 3.32 1.02 4 0 C4.46557346 3.18141867 4.50963377 5.25343123 2.6640625 7.95703125 C1.15741976 9.6935608 -0.37936464 11.369718 -2 13 C-2.66 12.67 -3.32 12.34 -4 12 C-3.42655063 9.13275314 -3.1385485 8.1385485 -1 6 C-0.60235737 4.01178687 -0.26224651 2.01055661 0 0 Z " fill="#907E5F" transform="translate(203,52)"/>
<path d="M0 0 C2.97 0 5.94 0 9 0 C9 0.66 9 1.32 9 2 C8.01 2 7.02 2 6 2 C5.67 6.62 5.34 11.24 5 16 C4.01 16 3.02 16 2 16 C2.33 15.34 2.66 14.68 3 14 C3.07065617 11.95944995 3.08421976 9.91665743 3.0625 7.875 C3.05347656 6.77929688 3.04445313 5.68359375 3.03515625 4.5546875 C3.02355469 3.71164063 3.01195312 2.86859375 3 2 C2.01 2 1.02 2 0 2 C0 1.34 0 0.68 0 0 Z " fill="#989479" transform="translate(285,44)"/>
<path d="M0 0 C1.32 0.33 2.64 0.66 4 1 C4.33 2.98 4.66 4.96 5 7 C3.1875 8.0625 3.1875 8.0625 1 9 C0.01 8.67 -0.98 8.34 -2 8 C-2 4.23312136 -1.76462683 3.08809695 0 0 Z " fill="#A1A095" transform="translate(285,69)"/>
<path d="M0 0 C0.66 0 1.32 0 2 0 C2.06058594 1.04800781 2.12117188 2.09601562 2.18359375 3.17578125 C2.26801738 4.55470048 2.35266447 5.93360605 2.4375 7.3125 C2.47681641 8.00279297 2.51613281 8.69308594 2.55664062 9.40429688 C2.74927415 12.47161535 3.02322717 15.06968152 4 18 C2.68 18 1.36 18 0 18 C0 12.06 0 6.12 0 0 Z " fill="#F0F0DA" transform="translate(53,47)"/>
<path d="M0 0 C3.63 0.33 7.26 0.66 11 1 C11.33 3.64 11.66 6.28 12 9 C11.31164062 8.3503125 11.31164062 8.3503125 10.609375 7.6875 C9.99578125 7.130625 9.3821875 6.57375 8.75 6 C8.14671875 5.443125 7.5434375 4.88625 6.921875 4.3125 C4.837347 2.62402557 4.837347 2.62402557 1 3 C0.67 2.01 0.34 1.02 0 0 Z " fill="#73736D" transform="translate(34,43)"/>
<path d="M0 0 C3 1 3 1 4.875 3.0625 C6.86277318 5.26668531 6.86277318 5.26668531 9.75 5.25 C10.4925 5.1675 11.235 5.085 12 5 C12.33 4.34 12.66 3.68 13 3 C13.33 3.99 13.66 4.98 14 6 C9.23947038 7.97387813 6.03511899 8.0070238 1 7 C0.67 4.69 0.34 2.38 0 0 Z " fill="#807661" transform="translate(321,59)"/>
<path d="M0 0 C1.1446875 0.3403125 1.1446875 0.3403125 2.3125 0.6875 C2.3125 1.3475 2.3125 2.0075 2.3125 2.6875 C0.6625 2.6875 -0.9875 2.6875 -2.6875 2.6875 C-2.6875 3.6775 -2.6875 4.6675 -2.6875 5.6875 C-1.0375 5.6875 0.6125 5.6875 2.3125 5.6875 C1.3225 6.6775 0.3325 7.6675 -0.6875 8.6875 C-3.20320636 7.71367818 -4.42694098 7.22598865 -5.625 4.75 C-5.6875 2.6875 -5.6875 2.6875 -4.5625 0.875 C-2.6875 -0.3125 -2.6875 -0.3125 0 0 Z " fill="#928E7B" transform="translate(320.6875,69.3125)"/>
<path d="M0 0 C3 1 3 1 4.8125 3.125 C5.534375 3.74375 6.25625 4.3625 7 5 C10.19954954 4.85650653 10.19954954 4.85650653 13 4 C13.33 4.66 13.66 5.32 14 6 C9.20862412 7.6290678 5.94367454 8.20577428 1 7 C0.67 4.69 0.34 2.38 0 0 Z " fill="#7A7668" transform="translate(116,59)"/>
<path d="M0 0 C0.66 0.66 1.32 1.32 2 2 C1.63774038 5.50184297 -0.16465807 8.0634529 -2 11 C-2.67627599 12.32848523 -3.34470458 13.6610414 -4 15 C-4.63019694 5.98468271 -4.63019694 5.98468271 -2 1.875 C-1.34 1.25625 -0.68 0.6375 0 0 Z " fill="#B7A989" transform="translate(208,44)"/>
<path d="M0 0 C0.99 0.33 1.98 0.66 3 1 C4.80795432 5.0916861 5.21156222 8.55719328 5 13 C2.26097751 10.63448058 1.06829908 8.45142779 0 5 C-0.125 2.1875 -0.125 2.1875 0 0 Z " fill="#C2BEAA" transform="translate(81,43)"/>
<path d="M0 0 C1.76923828 0.04060547 1.76923828 0.04060547 3.57421875 0.08203125 C4.47785156 0.11683594 5.38148438 0.15164062 6.3125 0.1875 C4.3125 2.1875 4.3125 2.1875 1.9296875 2.3828125 C1.02476562 2.35960937 0.11984375 2.33640625 -0.8125 2.3125 C-2.17761719 2.28542969 -2.17761719 2.28542969 -3.5703125 2.2578125 C-4.26898438 2.23460937 -4.96765625 2.21140625 -5.6875 2.1875 C-6.0175 3.5075 -6.3475 4.8275 -6.6875 6.1875 C-8.0075 6.5175 -9.3275 6.8475 -10.6875 7.1875 C-9.53915993 0.52712757 -6.38991111 -0.18979934 0 0 Z " fill="#9C9279" transform="translate(213.6875,36.8125)"/>
<path d="M0 0 C7.75 0.75 7.75 0.75 10 3 C10.125 5.625 10.125 5.625 10 8 C5.125 5.25 5.125 5.25 4 3 C1.98330173 1.86649466 1.98330173 1.86649466 0 1 C0 0.67 0 0.34 0 0 Z " fill="#C6BC95" transform="translate(102,53)"/>
<path d="M0 0 C0.66 0 1.32 0 2 0 C2 0.99 2 1.98 2 3 C3.32 3.66 4.64 4.32 6 5 C6 5.99 6 6.98 6 8 C3.625 7.8125 3.625 7.8125 1 7 C-0.375 4.5625 -0.375 4.5625 -1 2 C-0.67 1.34 -0.34 0.68 0 0 Z " fill="#B9A471" transform="translate(322,47)"/>
<path d="M0 0 C2.64 0.33 5.28 0.66 8 1 C8.33 2.98 8.66 4.96 9 7 C8.34 7 7.68 7 7 7 C6.54625 6.525625 6.0925 6.05125 5.625 5.5625 C3.77022513 3.77906263 2.49864408 3.4308007 0 3 C0 2.01 0 1.02 0 0 Z " fill="#6D6752" transform="translate(122,43)"/>
<path d="M0 0 C1.98 0 3.96 0 6 0 C6 0.99 6 1.98 6 3 C5.34 3 4.68 3 4 3 C4 4.65 4 6.3 4 8 C3.34 8 2.68 8 2 8 C2 6.35 2 4.7 2 3 C1.34 3 0.68 3 0 3 C0 2.01 0 1.02 0 0 Z " fill="#979681" transform="translate(295,69)"/>
<path d="M0 0 C0.99 0 1.98 0 3 0 C2.67 3.3 2.34 6.6 2 10 C1.34 10 0.68 10 0 10 C-1.36952673 7.26094655 -1.12621361 5.02912668 -1 2 C-0.67 1.34 -0.34 0.68 0 0 Z " fill="#B49E75" transform="translate(152,49)"/>
<path d="M0 0 C0.66 0.33 1.32 0.66 2 1 C2 2.65 2 4.3 2 6 C2.99 6 3.98 6 5 6 C5 6.66 5 7.32 5 8 C3.02 8 1.04 8 -1 8 C-1.04241723 5.66705225 -1.04092937 3.33297433 -1 1 C-0.67 0.67 -0.34 0.34 0 0 Z " fill="#848074" transform="translate(237,69)"/>
<path d="M0 0 C0.66 0 1.32 0 2 0 C2 2.64 2 5.28 2 8 C1.34 8 0.68 8 0 8 C-0.33 7.34 -0.66 6.68 -1 6 C-3.02463255 5.34786708 -3.02463255 5.34786708 -5 5 C-5 4.34 -5 3.68 -5 3 C-4.360625 2.87625 -3.72125 2.7525 -3.0625 2.625 C-2.0415625 2.315625 -2.0415625 2.315625 -1 2 C-0.67 1.34 -0.34 0.68 0 0 Z " fill="#877E64" transform="translate(309,51)"/>
<path d="M0 0 C4.875 3.625 4.875 3.625 6 7 C4.68 7.33 3.36 7.66 2 8 C0.4375 6.25 0.4375 6.25 -1 4 C-0.6875 1.75 -0.6875 1.75 0 0 Z " fill="#BCBB9C" transform="translate(278,48)"/>
<path d="M0 0 C3.3 0 6.6 0 10 0 C9.34 1.32 8.68 2.64 8 4 C5.03 3.67 2.06 3.34 -1 3 C-0.67 2.01 -0.34 1.02 0 0 Z " fill="#D8CEAA" transform="translate(208,38)"/>
<path d="M0 0 C0.66 0 1.32 0 2 0 C2 0.99 2 1.98 2 3 C3.65 3 5.3 3 7 3 C7 2.01 7 1.02 7 0 C7.66 0 8.32 0 9 0 C8.75 1.875 8.75 1.875 8 4 C5.9375 5.25 5.9375 5.25 4 6 C2 4.6875 2 4.6875 0 3 C0 2.01 0 1.02 0 0 Z " fill="#A19D91" transform="translate(247,72)"/>
<path d="M0 0 C1.1171875 1.703125 1.1171875 1.703125 2 4 C1.3203125 6.359375 1.3203125 6.359375 0.125 8.75 C-0.45894531 9.94882812 -0.45894531 9.94882812 -1.0546875 11.171875 C-1.36664063 11.77515625 -1.67859375 12.3784375 -2 13 C-2.99 12.67 -3.98 12.34 -5 12 C-4.731875 11.505 -4.46375 11.01 -4.1875 10.5 C-2.56124507 7.0763054 -1.30484829 3.55867715 0 0 Z " fill="#706D5C" transform="translate(235,49)"/>
<path d="M0 0 C2.97 0 5.94 0 9 0 C9 0.66 9 1.32 9 2 C8.34 2 7.68 2 7 2 C6.67 3.32 6.34 4.64 6 6 C6 4.68 6 3.36 6 2 C5.01 2 4.02 2 3 2 C2.67 2.66 2.34 3.32 2 4 C1.34 2.68 0.68 1.36 0 0 Z " fill="#949179" transform="translate(232,44)"/>
<path d="M0 0 C0.66 0 1.32 0 2 0 C0.89184175 3.21365891 0.01470446 3.9914224 -3 5.75 C-6 7 -6 7 -8 7 C-8.33 6.01 -8.66 5.02 -9 4 C-6.36 3.67 -3.72 3.34 -1 3 C-0.67 2.01 -0.34 1.02 0 0 Z " fill="#504B3C" transform="translate(169,60)"/>
<path d="M0 0 C0.66 1.32 1.32 2.64 2 4 C1.01 4.66 0.02 5.32 -1 6 C-1 5.34 -1 4.68 -1 4 C-4.63 4 -8.26 4 -12 4 C-12 3.67 -12 3.34 -12 3 C-10.95199219 2.92652344 -10.95199219 2.92652344 -9.8828125 2.8515625 C-8.97273437 2.77679688 -8.06265625 2.70203125 -7.125 2.625 C-6.22007812 2.55539063 -5.31515625 2.48578125 -4.3828125 2.4140625 C-1.82058097 2.20431868 -1.82058097 2.20431868 0 0 Z " fill="#796648" transform="translate(198,62)"/>
<path d="M0 0 C0.99 0.33 1.98 0.66 3 1 C3.33 2.98 3.66 4.96 4 7 C2.68 7 1.36 7 0 7 C0 4.69 0 2.38 0 0 Z " fill="#E6E6CE" transform="translate(27,54)"/>
<path d="M0 0 C1.98 0.66 3.96 1.32 6 2 C5.67 3.32 5.34 4.64 5 6 C2.69 5.34 0.38 4.68 -2 4 C-1.34 3.67 -0.68 3.34 0 3 C0 2.01 0 1.02 0 0 Z " fill="#AB945A" transform="translate(328,52)"/>
<path d="M0 0 C3 3.625 3 3.625 3 7 C1.35 7 -0.3 7 -2 7 C-1.125 1.125 -1.125 1.125 0 0 Z " fill="#141009" transform="translate(81,49)"/>
<path d="M0 0 C0.33 0.66 0.66 1.32 1 2 C-2.07999946 5.67230705 -4.2482602 6.56802365 -9 7 C-9 6.01 -9 5.02 -9 4 C-7.6078125 3.8453125 -7.6078125 3.8453125 -6.1875 3.6875 C-2.96745642 2.9929808 -1.97420135 2.52259061 0 0 Z " fill="#6C6D68" transform="translate(45,60)"/>
<path d="M0 0 C0.33 1.32 0.66 2.64 1 4 C1.66 4 2.32 4 3 4 C2.67 5.65 2.34 7.3 2 9 C1.34 9 0.68 9 0 9 C-0.66 6.69 -1.32 4.38 -2 2 C-1.34 1.34 -0.68 0.68 0 0 Z " fill="#A89F87" transform="translate(229,57)"/>
<path d="M0 0 C0.99 0 1.98 0 3 0 C3.33 2.97 3.66 5.94 4 9 C0.68987756 5.68987756 0.49648935 4.46840411 0 0 Z " fill="#E9E3C5" transform="translate(235,46)"/>
<path d="M0 0 C-0.33 0.66 -0.66 1.32 -1 2 C-1.9590625 2.2165625 -1.9590625 2.2165625 -2.9375 2.4375 C-5.38210855 2.86165035 -5.38210855 2.86165035 -7 6 C-8.125 2.25 -8.125 2.25 -7 0 C-3.86650268 -1.04449911 -3.01031744 -0.93423645 0 0 Z " fill="#685D41" transform="translate(331,44)"/>
<path d="M0 0 C2.0625 0.4375 2.0625 0.4375 4 1 C3.67 1.99 3.34 2.98 3 4 C0.9375 4.6875 0.9375 4.6875 -1 5 C-1 1 -1 1 0 0 Z " fill="#83785C" transform="translate(330,69)"/>
<path d="M0 0 C0.33 0 0.66 0 1 0 C1 1.98 1 3.96 1 6 C-1.31 6 -3.62 6 -6 6 C-6 5.34 -6 4.68 -6 4 C-4.7934375 3.566875 -4.7934375 3.566875 -3.5625 3.125 C-0.8673532 2.26737432 -0.8673532 2.26737432 0 0 Z " fill="#9A9379" transform="translate(316,60)"/>
<path d="M0 0 C1.96602468 2.94903702 2.73897585 4.51967799 3 8 C1.5625 9.8125 1.5625 9.8125 0 11 C-1.28571429 3.57142857 -1.28571429 3.57142857 0 0 Z " fill="#AAA98F" transform="translate(86,52)"/>
<path d="M0 0 C2.0625 0.4375 2.0625 0.4375 4 1 C4 1.66 4 2.32 4 3 C2.35 3.66 0.7 4.32 -1 5 C-1 1 -1 1 0 0 Z " fill="#929284" transform="translate(285,69)"/>
<path d="M0 0 C0 0.66 0 1.32 0 2 C-1.65 2 -3.3 2 -5 2 C-5.33 2.99 -5.66 3.98 -6 5 C-6.33 3.35 -6.66 1.7 -7 0 C-4.3333581 -1.33332095 -2.83319697 -0.67102033 0 0 Z " fill="#838275" transform="translate(269,70)"/>
<path d="M0 0 C0.33 0 0.66 0 1 0 C1 1.98 1 3.96 1 6 C-0.65 6 -2.3 6 -4 6 C-2.84826645 3.53199953 -1.95216435 1.95216435 0 0 Z " fill="#AAABA1" transform="translate(68,59)"/>
<path d="M0 0 C0.66 1.32 1.32 2.64 2 4 C0 6 0 6 -2.625 6.125 C-3.40875 6.08375 -4.1925 6.0425 -5 6 C-3.35 4.02 -1.7 2.04 0 0 Z " fill="#8B7650" transform="translate(184,53)"/>
<path d="M0 0 C1.65 0 3.3 0 5 0 C5 1.98 5 3.96 5 6 C3.2925002 4.71937515 1.62626404 3.38232443 0 2 C0 1.34 0 0.68 0 0 Z " fill="#A29773" transform="translate(311,44)"/>
<path d="M0 0 C1.65 0 3.3 0 5 0 C5 1.98 5 3.96 5 6 C3.2925002 4.71937515 1.62626404 3.38232443 0 2 C0 1.34 0 0.68 0 0 Z " fill="#8C8374" transform="translate(106,44)"/>
<path d="M0 0 C2.64 0 5.28 0 8 0 C8 0.66 8 1.32 8 2 C6.02 2.33 4.04 2.66 2 3 C1.34 2.01 0.68 1.02 0 0 Z " fill="#9A9D8F" transform="translate(245,44)"/>
<path d="M0 0 C-1.12451727 2.9719385 -2.22293791 5.33440687 -4 8 C-4 7.01 -4 6.02 -4 5 C-4.66 4.67 -5.32 4.34 -6 4 C-2.25 0 -2.25 0 0 0 Z " fill="#86795B" transform="translate(159,44)"/>
<path d="M0 0 C2.1519437 3.22791555 2.20086443 4.28400809 2 8 C0.62437146 6.71034824 -0.70766393 5.37310707 -2 4 C-2 3.34 -2 2.68 -2 2 C-1.34 2 -0.68 2 0 2 C0 1.34 0 0.68 0 0 Z " fill="#A4A59C" transform="translate(44,44)"/>
<path d="M0 0 C0.66 0 1.32 0 2 0 C2 2.64 2 5.28 2 8 C1.34 8 0.68 8 0 8 C0 5.36 0 2.72 0 0 Z " fill="#B1B1AB" transform="translate(275,69)"/>
<path d="M0 0 C0.33 0 0.66 0 1 0 C1 2.64 1 5.28 1 8 C0.34 8 -0.32 8 -1 8 C-1.04241723 5.66705225 -1.04092937 3.33297433 -1 1 C-0.67 0.67 -0.34 0.34 0 0 Z " fill="#AEA799" transform="translate(308,69)"/>
</svg>
