<?xml version="1.0" encoding="UTF-8"?>
<svg version="1.1" xmlns="http://www.w3.org/2000/svg" width="460" height="452">
<path d="M0 0 C2.6143573 -0.01288165 5.22871182 -0.0263402 7.84306335 -0.04034424 C13.31412404 -0.06581491 18.78499155 -0.07188653 24.25610352 -0.06933594 C30.51340866 -0.06694485 36.7693211 -0.1089448 43.02627498 -0.17231059 C49.11481634 -0.23169735 55.20270974 -0.24526703 61.29152489 -0.24289703 C63.84791917 -0.24755774 66.40432837 -0.26490835 68.96053505 -0.2962265 C117.35260811 -0.83336723 162.90490345 27.90150077 196.7355957 60.79589844 C204.63706708 68.60761007 211.81075963 76.67403854 218.32421875 85.671875 C219.47083984 87.23615234 219.47083984 87.23615234 220.640625 88.83203125 C239.1269641 114.7772063 251.41097993 143.20138687 258.69921875 174.171875 C258.93801758 175.18467529 259.17681641 176.19747559 259.42285156 177.2409668 C262.77607189 192.27101263 263.7013343 206.95866897 263.63671875 222.296875 C263.63522827 223.174505 263.63373779 224.05213501 263.63220215 224.95635986 C263.59121299 238.40172031 262.96704412 251.45490026 260.32421875 264.671875 C260.185 265.41840332 260.04578125 266.16493164 259.90234375 266.93408203 C258.90488623 272.23422957 257.69033027 277.45513629 256.32421875 282.671875 C256.09782715 283.5386084 255.87143555 284.4053418 255.63818359 285.29833984 C240.02555698 343.55456309 200.38156487 392.92707524 148.5222168 423.11547852 C113.09310547 443.27058201 74.38123908 453.55958356 33.63671875 453.234375 C32.50145752 453.23044739 31.36619629 453.22651978 30.1965332 453.22247314 C12.75122261 453.13752217 -3.75442065 452.21645205 -20.67578125 447.671875 C-21.60068359 447.43130371 -22.52558594 447.19073242 -23.47851562 446.94287109 C-29.28944351 445.40121745 -34.99252899 443.62934094 -40.67578125 441.671875 C-41.36494629 441.43887695 -42.05411133 441.20587891 -42.76416016 440.96582031 C-68.15983201 432.28217848 -92.20664247 419.05273093 -112.67578125 401.671875 C-113.86543359 400.68435127 -115.05555082 399.69738736 -116.24609375 398.7109375 C-127.50583078 389.30205385 -137.60468594 379.24424964 -146.67578125 367.671875 C-147.46597656 366.69863281 -148.25617188 365.72539062 -149.0703125 364.72265625 C-156.12296071 355.87074976 -162.03659932 346.47631549 -167.67578125 336.671875 C-168.32595215 335.54652344 -168.32595215 335.54652344 -168.98925781 334.3984375 C-182.55308261 310.6231813 -194.48260625 280.98966915 -194.90039062 253.3449707 C-194.91747574 252.29899467 -194.91747574 252.29899467 -194.93490601 251.23188782 C-195.04628138 243.89220022 -195.09313405 236.55153628 -195.13574219 229.21118164 C-195.15775943 225.76371596 -195.19914553 222.3173773 -195.25878906 218.87036133 C-195.62912995 196.93878566 -194.4191338 177.7320011 -187.67578125 156.671875 C-187.20682763 155.12790748 -186.73971109 153.58337974 -186.27514648 152.03808594 C-185.18951107 148.52875681 -183.97498349 145.10745538 -182.67578125 141.671875 C-182.44487793 141.04442383 -182.21397461 140.41697266 -181.97607422 139.77050781 C-167.23805728 100.08749973 -139.09378016 63.35559532 -104.67578125 38.671875 C-103.61230469 37.8984375 -102.54882812 37.125 -101.453125 36.328125 C-83.16710222 23.35238101 -63.7031756 13.00167991 -42.49295044 5.67311096 C-40.72725232 5.04557306 -38.97605091 4.37364199 -37.25219727 3.63891602 C-25.32294557 -0.89366826 -12.56912804 0.01461817 0 0 Z M46.32421875 73.671875 C46.32421875 152.541875 46.32421875 231.411875 46.32421875 312.671875 C119.24545885 316.31374118 119.24545885 316.31374118 175.84375 284.2421875 C192.35890679 267.07992916 199.72930056 243.15402698 199.54296875 219.74609375 C198.64651606 196.49995488 188.8022383 175.75085419 172.32421875 159.671875 C171.52242188 158.86105469 170.720625 158.05023438 169.89453125 157.21484375 C149.48877675 137.57848655 124.44366556 134.33912105 97.32421875 134.671875 C97.32421875 145.231875 97.32421875 155.791875 97.32421875 166.671875 C101.16046875 166.89875 104.99671875 167.125625 108.94921875 167.359375 C126.4674841 168.64404025 140.04143846 173.42280693 152.44140625 186.375 C163.49504267 199.85951912 166.41846183 214.70522421 165.32421875 231.671875 C163.11057156 246.97567213 155.15673548 259.59341063 142.92578125 268.88671875 C129.01685461 278.43083207 114.96122633 279.15922447 98.63671875 279.359375 C96.75974263 279.39260586 94.88278844 279.42710068 93.00585938 279.46289062 C88.44543476 279.54713014 83.8850541 279.61424769 79.32421875 279.671875 C79.32698413 278.32373388 79.32698413 278.32373388 79.32980537 276.94835758 C79.37400347 255.06409197 79.40708462 233.17983406 79.42784309 211.29553318 C79.43814895 200.71238666 79.4521961 190.12926996 79.47509766 179.54614258 C79.49505265 170.32025203 79.50794021 161.09438309 79.51239574 151.86847156 C79.51499954 146.98492981 79.52110527 142.10144985 79.53567886 137.21792793 C79.54929608 132.61742843 79.55343303 128.01701593 79.55043411 123.41649818 C79.55098242 121.73192623 79.55493513 120.04735125 79.5626297 118.36279678 C79.61877855 105.43137041 79.45700328 92.97347624 70.13671875 82.984375 C62.89225042 76.16145979 56.15274841 73.671875 46.32421875 73.671875 Z M-107.67578125 161.234375 C-124.52968061 178.53877167 -133.12903206 201.32913641 -132.82421875 225.37890625 C-131.73869719 249.46034507 -122.45739613 272.22883449 -104.7578125 288.93359375 C-81.84710903 308.061667 -60.3097992 312.671875 -30.67578125 312.671875 C-30.67578125 301.781875 -30.67578125 290.891875 -30.67578125 279.671875 C-34.16140625 279.61 -37.64703125 279.548125 -41.23828125 279.484375 C-59.13982006 278.83508333 -73.53025384 273.49052671 -86.11328125 260.359375 C-97.019842 247.12884244 -99.949067 231.75205075 -98.93457031 215.07666016 C-98.3008165 209.18753271 -96.25159005 203.98746983 -93.67578125 198.671875 C-93.24136719 197.77210938 -92.80695313 196.87234375 -92.359375 195.9453125 C-84.99488099 182.39128648 -73.16997966 174.2008021 -58.828125 169.43359375 C-49.14782836 167.09448861 -39.01862018 167.36072746 -29.11328125 167.109375 C-27.5162667 167.06609855 -25.91926134 167.02248163 -24.32226562 166.97851562 C-20.44019902 166.87237431 -16.55803693 166.77084881 -12.67578125 166.671875 C-12.67854663 168.00952014 -12.67854663 168.00952014 -12.68136787 169.37418842 C-12.72559002 191.1005967 -12.75865879 212.82699719 -12.77940559 234.55344105 C-12.78970597 245.06030204 -12.80374261 255.56713294 -12.82666016 266.07397461 C-12.84663197 275.23469475 -12.85950668 284.39539309 -12.86395824 293.5561344 C-12.8665592 298.40396969 -12.87264673 303.25174263 -12.88724136 308.09955788 C-12.90088522 312.66887429 -12.90499021 317.23810305 -12.90199661 321.8074379 C-12.90254374 323.47826935 -12.90648045 325.14910394 -12.9141922 326.81991768 C-12.9753999 340.77355978 -12.95800132 353.65259553 -3.0078125 364.48828125 C4.19679739 371.06640332 10.36375313 372.67582844 20.32421875 373.671875 C20.32421875 294.801875 20.32421875 215.931875 20.32421875 134.671875 C-51.36720163 130.74013016 -51.36720163 130.74013016 -107.67578125 161.234375 Z " fill="#26A012" transform="translate(194.67578125,-0.671875)"/>
<path d="M0 0 C11.22 0 22.44 0 34 0 C34.029729 7.86549683 34.029729 7.86549683 34.06005859 15.88989258 C34.12698371 33.22049353 34.20452447 50.55103499 34.28752708 67.88156605 C34.33758949 78.38839585 34.38403304 88.8952181 34.421875 99.40209961 C34.45487799 108.56286147 34.49475485 117.72356359 34.54279006 126.8842594 C34.5679726 131.73206443 34.589778 136.57983026 34.60334396 141.42768288 C34.61623943 145.99704615 34.63837349 150.56627441 34.66738319 155.1355629 C34.67640076 156.80637458 34.68213548 158.47720796 34.68421364 160.14804268 C34.62523325 180.75255693 34.62523325 180.75255693 44.94921875 197.95703125 C46.57932889 199.36891163 48.28304429 200.69511366 50 202 C49.34 202.33 48.68 202.66 48 203 C43.77892969 201.19865152 40.59963722 198.97182585 38.1875 195.0625 C37.5996875 193.5465625 37.5996875 193.5465625 37 192 C36.443125 190.9275 35.88625 189.855 35.3125 188.75 C34 186 34 186 34 184 C33.34 183.67 32.68 183.34 32 183 C32.495 176.565 32.495 176.565 33 170 C32.01 170 31.02 170 30 170 C30 116.87 30 63.74 30 9 C29.34 9 28.68 9 28 9 C28.33 7.68 28.66 6.36 29 5 C29.99 5 30.98 5 32 5 C32.33 4.01 32.66 3.02 33 2 C22.11 1.67 11.22 1.34 0 1 C0 0.67 0 0.34 0 0 Z " fill="#2C9F14" transform="translate(148,166)"/>
<path d="M0 0 C0.33 0 0.66 0 1 0 C1.99844931 4.14561015 2.1232895 8.02483478 2.12025452 12.28291321 C2.12110894 13.00589055 2.12196337 13.72886789 2.12284368 14.47375363 C2.12448764 16.8904868 2.11899488 19.3071502 2.11352539 21.72387695 C2.11324326 23.45858254 2.11340176 25.19328825 2.1139679 26.92799377 C2.11425486 31.63416963 2.10837444 36.34032002 2.10139394 41.04648995 C2.09514359 45.96590308 2.09455527 50.88531679 2.09336853 55.80473328 C2.09026018 65.1189718 2.08205347 74.43319858 2.07201904 83.74743193 C2.06084251 94.35193945 2.05534357 104.95644752 2.05032361 115.56095946 C2.03987046 137.37397952 2.0222806 159.18698902 2 181 C2.99 181 3.98 181 5 181 C5 179.02 5 177.04 5 175 C5.66 175 6.32 175 7 175 C7 176.65 7 178.3 7 180 C8.98 180 10.96 180 13 180 C13 178.68 13 177.36 13 176 C12.34 175.67 11.68 175.34 11 175 C11.33 174.67 11.66 174.34 12 174 C12.10750771 172.60902177 12.14679668 171.21269158 12.15821838 169.81761169 C12.17290161 168.46507797 12.17290161 168.46507797 12.18788147 167.08522034 C12.19363693 166.08828659 12.1993924 165.09135284 12.20532227 164.06420898 C12.22017166 162.49854187 12.22017166 162.49854187 12.23532104 160.90124512 C12.26704254 157.43288482 12.29173541 153.96451079 12.31640625 150.49609375 C12.33696659 148.09855279 12.3579628 145.70101552 12.37937927 143.30348206 C12.43469498 136.97908516 12.48406223 130.65465505 12.53222656 124.3302002 C12.58237241 117.8822126 12.63809449 111.43427352 12.69335938 104.98632812 C12.80105706 92.32426043 12.90266526 79.66215137 13 67 C14.65 67 16.3 67 18 67 C18 57.76 18 48.52 18 39 C17.34 38.67 16.68 38.34 16 38 C17.485 37.505 17.485 37.505 19 37 C19 47.56 19 58.12 19 69 C23.95 69 28.9 69 34 69 C34 69.33 34 69.66 34 70 C31.69 70 29.38 70 27 70 C27 70.66 27 71.32 27 72 C25.37512529 72.16788373 23.75009558 72.33426787 22.125 72.5 C21.22007812 72.5928125 20.31515625 72.685625 19.3828125 72.78125 C17 73 17 73 15 73 C15.57344937 75.86724686 15.8614515 76.8614515 18 79 C17.34 79 16.68 79 16 79 C16.00222061 80.20856155 16.00444122 81.41712311 16.00672913 82.66230774 C16.02697724 94.03695241 16.04198022 105.41159344 16.05181217 116.78625202 C16.05703674 122.63444582 16.0641267 128.4826251 16.07543945 134.33081055 C16.08628341 139.97177969 16.09228006 145.61273485 16.09487724 151.25371361 C16.09672876 153.40874642 16.10034416 155.56377844 16.10573006 157.71880531 C16.11296046 160.73092952 16.11399009 163.7429955 16.11352539 166.75512695 C16.11712067 167.65136276 16.12071594 168.54759857 16.12442017 169.47099304 C16.1230455 170.29128998 16.12167084 171.11158691 16.12025452 171.95674133 C16.12117631 172.66928731 16.1220981 173.38183329 16.12304783 174.11597157 C16 176 16 176 15 179 C18.89581756 179.02911003 22.791607 179.04683587 26.6875 179.0625 C27.79029297 179.07087891 28.89308594 179.07925781 30.02929688 179.08789062 C31.09599609 179.09111328 32.16269531 179.09433594 33.26171875 179.09765625 C34.24100342 179.10289307 35.22028809 179.10812988 36.22924805 179.11352539 C38.95247683 179.00194716 41.37525803 178.73709105 44 178 C44.33 177.34 44.66 176.68 45 176 C48.64473199 175.10906551 51.42742531 174.76333953 55 176 C55.28875 175.360625 55.5775 174.72125 55.875 174.0625 C57 172 57 172 59 171 C60.99960012 170.960008 63.00047242 170.95653201 65 171 C47.17432862 186.59746246 23.49029356 182 1 182 C0.67 121.94 0.34 61.88 0 0 Z " fill="#2E9720" transform="translate(273,97)"/>
<path d="M0 0 C0.66 0 1.32 0 2 0 C2.06838242 30.79531277 2.12150037 61.59060824 2.15319599 92.38597875 C2.15694828 96.01854976 2.16083123 99.65112062 2.16479492 103.28369141 C2.16558185 104.00689556 2.16636878 104.73009971 2.16717956 105.47521915 C2.18024688 117.19770384 2.20390797 128.92014457 2.23145839 140.64260314 C2.25947579 152.66368197 2.27616848 164.68473772 2.28226548 176.70584786 C2.28601875 183.46098235 2.29507406 190.21602501 2.31719017 196.97112656 C2.33747191 203.32233354 2.3438507 209.67339903 2.33932304 216.02463531 C2.34015198 218.36201113 2.34616682 220.69939143 2.35761642 223.03673935 C2.37243043 226.21541485 2.36899429 229.39354839 2.36076355 232.57223511 C2.36950207 233.50801891 2.3782406 234.44380272 2.38724393 235.40794361 C2.38127078 236.25490743 2.37529764 237.10187126 2.36914349 237.97450066 C2.37085223 239.07606933 2.37085223 239.07606933 2.37259549 240.19989192 C2 242 2 242 -1 244 C-6.6728123 242.86543754 -11.77818177 240.43921668 -17 238 C-16.34 237.01 -15.68 236.02 -15 235 C-14.12988281 235.30744141 -14.12988281 235.30744141 -13.2421875 235.62109375 C-12.07042969 236.02521484 -12.07042969 236.02521484 -10.875 236.4375 C-10.10929688 236.70433594 -9.34359375 236.97117187 -8.5546875 237.24609375 C-5.46555638 238.21396138 -5.46555638 238.21396138 0 239 C0 160.13 0 81.26 0 0 Z " fill="#40932C" transform="translate(215,134)"/>
<path d="M0 0 C2.31 0 4.62 0 7 0 C7 0.33 7 0.66 7 1 C5.02 1 3.04 1 1 1 C1 79.87 1 158.74 1 240 C54.18048654 242.6755679 54.18048654 242.6755679 106.07421875 228.953125 C108 228 108 228 110 228 C110 228.66 110 229.32 110 230 C108.68 230.33 107.36 230.66 106 231 C106 231.66 106 232.32 106 233 C106.99 233 107.98 233 109 233 C108.34 234.65 107.68 236.3 107 238 C106.34 238 105.68 238 105 238 C105 236.35 105 234.7 105 233 C103.989375 233.639375 102.97875 234.27875 101.9375 234.9375 C98.33526977 237.01992518 95.13918992 237.52240116 91 238 C90.01 238.66 89.02 239.32 88 240 C58.89130303 243.63858712 29.33522721 241 0 241 C0 161.47 0 81.94 0 0 Z " fill="#3D8630" transform="translate(240,72)"/>
<path d="M0 0 C11.22 0 22.44 0 34 0 C34.029729 7.86549683 34.029729 7.86549683 34.06005859 15.88989258 C34.12698371 33.22049353 34.20452447 50.55103499 34.28752708 67.88156605 C34.33758949 78.38839585 34.38403304 88.8952181 34.421875 99.40209961 C34.45487799 108.56286147 34.49475485 117.72356359 34.54279006 126.8842594 C34.5679726 131.73206443 34.589778 136.57983026 34.60334396 141.42768288 C34.61623943 145.99704615 34.63837349 150.56627441 34.66738319 155.1355629 C34.67640076 156.80637458 34.68213548 158.47720796 34.68421364 160.14804268 C34.62523325 180.75255693 34.62523325 180.75255693 44.94921875 197.95703125 C46.57932889 199.36891163 48.28304429 200.69511366 50 202 C49.34 202.33 48.68 202.66 48 203 C43.77892969 201.19865152 40.59963722 198.97182585 38.1875 195.0625 C37.5996875 193.5465625 37.5996875 193.5465625 37 192 C36.443125 190.9275 35.88625 189.855 35.3125 188.75 C34 186 34 186 34 184 C33.34 183.67 32.68 183.34 32 183 C32.33 123.27 32.66 63.54 33 2 C22.11 1.67 11.22 1.34 0 1 C0 0.67 0 0.34 0 0 Z " fill="#328A25" transform="translate(148,166)"/>
<path d="M0 0 C6.95812771 2.36627505 12.34829231 7.45303431 18 12 C18.61697754 12.49371094 19.23395508 12.98742188 19.86962891 13.49609375 C21.69417464 14.96450265 23.50547385 16.44760593 25.3125 17.9375 C25.88162109 18.39761475 26.45074219 18.85772949 27.03710938 19.33178711 C28.41686158 20.48777839 29.71674355 21.73774611 31 23 C31 23.99 31 24.98 31 26 C30.67 25.34 30.34 24.68 30 24 C26.97065509 23.34227572 26.97065509 23.34227572 24 23 C24 22.34 24 21.68 24 21 C23.01 20.67 22.02 20.34 21 20 C21.33 21.98 21.66 23.96 22 26 C24.31 26.33 26.62 26.66 29 27 C29 27.99 29 28.98 29 30 C29.99 30 30.98 30 32 30 C32.495 31.485 32.495 31.485 33 33 C31.68 33 30.36 33 29 33 C29 32.34 29 31.68 29 31 C27.96875 30.938125 26.9375 30.87625 25.875 30.8125 C20.97294788 29.78465036 19.35367669 28.68086466 16 25 C15.625 21.6875 15.625 21.6875 16 19 C16.66 19 17.32 19 18 19 C18 18.01 18 17.02 18 16 C15.76671858 14.00180084 13.68345751 12.34172876 11 11 C10.67 11.99 10.34 12.98 10 14 C7.125 14.625 7.125 14.625 4 15 C3.34 14.34 2.68 13.68 2 13 C2.66 13 3.32 13 4 13 C4 12.34 4 11.68 4 11 C4.66 11 5.32 11 6 11 C6 10.34 6 9.68 6 9 C6.66 9 7.32 9 8 9 C6.19823976 7.10341027 4.39827714 5.53821269 2.3125 3.9375 C1.549375 3.298125 0.78625 2.65875 0 2 C0 1.34 0 0.68 0 0 Z " fill="#27A019" transform="translate(354,31)"/>
<path d="M0 0 C0.99 0.33 1.98 0.66 3 1 C3.33 2.65 3.66 4.3 4 6 C4.33 4.68 4.66 3.36 5 2 C6.65 2 8.3 2 10 2 C10 3.98 10 5.96 10 8 C9.34 8 8.68 8 8 8 C7.67 7.01 7.34 6.02 7 5 C6.67 6.65 6.34 8.3 6 10 C6.66 10 7.32 10 8 10 C8.33 11.32 8.66 12.64 9 14 C10.32 14.33 11.64 14.66 13 15 C12 18 12 18 10 20 C10.32198966 23.09926819 10.32198966 23.09926819 11 26 C10.34 26 9.68 26 9 26 C8.67 25.34 8.34 24.68 8 24 C8 32.25 8 40.5 8 49 C7.01 49.495 7.01 49.495 6 50 C5.53348793 52.12576782 5.53348793 52.12576782 5.375 54.5625 C5.26285156 55.80193359 5.26285156 55.80193359 5.1484375 57.06640625 C5.09945313 57.70449219 5.05046875 58.34257812 5 59 C3.515 59.495 3.515 59.495 2 60 C2.13277344 59.2265625 2.26554687 58.453125 2.40234375 57.65625 C2.9477572 54.439505 3.47595299 51.22028888 4 48 C4.20625 46.741875 4.4125 45.48375 4.625 44.1875 C5.98138342 32.00516743 4.61129393 20.84635781 2 9 C1.78730469 8.00742188 1.57460938 7.01484375 1.35546875 5.9921875 C0.91953101 3.99126463 0.46308217 1.99481552 0 0 Z " fill="#2BA017" transform="translate(388,190)"/>
<path d="M0 0 C0 0.66 0 1.32 0 2 C-1.32 2.33 -2.64 2.66 -4 3 C-4 3.66 -4 4.32 -4 5 C-3.01 5 -2.02 5 -1 5 C-1.66 6.65 -2.32 8.3 -3 10 C-3.66 10 -4.32 10 -5 10 C-5 8.35 -5 6.7 -5 5 C-6.010625 5.639375 -7.02125 6.27875 -8.0625 6.9375 C-11.66473023 9.01992518 -14.86081008 9.52240116 -19 10 C-19.99 10.66 -20.98 11.32 -22 12 C-27.44324517 12.91602203 -32.74301621 13.14106082 -38.25195312 13.11352539 C-39.42413391 13.11374443 -39.42413391 13.11374443 -40.61999512 13.1139679 C-43.17377611 13.11327755 -45.72748192 13.10552675 -48.28125 13.09765625 C-50.06343547 13.09578895 -51.84562145 13.09436652 -53.62780762 13.09336853 C-58.29664552 13.08956796 -62.96545184 13.07975891 -67.63427734 13.06866455 C-72.40722222 13.05839731 -77.18017224 13.05385957 -81.953125 13.04882812 C-91.30209714 13.03813423 -100.65104593 13.02108765 -110 13 C-110 12.67 -110 12.34 -110 12 C-109.18584122 11.99191315 -108.37168243 11.98382629 -107.53285217 11.97549438 C-99.78261139 11.89688572 -92.03254129 11.80940839 -84.2825098 11.71247292 C-80.30010884 11.66296131 -76.31772882 11.61663591 -72.33520508 11.578125 C-68.47710959 11.54069116 -64.61921174 11.49419276 -60.7612896 11.44193649 C-59.30447365 11.42369532 -57.84761587 11.40848168 -56.39073372 11.39665604 C-48.50853222 11.33051225 -40.73519604 10.98820596 -32.90014648 10.08740234 C-32.21127633 10.00894388 -31.52240618 9.93048542 -30.81266117 9.84964943 C-21.14193556 8.64086932 -12.45913554 5.58990671 -3.92578125 0.953125 C-2 0 -2 0 0 0 Z " fill="#3F9732" transform="translate(350,300)"/>
<path d="M0 0 C2.74622643 3.32912351 5.16327167 6.70892293 7.4375 10.375 C10.15382031 14.70120843 12.97970542 18.88141648 16 23 C14.0625 22.1875 14.0625 22.1875 12 21 C11.67 20.01 11.34 19.02 11 18 C9.34795544 17.29788106 7.68076231 16.63028587 6 16 C5.67 15.34 5.34 14.68 5 14 C4.01 14.495 4.01 14.495 3 15 C3.52268466 17.76276177 4.10869587 20.3260876 5 23 C1 23 1 23 -1.75 20.875 C-4.3448928 17.55930365 -4.47661072 16.09885218 -4 12 C-2.68 11.67 -1.36 11.34 0 11 C0 10.34 0 9.68 0 9 C-1.32 8.67 -2.64 8.34 -4 8 C-4 6.35 -4 4.7 -4 3 C-0.26360784 4.24546405 0.18756513 5.63404953 2 9 C1.65555119 6.52733235 1.65555119 6.52733235 1 4 C0.34 3.67 -0.32 3.34 -1 3 C-0.67 2.01 -0.34 1.02 0 0 Z " fill="#2D9D19" transform="translate(70,261)"/>
<path d="M0 0 C2.4375 0.9375 2.4375 0.9375 5 3 C5.7524935 5.98877701 5.92909865 8.92545953 6 12 C6.66 12 7.32 12 8 12 C8 12.66 8 13.32 8 14 C7.01 14.33 6.02 14.66 5 15 C4.01 14.34 3.02 13.68 2 13 C2.66 14.98 3.32 16.96 4 19 C4.66 19 5.32 19 6 19 C6 19.99 6 20.98 6 22 C6.66 22 7.32 22 8 22 C7.67 23.32 7.34 24.64 7 26 C-5.89379021 8.65773927 -5.89379021 8.65773927 -9 3 C-8.67 2.34 -8.34 1.68 -8 1 C-5.5 2.375 -5.5 2.375 -3 4 C-3 4.66 -3 5.32 -3 6 C-2.34 5.67 -1.68 5.34 -1 5 C-0.34444881 2.47266765 -0.34444881 2.47266765 0 0 Z " fill="#24A115" transform="translate(40,340)"/>
<path d="M0 0 C3.49982069 0.60395308 6.54254959 1.51986557 9.80078125 2.92578125 C11.14366211 3.50295898 11.14366211 3.50295898 12.51367188 4.09179688 C13.43728516 4.49462891 14.36089844 4.89746094 15.3125 5.3125 C16.22451172 5.70373047 17.13652344 6.09496094 18.07617188 6.49804688 C23.47800826 8.83303422 28.76248816 11.31677295 34 14 C34 14.33 34 14.66 34 15 C30.7 15 27.4 15 24 15 C24 14.01 24 13.02 24 12 C19.50343896 9.75171948 15.92127034 9.83317728 11 10 C11 8.68 11 7.36 11 6 C10.34773438 6.17917969 9.69546875 6.35835937 9.0234375 6.54296875 C1.79588336 8.30188679 1.79588336 8.30188679 -2.625 6.625 C-3.40875 6.08875 -4.1925 5.5525 -5 5 C-5 4.67 -5 4.34 -5 4 C-3.35 4 -1.7 4 0 4 C0 2.68 0 1.36 0 0 Z " fill="#2C9E12" transform="translate(304,6)"/>
<path d="M0 0 C-8.43088887 7.37702776 -17.49319793 10.32718529 -28.5546875 10.1953125 C-29.45623566 10.1924826 -30.35778381 10.18965271 -31.28665161 10.18673706 C-34.14957276 10.17559439 -37.01217434 10.1505008 -39.875 10.125 C-41.82291213 10.11496255 -43.77082919 10.10583804 -45.71875 10.09765625 C-50.4792887 10.07567443 -55.23959027 10.0411855 -60 10 C-60 8.02 -60 6.04 -60 4 C-59.34 4 -58.68 4 -58 4 C-58 5.65 -58 7.3 -58 9 C-53.53409295 8.88136183 -49.06838827 8.75708852 -44.6027832 8.62768555 C-43.08492245 8.58448452 -41.56701774 8.54279952 -40.04907227 8.50268555 C-37.86200741 8.44462188 -35.67516082 8.38103344 -33.48828125 8.31640625 C-32.17384033 8.27974854 -30.85939941 8.24309082 -29.50512695 8.20532227 C-26.5358162 8.03138688 -23.85492327 7.82496267 -21 7 C-20.67 6.34 -20.34 5.68 -20 5 C-16.35526801 4.10906551 -13.57257469 3.76333953 -10 5 C-9.71125 4.360625 -9.4225 3.72125 -9.125 3.0625 C-6.99029742 -0.85112139 -4.08058807 -0.08870844 0 0 Z " fill="#339820" transform="translate(338,268)"/>
<path d="M0 0 C2 2 2 2 2.22705078 5.62353516 C2.22673357 7.17874689 2.21540299 8.73398051 2.1953125 10.2890625 C2.1924826 11.10748627 2.18965271 11.92591003 2.18673706 12.76913452 C2.17552532 15.38790393 2.15041929 18.00633364 2.125 20.625 C2.11497147 22.39843257 2.1058454 24.17187049 2.09765625 25.9453125 C2.07558278 30.29700626 2.04104644 34.6484455 2 39 C-3.28 38.67 -8.56 38.34 -14 38 C-14 37.67 -14 37.34 -14 37 C-9.05 37 -4.1 37 1 37 C1 26.11 1 15.22 1 4 C-6.26 4 -13.52 4 -21 4 C-21 3.34 -21 2.68 -21 2 C-20.15236084 1.96241577 -20.15236084 1.96241577 -19.28759766 1.92407227 C-16.73316258 1.80820044 -14.1791045 1.68543463 -11.625 1.5625 C-10.29082031 1.50352539 -10.29082031 1.50352539 -8.9296875 1.44335938 C-8.07890625 1.40146484 -7.228125 1.35957031 -6.3515625 1.31640625 C-5.56604004 1.27974854 -4.78051758 1.24309082 -3.97119141 1.20532227 C-1.92476504 1.109109 -1.92476504 1.109109 0 0 Z " fill="#338B26" transform="translate(163,275)"/>
<path d="M0 0 C4.44391119 1.48130373 7.81135419 3.93278888 11.4375 6.8125 C12.25831055 7.45155273 12.25831055 7.45155273 13.09570312 8.10351562 C16.79297632 10.99570212 20.40607873 13.98067248 24 17 C23.01 17.33 22.02 17.66 21 18 C17.809544 16.404772 15.44693694 14.56345775 13 12 C12.34 11.67 11.68 11.34 11 11 C10.67 11.99 10.34 12.98 10 14 C7.125 14.625 7.125 14.625 4 15 C3.34 14.34 2.68 13.68 2 13 C2.66 13 3.32 13 4 13 C4 12.34 4 11.68 4 11 C4.66 11 5.32 11 6 11 C6 10.34 6 9.68 6 9 C6.66 9 7.32 9 8 9 C6.19823976 7.10341027 4.39827714 5.53821269 2.3125 3.9375 C1.549375 3.298125 0.78625 2.65875 0 2 C0 1.34 0 0.68 0 0 Z " fill="#2CA00F" transform="translate(354,31)"/>
<path d="M0 0 C1.32 0.33 2.64 0.66 4 1 C-2.70224119 8.84304821 -9.73637985 16.75004361 -18 23 C-18.66 23 -19.32 23 -20 23 C-20 22.01 -20 21.02 -20 20 C-18 18.3125 -18 18.3125 -16 17 C-16.33 16.01 -16.66 15.02 -17 14 C-16.34 14 -15.68 14 -15 14 C-15 13.34 -15 12.68 -15 12 C-15.99 11.67 -16.98 11.34 -18 11 C-16.68 11 -15.36 11 -14 11 C-13.67 11.99 -13.34 12.98 -13 14 C-12.34 14 -11.68 14 -11 14 C-10.34 12.68 -9.68 11.36 -9 10 C-8.34 10 -7.68 10 -7 10 C-6.731875 9.195625 -6.46375 8.39125 -6.1875 7.5625 C-5.795625 6.716875 -5.40375 5.87125 -5 5 C-4.01 4.67 -3.02 4.34 -2 4 C-0.79117904 1.99983534 -0.79117904 1.99983534 0 0 Z " fill="#37981F" transform="translate(395,376)"/>
<path d="M0 0 C0.33 0 0.66 0 1 0 C2.84374439 10.3319261 4.46225282 20.50465856 5 31 C4.67 31 4.34 31 4 31 C3.34 36.61 2.68 42.22 2 48 C1.67 48 1.34 48 1 48 C0.97494385 47.44127197 0.9498877 46.88254395 0.92407227 46.30688477 C0.80656895 43.72527572 0.6845562 41.14389764 0.5625 38.5625 C0.52318359 37.68400391 0.48386719 36.80550781 0.44335938 35.90039062 C0.17137332 30.23052738 -0.31777645 24.63551047 -1 19 C-0.34 19 0.32 19 1 19 C0.67 12.73 0.34 6.46 0 0 Z " fill="#2F9B1D" transform="translate(453,176)"/>
<path d="M0 0 C4.21878192 -0.19622241 7.17010894 0.19769832 11 2 C10.67 3.32 10.34 4.64 10 6 C8.68 6 7.36 6 6 6 C5.67 6.66 5.34 7.32 5 8 C5.66 8.33 6.32 8.66 7 9 C7 9.66 7 10.32 7 11 C7.66 11 8.32 11 9 11 C9 11.66 9 12.32 9 13 C9.86625 13.1546875 9.86625 13.1546875 10.75 13.3125 C13.32049158 14.09792798 14.93657284 15.30504197 17 17 C16.67 17.66 16.34 18.32 16 19 C13.39266788 17.40079629 10.78914357 15.79591077 8.1875 14.1875 C7.44951172 13.73568359 6.71152344 13.28386719 5.95117188 12.81835938 C5.23896484 12.37685547 4.52675781 11.93535156 3.79296875 11.48046875 C3.1383667 11.07723389 2.48376465 10.67399902 1.80932617 10.25854492 C-0.01389913 8.99033193 -1.48252309 7.61604104 -3 6 C-0.03 6.495 -0.03 6.495 3 7 C2.01 4.69 1.02 2.38 0 0 Z " fill="#2AA018" transform="translate(95,402)"/>
<path d="M0 0 C3.69900008 0.88776002 7.34550461 1.94581864 11 3 C6.54355933 6.92460207 1.6053697 9.52386791 -3.625 12.25 C-4.48351562 12.70890625 -5.34203125 13.1678125 -6.2265625 13.640625 C-7.0515625 14.07375 -7.8765625 14.506875 -8.7265625 14.953125 C-9.47502441 15.34661133 -10.22348633 15.74009766 -10.99462891 16.14550781 C-13 17 -13 17 -16 17 C-16 16.34 -16 15.68 -16 15 C-15.34 15 -14.68 15 -14 15 C-14 14.01 -14 13.02 -14 12 C-12.865625 11.87625 -11.73125 11.7525 -10.5625 11.625 C-9.386875 11.41875 -8.21125 11.2125 -7 11 C-6.67 10.34 -6.34 9.68 -6 9 C-5.01 9 -4.02 9 -3 9 C-3.33 8.34 -3.66 7.68 -4 7 C-2.68 7 -1.36 7 0 7 C0 5.68 0 4.36 0 3 C0.99 2.67 1.98 2.34 3 2 C2.01 2 1.02 2 0 2 C0 1.34 0 0.68 0 0 Z " fill="#2B9D0C" transform="translate(336,416)"/>
<path d="M0 0 C4.77135213 3.57851409 7.29076328 6.68572797 10 12 C9.01 12.33 8.02 12.66 7 13 C6.67 13.99 6.34 14.98 6 16 C4.68 15.67 3.36 15.34 2 15 C1.67 13.35 1.34 11.7 1 10 C-0.32 9.67 -1.64 9.34 -3 9 C-2.42655063 6.13275314 -2.1385485 5.1385485 0 3 C0 2.01 0 1.02 0 0 Z " fill="#2B9E18" transform="translate(402,73)"/>
<path d="M0 0 C1.65 0 3.3 0 5 0 C5 10.23 5 20.46 5 31 C1.66391664 25.99587497 0.50928981 19.84961962 1.375 13.875 C1.58125 12.92625 1.7875 11.9775 2 11 C0.02 11.99 0.02 11.99 -2 13 C-1.85966889 11.02043559 -1.7125877 9.04134859 -1.5625 7.0625 C-1.48128906 5.96035156 -1.40007813 4.85820312 -1.31640625 3.72265625 C-1 1 -1 1 0 0 Z " fill="#27A017" transform="translate(58,207)"/>
<path d="M0 0 C0.375 2.25 0.375 2.25 0 5 C-3.36200222 8.03400201 -5.33250543 8.95693583 -9.875 9.25 C-10.90625 9.1675 -11.9375 9.085 -13 9 C-13 10.32 -13 11.64 -13 13 C-14.65 13 -16.3 13 -18 13 C-18 12.34 -18 11.68 -18 11 C-20.31 11 -22.62 11 -25 11 C-25 10.34 -25 9.68 -25 9 C-23.30230469 8.85304688 -23.30230469 8.85304688 -21.5703125 8.703125 C-20.08844222 8.55306219 -18.60667624 8.40196679 -17.125 8.25 C-16.37863281 8.188125 -15.63226563 8.12625 -14.86328125 8.0625 C-12.42244484 7.83976138 -12.42244484 7.83976138 -9 7 C-7.56834345 5.11742633 -7.56834345 5.11742633 -7 3 C-2.71428571 0 -2.71428571 0 0 0 Z " fill="#1BA215" transform="translate(345,305)"/>
<path d="M0 0 C0.33 0 0.66 0 1 0 C1.33 8.58 1.66 17.16 2 26 C3.32 26.66 4.64 27.32 6 28 C6 29.32 6 30.64 6 32 C5.01 32 4.02 32 3 32 C2.67 32.99 2.34 33.98 2 35 C-1.97858022 24.67463704 -3.04071061 10.7719763 0 0 Z M6 27 C8 28 8 28 8 28 Z " fill="#439432" transform="translate(96,208)"/>
<path d="M0 0 C-2.94055322 1.96036881 -4.62333717 2.37798316 -8 3 C-8.33 3.33 -8.66 3.66 -9 4 C-8.01 4.66 -7.02 5.32 -6 6 C-8.64 6 -11.28 6 -14 6 C-13.67 6.99 -13.34 7.98 -13 9 C-15.31 9.66 -17.62 10.32 -20 11 C-20.33 10.34 -20.66 9.68 -21 9 C-20.34 9 -19.68 9 -19 9 C-19.66 7.68 -20.32 6.36 -21 5 C-18.44292167 3.96334662 -15.88081487 2.9456027 -13.3125 1.9375 C-12.59126953 1.64294922 -11.87003906 1.34839844 -11.12695312 1.04492188 C-7.05294152 -0.53631551 -4.32135458 -1.49159182 0 0 Z " fill="#309F1B" transform="translate(160,5)"/>
<path d="M0 0 C0.66 0 1.32 0 2 0 C2 0.66 2 1.32 2 2 C2.66 2 3.32 2 4 2 C4 1.34 4 0.68 4 0 C4.66 0 5.32 0 6 0 C6.5625 1.9375 6.5625 1.9375 7 4 C6.67 4.33 6.34 4.66 6 5 C6.99 5.66 7.98 6.32 9 7 C8.34 7 7.68 7 7 7 C7.495 7.45375 7.99 7.9075 8.5 8.375 C10 10 10 10 10 12 C10.99 12.33 11.98 12.66 13 13 C12.01 13.33 11.02 13.66 10 14 C8.39013672 13.13549805 8.39013672 13.13549805 6.6796875 11.76171875 C6.06222656 11.27123047 5.44476563 10.78074219 4.80859375 10.27539062 C4.17050781 9.75138672 3.53242187 9.22738281 2.875 8.6875 C2.22917969 8.17509766 1.58335938 7.66269531 0.91796875 7.13476562 C-3.84883052 3.30233896 -3.84883052 3.30233896 -5 1 C-2.525 1.495 -2.525 1.495 0 2 C0 1.34 0 0.68 0 0 Z " fill="#2C9D13" transform="translate(81,394)"/>
<path d="M0 0 C0.99 0 1.98 0 3 0 C3 0.99 3 1.98 3 3 C3.99 3 4.98 3 6 3 C6.33 2.01 6.66 1.02 7 0 C8.65 0 10.3 0 12 0 C5.74417952 6.45131487 -1.17290028 12.16851899 -8 18 C-8.33 17.01 -8.66 16.02 -9 15 C-8.67 14.34 -8.34 13.68 -8 13 C-5.9375 12.375 -5.9375 12.375 -4 12 C-3.9175 11.38125 -3.835 10.7625 -3.75 10.125 C-3 8 -3 8 -1 6.875 C-0.34 6.58625 0.32 6.2975 1 6 C1.33 5.34 1.66 4.68 2 4 C1.34 4 0.68 4 0 4 C0 2.68 0 1.36 0 0 Z " fill="#3C9927" transform="translate(90,148)"/>
<path d="M0 0 C2.2265625 1.01171875 2.2265625 1.01171875 4 2 C2.56720703 2.25523437 2.56720703 2.25523437 1.10546875 2.515625 C-6.22563918 3.88975091 -12.99600447 5.46920364 -19.92578125 8.328125 C-22 9 -22 9 -24 8 C-23.01 7.67 -22.02 7.34 -21 7 C-20.87625 6.360625 -20.7525 5.72125 -20.625 5.0625 C-20 3 -20 3 -17.8125 1.75 C-14.75979561 0.9359455 -12.1455772 0.93009828 -9 1 C-5.97562661 -0.5121867 -3.33758466 -0.17263369 0 0 Z " fill="#2F9C1F" transform="translate(137,133)"/>
<path d="M0 0 C0.66 0 1.32 0 2 0 C2.05845196 3.37492629 2.09374742 6.74972087 2.125 10.125 C2.15013672 11.55199219 2.15013672 11.55199219 2.17578125 13.0078125 C2.21104528 18.08583255 2.03333617 22.24487525 0 27 C-0.66 27 -1.32 27 -2 27 C-2.22823248 17.71854592 -1.90427108 9.13029973 0 0 Z " fill="#1BA20C" transform="translate(452,240)"/>
<path d="M0 0 C0 3 0 3 -1.375 4.4375 C-1.91125 4.953125 -2.4475 5.46875 -3 6 C-4.17574711 8.09989652 -4.17574711 8.09989652 -5 10 C-5.66 10 -6.32 10 -7 10 C-7 10.99 -7 11.98 -7 13 C-6.34 13.33 -5.68 13.66 -5 14 C-5.33 15.32 -5.66 16.64 -6 18 C-7.65 17.67 -9.3 17.34 -11 17 C-11 19.97 -11 22.94 -11 26 C-12.32 26 -13.64 26 -15 26 C-13.35053857 15.61028894 -7.2602777 7.2971319 0 0 Z " fill="#3E9A2B" transform="translate(112,182)"/>
<path d="M0 0 C3.875 1.75 3.875 1.75 5 4 C5.33 2.68 5.66 1.36 6 0 C7.32 0 8.64 0 10 0 C9.979375 1.0725 9.95875 2.145 9.9375 3.25 C9.8238724 6.79425802 9.8238724 6.79425802 10.6875 9.25 C10.8421875 10.11625 10.8421875 10.11625 11 11 C9.5625 12.75 9.5625 12.75 8 14 C5.09518096 10.68020681 0 4.76778006 0 0 Z " fill="#2E9D15" transform="translate(99,244)"/>
<path d="M0 0 C0.495 0.99 0.495 0.99 1 2 C-0.82724609 2.36351562 -0.82724609 2.36351562 -2.69140625 2.734375 C-4.3152364 3.07228185 -5.9389271 3.41085929 -7.5625 3.75 C-8.36236328 3.90726563 -9.16222656 4.06453125 -9.98632812 4.2265625 C-15.34462858 5.36383443 -19.44299809 6.92653568 -24 10 C-24.53625 10.9075 -25.0725 11.815 -25.625 12.75 C-26.07875 13.4925 -26.5325 14.235 -27 15 C-29.6875 15.3125 -29.6875 15.3125 -32 15 C-25.61764271 5.13635691 -11.41395708 -0.43899835 0 0 Z " fill="#459934" transform="translate(145,167)"/>
<path d="M0 0 C0.66 0.33 1.32 0.66 2 1 C1.67 1.66 1.34 2.32 1 3 C-1.0625 3.625 -1.0625 3.625 -3 4 C-3.0825 5.093125 -3.165 6.18625 -3.25 7.3125 C-4 11 -4 11 -5.75 12.9375 C-8.35402628 14.16717908 -10.15312226 14.23723981 -13 14 C-11 10 -9 6 -7 2 C-6.01 2 -5.02 2 -4 2 C-3.319375 1.649375 -2.63875 1.29875 -1.9375 0.9375 C-1.298125 0.628125 -0.65875 0.31875 0 0 Z " fill="#22A10D" transform="translate(46,92)"/>
<path d="M0 0 C1.2065625 0.0309375 1.2065625 0.0309375 2.4375 0.0625 C2.1075 2.0425 1.7775 4.0225 1.4375 6.0625 C-0.63803648 6.6159764 -2.40615964 7.0625 -4.5625 7.0625 C-4.789375 8.155625 -5.01625 9.24875 -5.25 10.375 C-6.5625 14.0625 -6.5625 14.0625 -9.1875 16 C-9.97125 16.350625 -10.755 16.70125 -11.5625 17.0625 C-11.5625 12.24308626 -10.33164727 10.78037331 -7.625 6.875 C-6.52865234 5.27591797 -6.52865234 5.27591797 -5.41015625 3.64453125 C-2.85196973 0.06956024 -2.85196973 0.06956024 0 0 Z " fill="#319F20" transform="translate(43.5625,87.9375)"/>
<path d="M0 0 C0.99 0 1.98 0 3 0 C2.96519531 1.35544922 2.96519531 1.35544922 2.9296875 2.73828125 C2.91164062 3.91777344 2.89359375 5.09726562 2.875 6.3125 C2.85179687 7.48425781 2.82859375 8.65601563 2.8046875 9.86328125 C2.74679382 13.16393661 2.74679382 13.16393661 5 16 C4.625 18.1875 4.625 18.1875 4 20 C3.34 19.67 2.68 19.34 2 19 C2 18.01 2 17.02 2 16 C1.34 16 0.68 16 0 16 C0 16.99 0 17.98 0 19 C-0.66 19 -1.32 19 -2 19 C-3.04449911 15.86650268 -2.93423645 15.01031744 -2 12 C-1.34 12 -0.68 12 0 12 C0 8.04 0 4.08 0 0 Z " fill="#1DA20B" transform="translate(178,336)"/>
<path d="M0 0 C2.39409047 2.39409047 2.78821084 4.07067225 3.6875 7.3125 C3.95949219 8.25738281 4.23148438 9.20226562 4.51171875 10.17578125 C5.02379901 13.13765347 4.78127347 15.1213481 4 18 C3.67 18 3.34 18 3 18 C2.71125 16.865625 2.4225 15.73125 2.125 14.5625 C1.75375 13.386875 1.3825 12.21125 1 11 C0.34 10.67 -0.32 10.34 -1 10 C-1.05607422 11.01320312 -1.05607422 11.01320312 -1.11328125 12.046875 C-1.21189453 13.38492188 -1.21189453 13.38492188 -1.3125 14.75 C-1.37050781 15.63171875 -1.42851563 16.5134375 -1.48828125 17.421875 C-2.0641181 20.32303774 -3.07596148 21.79225607 -5 24 C-4.41640925 15.68383188 -2.26200586 7.98540674 0 0 Z " fill="#309D1F" transform="translate(6,160)"/>
<path d="M0 0 C3.55606663 4.08586437 5.92836334 8.37128242 8.3125 13.1875 C8.8703418 14.27321289 8.8703418 14.27321289 9.43945312 15.38085938 C10.35928878 17.2222436 11.18765752 19.10873238 12 21 C11.67 21.66 11.34 22.32 11 23 C10.01 22.67 9.02 22.34 8 22 C7.12109375 19.96875 7.12109375 19.96875 6.4375 17.5 C5.79615283 15.08504595 5.79615283 15.08504595 5 13 C4.34 12.67 3.68 12.34 3 12 C3 11.34 3 10.68 3 10 C1.35 10 -0.3 10 -2 10 C-1.125 6.125 -1.125 6.125 0 5 C0.04063832 3.33382885 0.042721 1.66611905 0 0 Z " fill="#399721" transform="translate(426,106)"/>
<path d="M0 0 C0.99 0 1.98 0 3 0 C3.02698189 1.62490954 3.04638757 3.24994633 3.0625 4.875 C3.07410156 5.77992188 3.08570313 6.68484375 3.09765625 7.6171875 C3 10 3 10 2 12 C5.12606964 10.39519216 5.12606964 10.39519216 5.51171875 8.0546875 C5.56972656 7.33539063 5.62773438 6.61609375 5.6875 5.875 C5.790625 4.59625 5.89375 3.3175 6 2 C6.33 2 6.66 2 7 2 C7.05423638 3.91635217 7.09289963 5.83314925 7.125 7.75 C7.14820313 8.81734375 7.17140625 9.8846875 7.1953125 10.984375 C7.00487687 13.92470106 6.52670104 15.52361878 5 18 C4.34 18 3.68 18 3 18 C-0.24201565 11.92122066 -0.33278764 6.81598387 0 0 Z " fill="#1CA209" transform="translate(54,208)"/>
<path d="M0 0 C0 0.66 0 1.32 0 2 C-2.97 2.66 -5.94 3.32 -9 4 C-9 4.66 -9 5.32 -9 6 C-10.32 6.33 -11.64 6.66 -13 7 C-13 7.66 -13 8.32 -13 9 C-17.62 9 -22.24 9 -27 9 C-27.33 8.34 -27.66 7.68 -28 7 C-26.845 6.87625 -25.69 6.7525 -24.5 6.625 C-18.66271361 5.87346225 -13.38515266 4.98227425 -8.3125 1.875 C-5.06584943 0.03727326 -3.62472015 -0.43936002 0 0 Z " fill="#1EA106" transform="translate(301,436)"/>
<path d="M0 0 C4.56278027 -0.36995516 4.56278027 -0.36995516 6.625 1.375 C7.07875 1.91125 7.5325 2.4475 8 3 C8.99 3.66 9.98 4.32 11 5 C9.01432292 4.93489583 7.02864583 4.86979167 5.04296875 4.8046875 C2.68640281 4.86745538 2.68640281 4.86745538 0 7 C-0.33 7.99 -0.66 8.98 -1 10 C-3.31 10.33 -5.62 10.66 -8 11 C-7.44299928 7.76939581 -6.70784878 5.9341777 -4 4 C-1.3125 3.8125 -1.3125 3.8125 1 4 C0.67 2.68 0.34 1.36 0 0 Z " fill="#24A00C" transform="translate(117,130)"/>
<path d="M0 0 C0.94359375 0.20496094 1.8871875 0.40992188 2.859375 0.62109375 C10.91379116 2.31122726 18.76155627 3.55509336 27 4 C27 4.66 27 5.32 27 6 C24.39555652 6.05394705 21.79223002 6.09364469 19.1875 6.125 C18.44951172 6.14175781 17.71152344 6.15851563 16.95117188 6.17578125 C13.08753574 6.21074628 11.29096332 6.19397555 8 4 C5.93089407 3.97250522 5.93089407 3.97250522 3.8125 4.375 C1.9253125 4.684375 1.9253125 4.684375 0 5 C0 3.35 0 1.7 0 0 Z " fill="#3E972D" transform="translate(121,307)"/>
<path d="M0 0 C0.66 0 1.32 0 2 0 C2.25940557 11.51472518 1.59882726 22.59408052 0 34 C-0.33 34 -0.66 34 -1 34 C-1.10313358 22.60946892 -1.05253638 11.35235662 0 0 Z " fill="#36951D" transform="translate(456,225)"/>
<path d="M0 0 C0.33 0 0.66 0 1 0 C2.14319208 6.61898609 2.3300024 13.23318404 2.5625 19.9375 C2.60568359 21.09830078 2.64886719 22.25910156 2.69335938 23.45507812 C2.79884842 26.30328232 2.90096555 29.15156529 3 32 C2.01 32.495 2.01 32.495 1 33 C0.53348793 35.12576782 0.53348793 35.12576782 0.375 37.5625 C0.30023438 38.38878906 0.22546875 39.21507812 0.1484375 40.06640625 C0.09945313 40.70449219 0.05046875 41.34257812 0 42 C-1.485 42.495 -1.485 42.495 -3 43 C-2.86722656 42.2265625 -2.73445313 41.453125 -2.59765625 40.65625 C-2.33275391 39.09390625 -2.33275391 39.09390625 -2.0625 37.5 C-1.88847656 36.4790625 -1.71445312 35.458125 -1.53515625 34.40625 C-0.29249377 26.49674868 0.12762837 19.00577959 0.0625 11 C0.05798828 9.93910156 0.05347656 8.87820312 0.04882812 7.78515625 C0.03713843 5.19004402 0.02075276 2.59505291 0 0 Z " fill="#3E942C" transform="translate(393,207)"/>
<path d="M0 0 C0.33 0 0.66 0 1 0 C3.69825019 11.119402 2.48403845 23.23680977 -1 34 C-1.33 34 -1.66 34 -2 34 C-3.25 27.375 -3.25 27.375 -1 24 C-0.63250611 21.38710506 -0.63250611 21.38710506 -0.5859375 18.45703125 C-0.54726563 17.38388672 -0.50859375 16.31074219 -0.46875 15.20507812 C-0.4378125 14.08552734 -0.406875 12.96597656 -0.375 11.8125 C-0.33632813 10.68134766 -0.29765625 9.55019531 -0.2578125 8.38476562 C-0.16347467 5.5900075 -0.07788348 2.79525722 0 0 Z " fill="#3C9228" transform="translate(359,209)"/>
<path d="M0 0 C3.13782029 3.13782029 4.15472988 7.14008734 5.6875 11.25 C6.02072266 12.09691406 6.35394531 12.94382813 6.69726562 13.81640625 C8.48584768 18.59835329 9.50426556 21.91375403 8 27 C7.34 26.67 6.68 26.34 6 26 C5.70464494 24.03096629 5.41827913 22.05916424 5.21875 20.078125 C4.96640689 17.68086542 4.51487394 15.35370943 4 13 C3.34 13 2.68 13 2 13 C0.54815522 8.46298506 -0.23509196 4.81938524 0 0 Z " fill="#379C18" transform="translate(438,129)"/>
<path d="M0 0 C1.12894876 0.93274109 2.25300876 1.87140122 3.375 2.8125 C4.00148438 3.33457031 4.62796875 3.85664063 5.2734375 4.39453125 C7 6 7 6 9 9 C8.01 9.66 7.02 10.32 6 11 C4.80767387 13.05003955 4.80767387 13.05003955 4 15 C3.01 15 2.02 15 1 15 C0.67 13.35 0.34 11.7 0 10 C1.32 9.01 2.64 8.02 4 7 C3.34 6.67 2.68 6.34 2 6 C-0.125 4.5625 -0.125 4.5625 -2 3 C-2 2.34 -2 1.68 -2 1 C-1.34 0.67 -0.68 0.34 0 0 Z " fill="#279E1B" transform="translate(338,177)"/>
<path d="M0 0 C0.33 0 0.66 0 1 0 C1.14695313 0.60585938 1.29390625 1.21171875 1.4453125 1.8359375 C4.17550734 12.03494122 8.56094539 19.5863185 17 26 C16.34 26.33 15.68 26.66 15 27 C10.77892969 25.19865152 7.59963722 22.97182585 5.1875 19.0625 C4.795625 18.051875 4.40375 17.04125 4 16 C3.443125 14.9275 2.88625 13.855 2.3125 12.75 C1 10 1 10 1 8 C0.34 7.67 -0.32 7.34 -1 7 C-0.67 4.69 -0.34 2.38 0 0 Z " fill="#399228" transform="translate(181,342)"/>
<path d="M0 0 C1.74627478 2.61941217 2.38722388 4.03824877 3 7 C3.66 7 4.32 7 5 7 C4.95875 7.763125 4.9175 8.52625 4.875 9.3125 C4.77919176 12.22718416 4.77919176 12.22718416 7 15 C7 16.32 7 17.64 7 19 C7.66 19 8.32 19 9 19 C9.33 19.99 9.66 20.98 10 22 C9.34 22.33 8.68 22.66 8 23 C6.32326863 19.90116855 4.6603866 16.79511545 3 13.6875 C2.52304687 12.80642578 2.04609375 11.92535156 1.5546875 11.01757812 C1.10351562 10.17001953 0.65234375 9.32246094 0.1875 8.44921875 C-0.23144531 7.66893311 -0.65039062 6.88864746 -1.08203125 6.0847168 C-2 4 -2 4 -2 1 C-1.34 0.67 -0.68 0.34 0 0 Z " fill="#409B29" transform="translate(19,313)"/>
<path d="M0 0 C2.31 0.33 4.62 0.66 7 1 C7 1.99 7 2.98 7 4 C7.66 4 8.32 4 9 4 C9 5.65 9 7.3 9 9 C10.98 8.34 12.96 7.68 15 7 C13.25 10.875 13.25 10.875 11 12 C9.0625 11.9375 9.0625 11.9375 7 11 C5.96567096 9.01753602 4.96761608 7.01586684 4 5 C2.69855198 3.95884159 1.37202131 2.94622159 0 2 C0 1.34 0 0.68 0 0 Z " fill="#20A10D" transform="translate(257,71)"/>
<path d="M0 0 C0.66 0.33 1.32 0.66 2 1 C1.67 1.66 1.34 2.32 1 3 C0.34 3 -0.32 3 -1 3 C-1.0825 3.94875 -1.165 4.8975 -1.25 5.875 C-1.4975 6.90625 -1.745 7.9375 -2 9 C-4 10.125 -4 10.125 -6 11 C-6.80528889 13.05000871 -6.80528889 13.05000871 -7 15 C-9.31 15 -11.62 15 -14 15 C-9.59156563 9.70987876 -4.92440206 4.81191572 0 0 Z " fill="#3A9E26" transform="translate(76,49)"/>
<path d="M0 0 C0.89203125 0.42152344 1.7840625 0.84304687 2.703125 1.27734375 C3.87359375 1.82519531 5.0440625 2.37304688 6.25 2.9375 C7.41015625 3.48277344 8.5703125 4.02804688 9.765625 4.58984375 C12.79887817 6.02434666 12.79887817 6.02434666 15.359375 6.56640625 C15.90078125 6.70949219 16.4421875 6.85257813 17 7 C17.33 7.66 17.66 8.32 18 9 C14.58407513 10.13864162 13.78557691 9.84292788 10.5 8.6875 C9.7265625 8.42324219 8.953125 8.15898437 8.15625 7.88671875 C6 7 6 7 3 5 C0.67612053 4.60612212 -1.65793749 4.26513915 -4 4 C-2.68 2.68 -1.36 1.36 0 0 Z " fill="#25A104" transform="translate(154,6)"/>
<path d="M0 0 C1.32 0.66 2.64 1.32 4 2 C3.525625 2.86625 3.05125 3.7325 2.5625 4.625 C1.06765105 7.85387374 0.41781687 10.49033826 0 14 C-1.32 14 -2.64 14 -4 14 C-3.91276622 12.22825181 -3.80458345 10.45752623 -3.6875 8.6875 C-3.62949219 7.70136719 -3.57148437 6.71523437 -3.51171875 5.69921875 C-2.95377187 2.75615543 -2.31459868 1.81817001 0 0 Z " fill="#22A205" transform="translate(74,166)"/>
<path d="M0 0 C-0.33 0.66 -0.66 1.32 -1 2 C-5.62 2 -10.24 2 -15 2 C-14.67 1.34 -14.34 0.68 -14 0 C-8.98537403 -0.93493027 -5.02721527 -1.13112344 0 0 Z M-20 1 C-19.0409375 1.2165625 -19.0409375 1.2165625 -18.0625 1.4375 C-14.06155212 2.17236798 -10.04495104 2.58581111 -6 3 C-6 3.33 -6 3.66 -6 4 C-12.6 4 -19.2 4 -26 4 C-26 3.67 -26 3.34 -26 3 C-24.02 3 -22.04 3 -20 3 C-20 2.34 -20 1.68 -20 1 Z " fill="#379A1F" transform="translate(318,130)"/>
<path d="M0 0 C0 3 0 3 -1 5 C-1.99 5 -2.98 5 -4 5 C-3.67 7.31 -3.34 9.62 -3 12 C-4.36125 11.938125 -4.36125 11.938125 -5.75 11.875 C-8.91083821 11.77279857 -8.91083821 11.77279857 -11.125 13.0625 C-13.51724125 14.25862062 -14.50688533 13.7396585 -17 13 C-16.27554687 12.48050781 -15.55109375 11.96101563 -14.8046875 11.42578125 C-9.72795003 7.76376129 -4.73542133 4.09549953 0 0 Z " fill="#3D9726" transform="translate(367,286)"/>
<path d="M0 0 C0.66 0 1.32 0 2 0 C0.38808348 6.85921925 -1.35968328 13.46207289 -4 20 C-4.33 20 -4.66 20 -5 20 C-5.3853211 9.16819572 -5.3853211 9.16819572 -3 4 C-2.34 3.67 -1.68 3.34 -1 3 C-0.67 2.01 -0.34 1.02 0 0 Z " fill="#3A9B22" transform="translate(447,287)"/>
<path d="M0 0 C0 2.64 0 5.28 0 8 C-0.33 8 -0.66 8 -1 8 C-1 6.35 -1 4.7 -1 3 C-9.91 3 -18.82 3 -28 3 C-28 2.34 -28 1.68 -28 1 C-24.45843821 0.83105465 -20.91673593 0.66525124 -17.375 0.5 C-16.37597656 0.45230469 -15.37695312 0.40460938 -14.34765625 0.35546875 C-9.5608033 0.13356166 -4.79365172 -0.06544234 0 0 Z " fill="#22A204" transform="translate(181,168)"/>
<path d="M0 0 C0.33 0 0.66 0 1 0 C2.78837983 6.70642437 2.89531225 13.66650445 0 20 C-0.16798262 22.70886941 -0.16798262 22.70886941 0 25 C-1.5625 23.3125 -1.5625 23.3125 -3 21 C-2.75 18.875 -2.75 18.875 -2 16 C-1.78859267 14.33619684 -1.60340499 12.66895463 -1.4375 11 C-1.35371094 10.175 -1.26992188 9.35 -1.18359375 8.5 C-0.96108819 5.96061483 -0.96108819 5.96061483 -1.03515625 3.25 C-1 1 -1 1 0 0 Z " fill="#20A106" transform="translate(357,218)"/>
<path d="M0 0 C3.04732617 3.04732617 3.92656016 5.82936893 4.1953125 10.11328125 C4.16050781 11.69689453 4.16050781 11.69689453 4.125 13.3125 C4.10695313 14.38113281 4.08890625 15.44976562 4.0703125 16.55078125 C4.03550781 17.76314453 4.03550781 17.76314453 4 19 C3.67 19 3.34 19 3 19 C2.67 17.02 2.34 15.04 2 13 C1.34 14.32 0.68 15.64 0 17 C-0.33 17 -0.66 17 -1 17 C-1.88236337 11.79405611 -2.29515147 8.86032076 0 4 C0 2.68 0 1.36 0 0 Z " fill="#2A9F10" transform="translate(355,198)"/>
<path d="M0 0 C5.65020618 0.60108576 10.66164461 2.07528683 16 4 C16 4.33 16 4.66 16 5 C14.72125 5.12375 13.4425 5.2475 12.125 5.375 C8.65209064 5.69042399 8.65209064 5.69042399 6 8 C2.875 8.125 2.875 8.125 0 8 C0 7.01 0 6.02 0 5 C1.32 5 2.64 5 4 5 C4.33 4.01 4.66 3.02 5 2 C3.35 1.67 1.7 1.34 0 1 C0 0.67 0 0.34 0 0 Z " fill="#359821" transform="translate(288,1)"/>
<path d="M0 0 C0.99 0.99 1.98 1.98 3 3 C0.75530315 4.65351332 -1.49520825 6.29785481 -3.75 7.9375 C-4.70132812 8.64036133 -4.70132812 8.64036133 -5.671875 9.35742188 C-6.290625 9.80537109 -6.909375 10.25332031 -7.546875 10.71484375 C-8.11245117 11.12855225 -8.67802734 11.54226074 -9.26074219 11.96850586 C-11.20695163 13.12273591 -12.7510026 13.72649661 -15 14 C-15.66 13.34 -16.32 12.68 -17 12 C-14.03 11.01 -11.06 10.02 -8 9 C-8 8.34 -8 7.68 -8 7 C-7.01 7 -6.02 7 -5 7 C-5 6.34 -5 5.68 -5 5 C-4.34 5 -3.68 5 -3 5 C-2.67 4.01 -2.34 3.02 -2 2 C-1.34 2 -0.68 2 0 2 C0 1.34 0 0.68 0 0 Z " fill="#409518" transform="translate(362,405)"/>
<path d="M0 0 C0.66 0 1.32 0 2 0 C2.21824777 6.0018137 1.5056904 11.19233704 0 17 C-0.66 17 -1.32 17 -2 17 C-2 15.68 -2 14.36 -2 13 C-2.99 13 -3.98 13 -5 13 C-4.67 11.35 -4.34 9.7 -4 8 C-3.01 7.67 -2.02 7.34 -1 7 C-0.67 4.69 -0.34 2.38 0 0 Z " fill="#2D9F1C" transform="translate(170,271)"/>
<path d="M0 0 C0.66 0.66 1.32 1.32 2 2 C1.67 2.99 1.34 3.98 1 5 C-6.26 4.67 -13.52 4.34 -21 4 C-21 3.34 -21 2.68 -21 2 C-20.15236084 1.96241577 -20.15236084 1.96241577 -19.28759766 1.92407227 C-16.73316258 1.80820044 -14.1791045 1.68543463 -11.625 1.5625 C-10.29082031 1.50352539 -10.29082031 1.50352539 -8.9296875 1.44335938 C-8.07890625 1.40146484 -7.228125 1.35957031 -6.3515625 1.31640625 C-5.56604004 1.27974854 -4.78051758 1.24309082 -3.97119141 1.20532227 C-1.92476504 1.109109 -1.92476504 1.109109 0 0 Z " fill="#40962F" transform="translate(163,275)"/>
<path d="M0 0 C0.66 0 1.32 0 2 0 C4.64381296 4.94413841 4.22504028 9.86800024 4.125 15.3125 C4.11597656 16.24384766 4.10695313 17.17519531 4.09765625 18.13476562 C4.07418263 20.4234436 4.04134729 22.71158672 4 25 C3.67 25 3.34 25 3 25 C2.67 19.72 2.34 14.44 2 9 C1.34 9 0.68 9 0 9 C0 6.03 0 3.06 0 0 Z " fill="#19A214" transform="translate(450,199)"/>
<path d="M0 0 C2.3125 1.0625 2.3125 1.0625 4 2 C4 2.66 4 3.32 4 4 C4.70125 3.9175 5.4025 3.835 6.125 3.75 C9.92949327 4.0808255 11.98077266 5.75313314 15 8 C13 9 13 9 9.4453125 7.890625 C8.00218253 7.35178534 6.56217717 6.80452146 5.125 6.25 C4.40441406 5.98445313 3.68382812 5.71890625 2.94140625 5.4453125 C-0.78839123 4.03032488 -3.94896288 2.65168671 -7 0 C-4.27761216 -1.36119392 -2.90677521 -0.76129827 0 0 Z " fill="#3C991C" transform="translate(141,432)"/>
<path d="M0 0 C0.66 0.33 1.32 0.66 2 1 C2 1.66 2 2.32 2 3 C2.93972656 2.74863281 2.93972656 2.74863281 3.8984375 2.4921875 C4.71570313 2.28851563 5.53296875 2.08484375 6.375 1.875 C7.59316406 1.56175781 7.59316406 1.56175781 8.8359375 1.2421875 C9.55007812 1.16226562 10.26421875 1.08234375 11 1 C11.66 1.66 12.32 2.32 13 3 C11.68 3 10.36 3 9 3 C8.34 4.32 7.68 5.64 7 7 C5.02 7 3.04 7 1 7 C1 6.01 1 5.02 1 4 C-0.32 3.67 -1.64 3.34 -3 3 C-3 2.34 -3 1.68 -3 1 C-2.01 0.67 -1.02 0.34 0 0 Z " fill="#11A30F" transform="translate(115,309)"/>
<path d="M0 0 C1.98 0 3.96 0 6 0 C6 0.99 6 1.98 6 3 C5.34 3 4.68 3 4 3 C4 3.99 4 4.98 4 6 C4.66 6.33 5.32 6.66 6 7 C1.72656908 7.36629408 -0.48812804 6.40814077 -4 4 C-4 4.66 -4 5.32 -4 6 C-4.66 6 -5.32 6 -6 6 C-6 5.01 -6 4.02 -6 3 C-4.02 2.67 -2.04 2.34 0 2 C0 1.34 0 0.68 0 0 Z " fill="#1FA209" transform="translate(119,256)"/>
<path d="M0 0 C1.68066485 4.08452488 0.19278395 6.96439842 -1.3125 10.9375 C-1.98732422 12.74541016 -1.98732422 12.74541016 -2.67578125 14.58984375 C-3.47408809 16.64566049 -4.28730667 18.6958985 -5.12890625 20.734375 C-6.17579369 23.45722126 -6.59786373 26.11802336 -7 29 C-7.66 29 -8.32 29 -9 29 C-8.07799862 18.85798487 -3.87895178 9.32599045 0 0 Z " fill="#41992F" transform="translate(16,131)"/>
<path d="M0 0 C0.66 0 1.32 0 2 0 C2 0.66 2 1.32 2 2 C3.32 2.33 4.64 2.66 6 3 C4.8803014 4.00593243 3.7540588 5.0045849 2.625 6 C1.99851562 6.556875 1.37203125 7.11375 0.7265625 7.6875 C-1 9 -1 9 -3 9 C-4.625 7.625 -4.625 7.625 -6 6 C-6 5.34 -6 4.68 -6 4 C-4.36368108 2.95107762 -2.69514137 1.95093297 -1 1 C-0.67 0.67 -0.34 0.34 0 0 Z " fill="#27A017" transform="translate(368,398)"/>
<path d="M0 0 C3 1 3 1 4 3 C4.35555556 10.46666667 4.35555556 10.46666667 2 14 C1.34 14 0.68 14 0 14 C0.01740234 13.07767578 0.01740234 13.07767578 0.03515625 12.13671875 C0.04417969 11.32847656 0.05320312 10.52023438 0.0625 9.6875 C0.07410156 8.88699219 0.08570313 8.08648437 0.09765625 7.26171875 C0.09657855 4.83138666 0.09657855 4.83138666 -1 2 C-0.67 1.34 -0.34 0.68 0 0 Z " fill="#1BA209" transform="translate(5,170)"/>
<path d="M0 0 C0.87454834 0.00523682 1.74909668 0.01047363 2.65014648 0.01586914 C3.59438477 0.0190918 4.53862305 0.02231445 5.51147461 0.02563477 C6.50469727 0.03401367 7.49791992 0.04239258 8.52124023 0.05102539 C9.51833008 0.05553711 10.51541992 0.06004883 11.54272461 0.06469727 C14.01478872 0.07652532 16.48673541 0.0930069 18.95874023 0.11352539 C18.95874023 0.77352539 18.95874023 1.43352539 18.95874023 2.11352539 C13.01874023 2.44352539 7.07874023 2.77352539 0.95874023 3.11352539 C0.62874023 3.77352539 0.29874023 4.43352539 -0.04125977 5.11352539 C-0.04125977 4.12352539 -0.04125977 3.13352539 -0.04125977 2.11352539 C-1.03125977 1.78352539 -2.02125977 1.45352539 -3.04125977 1.11352539 C-2.04125977 0.11352539 -2.04125977 0.11352539 0 0 Z " fill="#1EA31B" transform="translate(141.041259765625,273.886474609375)"/>
<path d="M0 0 C0.66 0.33 1.32 0.66 2 1 C1.375 3.375 1.375 3.375 0 6 C-2.875 7.125 -2.875 7.125 -6 8 C-7.35622245 8.96873032 -8.69417053 9.96434215 -10 11 C-10.99 11.33 -11.98 11.66 -13 12 C-13.99 13.485 -13.99 13.485 -15 15 C-15.66 14.34 -16.32 13.68 -17 13 C-11.44362331 8.49452755 -5.87337525 4.08582626 0 0 Z " fill="#409B2C" transform="translate(101,30)"/>
<path d="M0 0 C1.27609323 0.90933009 2.54565553 1.82782853 3.8125 2.75 C4.87404297 3.51570313 4.87404297 3.51570313 5.95703125 4.296875 C8.02977691 6.02482358 9.47375854 7.78526476 11 10 C9.35 10.33 7.7 10.66 6 11 C5.34 10.01 4.68 9.02 4 8 C1.43717258 7.27034634 1.43717258 7.27034634 -1 7 C-0.67 4.69 -0.34 2.38 0 0 Z " fill="#339823" transform="translate(86,284)"/>
<path d="M0 0 C0.99 0.33 1.98 0.66 3 1 C2.34 1.66 1.68 2.32 1 3 C0.690625 3.99 0.38125 4.98 0.0625 6 C-1 9 -1 9 -4 11 C-3.67 12.98 -3.34 14.96 -3 17 C-5.475 16.01 -5.475 16.01 -8 15 C-6.62712658 11.30123909 -4.93644547 8.0485524 -2.875 4.6875 C-2.33617187 3.80449219 -1.79734375 2.92148437 -1.2421875 2.01171875 C-0.83226562 1.34785156 -0.42234375 0.68398438 0 0 Z " fill="#439632" transform="translate(385,261)"/>
<path d="M0 0 C0 3.59422497 -1.14981068 4.99344236 -3 8 C-3 8.66 -3 9.32 -3 10 C-3.61875 10.2475 -4.2375 10.495 -4.875 10.75 C-7.35068687 12.20628639 -7.95125002 13.37812506 -9 16 C-9.99 15.01 -10.98 14.02 -12 13 C-8.04 8.71 -4.08 4.42 0 0 Z " fill="#3C9D26" transform="translate(61,64)"/>
<path d="M0 0 C1.98 0 3.96 0 6 0 C6 0.99 6 1.98 6 3 C8.31 3.33 10.62 3.66 13 4 C13 5.65 13 7.3 13 9 C7.99971686 7.65846062 3.80932497 5.51629997 0 2 C0 1.34 0 0.68 0 0 Z " fill="#1AA208" transform="translate(323,17)"/>
<path d="M0 0 C-1.62120808 3.56496018 -3.7594426 6.59008822 -6.0625 9.75 C-6.77535156 10.73484375 -7.48820312 11.7196875 -8.22265625 12.734375 C-8.80917969 13.48203125 -9.39570313 14.2296875 -10 15 C-10.33 15 -10.66 15 -11 15 C-11.25 12.6875 -11.25 12.6875 -11 10 C-9.70264493 8.95374591 -8.36733028 7.95298777 -7 7 C-6.6278958 5.67696283 -6.29369827 4.34262065 -6 3 C-3.90598151 0.33488555 -3.51745769 0 0 0 Z " fill="#3C9826" transform="translate(418,352)"/>
<path d="M0 0 C2.64 0 5.28 0 8 0 C6.02 0.99 6.02 0.99 4 2 C7.96 2.33 11.92 2.66 16 3 C15.67 3.66 15.34 4.32 15 5 C10.05 5 5.1 5 0 5 C0 3.35 0 1.7 0 0 Z " fill="#2F9E1C" transform="translate(304,313)"/>
<path d="M0 0 C1.32 0 2.64 0 4 0 C4.4125 0.61875 4.825 1.2375 5.25 1.875 C7.29778237 4.36159288 8.00643534 4.37033845 11.0625 4.9375 C13.19140625 5.36328125 13.19140625 5.36328125 15 6 C16.5 8.625 16.5 8.625 17 11 C13.25369009 10.34306414 10.55883435 8.65887801 7.375 6.625 C6.41335937 6.01914062 5.45171875 5.41328125 4.4609375 4.7890625 C2 3 2 3 0 0 Z " fill="#3C9825" transform="translate(112,263)"/>
<path d="M0 0 C0.33 0 0.66 0 1 0 C1 9.57 1 19.14 1 29 C-3.62727114 22.05909329 -3.18975367 15.25107207 -1.625 7.375 C-1.1121256 4.908423 -0.56656383 2.45510992 0 0 Z " fill="#3B9729" transform="translate(62,209)"/>
<path d="M0 0 C0 0.66 0 1.32 0 2 C-0.99 2.33 -1.98 2.66 -3 3 C-4.20882096 5.00016466 -4.20882096 5.00016466 -5 7 C-6.65 6.67 -8.3 6.34 -10 6 C-10 6.66 -10 7.32 -10 8 C-12.25 9.6875 -12.25 9.6875 -15 11 C-17.171875 10.58203125 -17.171875 10.58203125 -19 10 C-16.54220129 8.51993873 -14.08378912 7.04091426 -11.625 5.5625 C-10.92632812 5.14162109 -10.22765625 4.72074219 -9.5078125 4.28710938 C-8.8375 3.88427734 -8.1671875 3.48144531 -7.4765625 3.06640625 C-6.85861816 2.69459229 -6.24067383 2.32277832 -5.60400391 1.93969727 C-2.29306313 0 -2.29306313 0 0 0 Z " fill="#419C2C" transform="translate(122,19)"/>
<path d="M0 0 C3.75559487 1.87779744 4.92965108 2.58392428 7 6 C7 6.99 7 7.98 7 9 C7.66 9 8.32 9 9 9 C9.66 10.98 10.32 12.96 11 15 C10.01 15.33 9.02 15.66 8 16 C5.36 10.72 2.72 5.44 0 0 Z " fill="#3F9923" transform="translate(379,173)"/>
<path d="M0 0 C5.66129431 4.69766975 10.85228904 9.74723372 16 15 C15.67 15.66 15.34 16.32 15 17 C14.34 16.67 13.68 16.34 13 16 C13 15.34 13 14.68 13 14 C12.01 14 11.02 14 10 14 C9.79375 13.360625 9.5875 12.72125 9.375 12.0625 C8.10461791 9.65074923 8.10461791 9.65074923 4.875 9.25 C3.92625 9.1675 2.9775 9.085 2 9 C2.66 8.67 3.32 8.34 4 8 C3.525625 7.236875 3.05125 6.47375 2.5625 5.6875 C1 3 1 3 0 0 Z " fill="#3B9927" transform="translate(386,56)"/>
<path d="M0 0 C2.475 0.99 2.475 0.99 5 2 C4.2368139 3.60781893 3.46412942 5.21113138 2.6875 6.8125 C2.25824219 7.70582031 1.82898438 8.59914063 1.38671875 9.51953125 C0.11778211 11.78931933 -1.06556898 13.29248171 -3 15 C-3.66 14.34 -4.32 13.68 -5 13 C-5 12.01 -5 11.02 -5 10 C-3.68 10 -2.36 10 -1 10 C-0.31292445 7.50935112 0 5.62113708 0 3 C0 2.01 0 1.02 0 0 Z " fill="#379A20" transform="translate(422,336)"/>
<path d="M0 0 C4.23322844 0.62045463 7.52290295 2.10523559 11.3125 4.0625 C12.38113281 4.61035156 13.44976562 5.15820312 14.55078125 5.72265625 C15.35902344 6.14417969 16.16726563 6.56570312 17 7 C17 7.33 17 7.66 17 8 C13.7 8 10.4 8 7 8 C7 7.01 7 6.02 7 5 C5.5459375 4.319375 5.5459375 4.319375 4.0625 3.625 C1 2 1 2 0 0 Z " fill="#399A2A" transform="translate(321,13)"/>
<path d="M0 0 C0.66 0 1.32 0 2 0 C2 0.66 2 1.32 2 2 C2.99 2.33 3.98 2.66 5 3 C5.33 3.99 5.66 4.98 6 6 C4.5625 8.6875 4.5625 8.6875 3 11 C-1 5 -1 5 -0.625 2.3125 C-0.41875 1.549375 -0.2125 0.78625 0 0 Z " fill="#27A00E" transform="translate(24,320)"/>
<path d="M0 0 C0.99 0 1.98 0 3 0 C5.60018816 3.90028225 5.15085514 7.47434569 5 12 C4.34 12 3.68 12 3 12 C-0.42857143 4.71428571 -0.42857143 4.71428571 0 0 Z " fill="#2AA103" transform="translate(393,252)"/>
<path d="M0 0 C6.53826158 0.64141174 12.00389995 2.38858588 17.96875 5.1171875 C17.96875 5.4471875 17.96875 5.7771875 17.96875 6.1171875 C16.710625 6.1584375 15.4525 6.1996875 14.15625 6.2421875 C13.44855469 6.26539063 12.74085938 6.28859375 12.01171875 6.3125 C9.96875 6.1171875 9.96875 6.1171875 6.96875 4.1171875 C6.96875 3.4571875 6.96875 2.7971875 6.96875 2.1171875 C3.33875 2.1171875 -0.29125 2.1171875 -4.03125 2.1171875 C-2.03125 0.1171875 -2.03125 0.1171875 0 0 Z " fill="#3A9332" transform="translate(313.03125,166.8828125)"/>
<path d="M0 0 C5.7266425 2.9826263 10.26638344 6.62294157 15 11 C14.01 11.33 13.02 11.66 12 12 C8.87902225 10.43951112 6.23224755 8.70219441 4 6 C4 5.34 4 4.68 4 4 C2.68 3.67 1.36 3.34 0 3 C0 2.01 0 1.02 0 0 Z " fill="#3C9825" transform="translate(363,37)"/>
<path d="M0 0 C0.66 0.99 1.32 1.98 2 3 C1.34 3 0.68 3 0 3 C0.061875 3.9075 0.12375 4.815 0.1875 5.75 C-0.01686856 9.29238832 -0.52653696 10.52653696 -3 13 C-3.66 13 -4.32 13 -5 13 C-5 13.66 -5 14.32 -5 15 C-5.66 15 -6.32 15 -7 15 C-6.31238981 11.34435091 -4.74550455 8.48132728 -2.9375 5.25 C-2.11572266 3.77273437 -2.11572266 3.77273437 -1.27734375 2.265625 C-0.64505859 1.14414063 -0.64505859 1.14414063 0 0 Z " fill="#3B9B26" transform="translate(30,104)"/>
<path d="M0 0 C10.93025271 0.21056529 10.93025271 0.21056529 14.1875 3.5625 C15.0846875 4.7690625 15.0846875 4.7690625 16 6 C15.67 6.99 15.34 7.98 15 9 C14.12988281 8.38511719 14.12988281 8.38511719 13.2421875 7.7578125 C8.93915465 4.78971393 5.1313811 2.31573874 0 1 C0 0.67 0 0.34 0 0 Z " fill="#429632" transform="translate(248,73)"/>
<path d="M0 0 C1.65 0.33 3.3 0.66 5 1 C0.79066147 4.50778211 -4.4255442 8 -10 8 C-10 7.34 -10 6.68 -10 6 C-9.34 6 -8.68 6 -8 6 C-8 5.01 -8 4.02 -8 3 C-6.865625 2.87625 -5.73125 2.7525 -4.5625 2.625 C-3.386875 2.41875 -2.21125 2.2125 -1 2 C-0.67 1.34 -0.34 0.68 0 0 Z " fill="#3A9A23" transform="translate(330,425)"/>
<path d="M0 0 C1.231394 3.69418201 0.64432764 6.2056261 0 10 C-1.32 10 -2.64 10 -4 10 C-4.25 7.25 -4.25 7.25 -4 4 C-2 1.625 -2 1.625 0 0 Z " fill="#1DA205" transform="translate(442,149)"/>
<path d="M0 0 C-0.66 0.66 -1.32 1.32 -2 2 C-5.0390625 1.9765625 -5.0390625 1.9765625 -8.625 1.625 C-9.81351563 1.51414063 -11.00203125 1.40328125 -12.2265625 1.2890625 C-13.14179688 1.19367188 -14.05703125 1.09828125 -15 1 C-14.67 0.34 -14.34 -0.32 -14 -1 C-8.59710348 -2.09889421 -5.18610439 -2.20409437 0 0 Z " fill="#18A20B" transform="translate(144,131)"/>
<path d="M0 0 C2.64 1.32 5.28 2.64 8 4 C7.34 4.66 6.68 5.32 6 6 C5.34 5.67 4.68 5.34 4 5 C4 4.34 4 3.68 4 3 C2.01508358 3.26676204 2.01508358 3.26676204 0 4 C-0.33 4.99 -0.66 5.98 -1 7 C-2.9375 6.625 -2.9375 6.625 -5 6 C-5.33 5.34 -5.66 4.68 -6 4 C-3 2 -3 2 0 2 C0 1.34 0 0.68 0 0 Z " fill="#2BA01B" transform="translate(103,298)"/>
<path d="M0 0 C2.015625 1.609375 2.015625 1.609375 4 4 C4.171875 7.015625 4.171875 7.015625 3.75 10.25 C3.62109375 11.32765625 3.4921875 12.4053125 3.359375 13.515625 C3.24078125 14.33546875 3.1221875 15.1553125 3 16 C1.04315542 13.06473313 0.48235576 11.38453435 -0.1875 8 C-0.36667969 7.13375 -0.54585938 6.2675 -0.73046875 5.375 C-1 3 -1 3 0 0 Z " fill="#379F25" transform="translate(2,262)"/>
<path d="M0 0 C-0.33 1.32 -0.66 2.64 -1 4 C-2.65 4.33 -4.3 4.66 -6 5 C-6.33 5.99 -6.66 6.98 -7 8 C-9.475 7.01 -9.475 7.01 -12 6 C-8.59780735 3.25207517 -4.51535412 0 0 0 Z " fill="#23A11B" transform="translate(124,416)"/>
<path d="M0 0 C0.99 0 1.98 0 3 0 C3 0.66 3 1.32 3 2 C3.66 2 4.32 2 5 2 C5 2.66 5 3.32 5 4 C5.5775 4.103125 6.155 4.20625 6.75 4.3125 C9.32049158 5.09792798 10.93657284 6.30504197 13 8 C12.67 8.66 12.34 9.32 12 10 C5.565 6.04 5.565 6.04 -1 2 C-0.67 1.34 -0.34 0.68 0 0 Z " fill="#3E9A2A" transform="translate(99,411)"/>
<path d="M0 0 C-0.144375 0.680625 -0.28875 1.36125 -0.4375 2.0625 C-1.06945909 5.36273082 -1.54313941 8.67144426 -2 12 C-2.99 11.67 -3.98 11.34 -5 11 C-5.875 9.125 -5.875 9.125 -6 7 C-4.5625 5.25 -4.5625 5.25 -3 4 C-3.66 3.67 -4.32 3.34 -5 3 C-2.25 0 -2.25 0 0 0 Z " fill="#1BA104" transform="translate(429,326)"/>
<path d="M0 0 C0.66 0 1.32 0 2 0 C2.33 2.97 2.66 5.94 3 9 C2.01 9.495 2.01 9.495 1 10 C0.34 9.67 -0.32 9.34 -1 9 C-1.75 5.5625 -1.75 5.5625 -2 2 C-1.34 1.34 -0.68 0.68 0 0 Z " fill="#1DA119" transform="translate(391,252)"/>
<path d="M0 0 C2.875 0.3125 2.875 0.3125 6 1 C6.66 1.99 7.32 2.98 8 4 C8.99 4.33 9.98 4.66 11 5 C11 6.65 11 8.3 11 10 C7.19364503 6.79239749 3.45436433 3.59253891 0 0 Z " fill="#419720" transform="translate(357,150)"/>
<path d="M0 0 C2.2265625 1.01171875 2.2265625 1.01171875 4 2 C1.56318413 2.50354867 -0.87435439 3.00296756 -3.3125 3.5 C-4.34793945 3.71462891 -4.34793945 3.71462891 -5.40429688 3.93359375 C-8.32524773 4.52625044 -11.01108122 5 -14 5 C-14 4.34 -14 3.68 -14 3 C-12.35 3 -10.7 3 -9 3 C-9 2.34 -9 1.68 -9 1 C-5.97562661 -0.5121867 -3.33758466 -0.17263369 0 0 Z " fill="#419423" transform="translate(137,133)"/>
<path d="M0 0 C-3.01490557 2.00993705 -5.2149927 2.72623341 -8.6875 3.625 C-9.68136719 3.88539063 -10.67523438 4.14578125 -11.69921875 4.4140625 C-12.45847656 4.60742188 -13.21773438 4.80078125 -14 5 C-14 4.34 -14 3.68 -14 3 C-12.68 2.67 -11.36 2.34 -10 2 C-10 1.34 -10 0.68 -10 0 C-6.30458414 -0.95024979 -3.69541586 -0.95024979 0 0 Z " fill="#399A1C" transform="translate(302,440)"/>
<path d="M0 0 C0.66 0.33 1.32 0.66 2 1 C1.67 1.66 1.34 2.32 1 3 C1.66 3 2.32 3 3 3 C3.12375 3.639375 3.2475 4.27875 3.375 4.9375 C3.58125 5.618125 3.7875 6.29875 4 7 C4.66 7.33 5.32 7.66 6 8 C1.63204596 8 1.25341007 7.77237852 -1.75 5 C-2.36359375 4.443125 -2.9771875 3.88625 -3.609375 3.3125 C-4.06828125 2.879375 -4.5271875 2.44625 -5 2 C-4.34 1.67 -3.68 1.34 -3 1 C-2.01 1.33 -1.02 1.66 0 2 C0 1.34 0 0.68 0 0 Z " fill="#389E21" transform="translate(81,394)"/>
<path d="M0 0 C0.86625 0.4640625 0.86625 0.4640625 1.75 0.9375 C4.21905868 2.19285032 4.21905868 2.19285032 8 3 C8.66 5.97 9.32 8.94 10 12 C6.40459445 8.50732032 3.12221448 4.92506963 0 1 C0 0.67 0 0.34 0 0 Z " fill="#3D9C28" transform="translate(50,368)"/>
<path d="M0 0 C1.22329074 3.66987221 0.88021006 6.33967822 0.5625 10.1875 C0.46066406 11.45980469 0.35882813 12.73210937 0.25390625 14.04296875 C0.12822266 15.50669922 0.12822266 15.50669922 0 17 C-2.03219488 13.59648662 -2.36891039 10.6767073 -2.625 6.75 C-2.69976563 5.67234375 -2.77453125 4.5946875 -2.8515625 3.484375 C-2.90054687 2.66453125 -2.94953125 1.8446875 -3 1 C-2.01 0.67 -1.02 0.34 0 0 Z " fill="#2A9F04" transform="translate(10,276)"/>
<path d="M0 0 C0 0.99 0 1.98 0 3 C-1.0725 3.144375 -2.145 3.28875 -3.25 3.4375 C-6.76914216 3.90405908 -6.76914216 3.90405908 -9.25 4.5625 C-11 5 -11 5 -14 5 C-14 4.34 -14 3.68 -14 3 C-12.4188708 2.49307308 -10.83498617 1.99473557 -9.25 1.5 C-7.92742187 1.08234375 -7.92742187 1.08234375 -6.578125 0.65625 C-4 0 -4 0 0 0 Z " fill="#1EA10A" transform="translate(144,169)"/>
<path d="M0 0 C0.66 0 1.32 0 2 0 C0.25192871 5.46737191 -1.65794081 10.75824848 -4 16 C-5.64426374 11.06720879 -3.52845018 7.11787539 -1.375 2.5625 C-0.92125 1.716875 -0.4675 0.87125 0 0 Z " fill="#40982A" transform="translate(440,307)"/>
<path d="M0 0 C0.33 0.99 0.66 1.98 1 3 C2.32 3 3.64 3 5 3 C5 4.32 5 5.64 5 7 C3.35 7.66 1.7 8.32 0 9 C-1.125 6.75 -1.125 6.75 -2 4 C-1.125 1.6875 -1.125 1.6875 0 0 Z " fill="#349F20" transform="translate(19,125)"/>
<path d="M0 0 C1.32 0 2.64 0 4 0 C3.43454163 3.95820859 2.19097652 6.6659053 0 10 C-0.99 9.67 -1.98 9.34 -3 9 C-2.34 9 -1.68 9 -1 9 C-0.67 6.03 -0.34 3.06 0 0 Z " fill="#1CA21D" transform="translate(435,304)"/>
<path d="M0 0 C4.20240011 3.71750779 6.99782679 8.31660979 10 13 C8.0625 12.1875 8.0625 12.1875 6 11 C5.67 10.01 5.34 9.02 5 8 C2.49552484 6.78130071 2.49552484 6.78130071 0 6 C0 4.02 0 2.04 0 0 Z " fill="#3A962B" transform="translate(76,271)"/>
<path d="M0 0 C1.85776765 3.13498292 2.20140476 5.37471432 2 9 C0.35 9.66 -1.3 10.32 -3 11 C-2.835 10.236875 -2.67 9.47375 -2.5 8.6875 C-1.90854604 5.96403764 -1.90854604 5.96403764 -2 3 C-2 2.34 -2 1.68 -2 1 C-1.34 0.67 -0.68 0.34 0 0 Z " fill="#20A208" transform="translate(110,248)"/>
<path d="M0 0 C0.99 0 1.98 0 3 0 C1.61735163 2.86867231 0.07851447 5.56024032 -1.625 8.25 C-2.07101563 8.95640625 -2.51703125 9.6628125 -2.9765625 10.390625 C-3.48316406 11.18726563 -3.48316406 11.18726563 -4 12 C-4.93134261 9.47856025 -5.16007332 8.38473764 -4.109375 5.859375 C-3.43648438 4.81523437 -3.43648438 4.81523437 -2.75 3.75 C-2.31171875 3.04359375 -1.8734375 2.3371875 -1.421875 1.609375 C-0.95265625 1.07828125 -0.4834375 0.5471875 0 0 Z " fill="#429332" transform="translate(79,166)"/>
<path d="M0 0 C1.875 0.125 1.875 0.125 4 1 C5.25 4.0625 5.25 4.0625 6 7 C4.35 7.33 2.7 7.66 1 8 C1 7.01 1 6.02 1 5 C0.34 4.67 -0.32 4.34 -1 4 C-0.67 2.68 -0.34 1.36 0 0 Z " fill="#1FA208" transform="translate(81,153)"/>
<path d="M0 0 C5.28 0 10.56 0 16 0 C16.33 1.32 16.66 2.64 17 4 C11.39 3.01 5.78 2.02 0 1 C0 0.67 0 0.34 0 0 Z " fill="#44952D" transform="translate(315,134)"/>
<path d="M0 0 C0.33 0 0.66 0 1 0 C1.20086443 3.71599191 1.1519437 4.77208445 -1 8 C-4.125 8.1875 -4.125 8.1875 -7 8 C-7.66 6.68 -8.32 5.36 -9 4 C-6.36 4.33 -3.72 4.66 -1 5 C-0.67 3.35 -0.34 1.7 0 0 Z " fill="#3C9227" transform="translate(216,368)"/>
<path d="M0 0 C1.65770135 2.53460134 2.0461239 3.67805518 1.609375 6.7265625 C1.32578125 7.68304688 1.0421875 8.63953125 0.75 9.625 C0.34007812 11.06746094 0.34007812 11.06746094 -0.078125 12.5390625 C-1 15 -1 15 -3 17 C-3.089757 13.76874807 -2.83518936 11.10876039 -2 8 C-1.82339844 7.29359375 -1.64679688 6.5871875 -1.46484375 5.859375 C-0.9765625 3.90625 -0.48828125 1.953125 0 0 Z " fill="#359C19" transform="translate(435,312)"/>
<path d="M0 0 C-3.62611309 3.62611309 -9.57108708 3.05372969 -14.5 3.0625 C-15.655 3.041875 -16.81 3.02125 -18 3 C-18 2.67 -18 2.34 -18 2 C-11.84629161 0.176679 -6.40353322 -0.2361959 0 0 Z " fill="#359A20" transform="translate(330,310)"/>
<path d="M0 0 C0.1875 2.375 0.1875 2.375 0 5 C-3 7 -3 7 -6 7 C-6.33 5.68 -6.66 4.36 -7 3 C-2.25 0 -2.25 0 0 0 Z " fill="#1BA203" transform="translate(345,305)"/>
<path d="M0 0 C1.45823212 -0.0270043 2.91660675 -0.04639787 4.375 -0.0625 C5.18710938 -0.07410156 5.99921875 -0.08570313 6.8359375 -0.09765625 C9 0 9 0 11 1 C10.67 1.99 10.34 2.98 10 4 C6.7 3.67 3.4 3.34 0 3 C0 2.01 0 1.02 0 0 Z " fill="#21A11F" transform="translate(160,7)"/>
<path d="M0 0 C2.31 0.33 4.62 0.66 7 1 C7.33 2.98 7.66 4.96 8 7 C8.66 7 9.32 7 10 7 C9.67 7.66 9.34 8.32 9 9 C7.68412059 7.87895467 6.37239647 6.75303035 5.0625 5.625 C4.33160156 4.99851562 3.60070312 4.37203125 2.84765625 3.7265625 C1 2 1 2 0 0 Z " fill="#449B25" transform="translate(65,385)"/>
<path d="M0 0 C2.9375 1 2.9375 1 6 3 C6.86518243 5.75878925 6.90393194 8.06992426 7 11 C4.0444623 8.24829249 1.88436685 5.58029701 0 2 C0 1.34 0 0.68 0 0 Z " fill="#3A9A25" transform="translate(31,341)"/>
<path d="M0 0 C4.56278027 -0.36995516 4.56278027 -0.36995516 6.625 1.375 C7.07875 1.91125 7.5325 2.4475 8 3 C8.99 3.66 9.98 4.32 11 5 C9.54052295 4.93993922 8.08220728 4.8511311 6.625 4.75 C5.81289062 4.70359375 5.00078125 4.6571875 4.1640625 4.609375 C2 4 2 4 0.7109375 1.953125 C0.47632812 1.30859375 0.24171875 0.6640625 0 0 Z " fill="#18A306" transform="translate(117,130)"/>
<path d="M0 0 C1.74627478 2.61941217 2.38722388 4.03824877 3 7 C3.66 7 4.32 7 5 7 C5 7.66 5 8.32 5 9 C2.625 8.75 2.625 8.75 0 8 C-1.7941758 5.43689172 -2 4.16880694 -2 1 C-1.34 0.67 -0.68 0.34 0 0 Z " fill="#359D25" transform="translate(19,313)"/>
<path d="M0 0 C2.85793316 2.85793316 2.40799941 5.14665584 2.625 9.125 C2.69976562 10.40632813 2.77453125 11.68765625 2.8515625 13.0078125 C2.92503906 14.48894531 2.92503906 14.48894531 3 16 C0.09701819 11.64552729 -1.27996489 7.23971916 -0.625 2 C-0.41875 1.34 -0.2125 0.68 0 0 Z " fill="#439922" transform="translate(6,277)"/>
<path d="M0 0 C0.99 0.33 1.98 0.66 3 1 C5.12310361 6.36363018 5.23332331 11.28357882 5 17 C4.67 17 4.34 17 4 17 C2.68 11.39 1.36 5.78 0 0 Z " fill="#41962C" transform="translate(388,190)"/>
<path d="M0 0 C0.66 0 1.32 0 2 0 C2.62457273 3.43515002 3 6.49064814 3 10 C1.68 10 0.36 10 -1 10 C-0.67 6.7 -0.34 3.4 0 0 Z " fill="#13A407" transform="translate(71,170)"/>
<path d="M0 0 C1.98 0.495 1.98 0.495 4 1 C4 1.66 4 2.32 4 3 C4.66 3 5.32 3 6 3 C5.34 4.32 4.68 5.64 4 7 C2.35 6.01 0.7 5.02 -1 4 C-0.67 2.68 -0.34 1.36 0 0 Z " fill="#1AA20D" transform="translate(86,149)"/>
<path d="M0 0 C1.83610406 2.7541561 2.51804278 4.36304047 3.25 7.5 C3.44078125 8.2734375 3.6315625 9.046875 3.828125 9.84375 C4 12 4 12 2 15 C-0.59227518 10.13948404 -0.18689553 5.34728867 0 0 Z " fill="#3B9D24" transform="translate(443,141)"/>
<path d="M0 0 C2.97 0 5.94 0 9 0 C9.33 1.65 9.66 3.3 10 5 C6.08788267 3.84414715 3.1254959 2.64465038 0 0 Z " fill="#3A9B20" transform="translate(123,427)"/>
<path d="M0 0 C3.69900008 0.88776002 7.34550461 1.94581864 11 3 C6.25 7 6.25 7 4 7 C3.67 5.35 3.34 3.7 3 2 C2.01 2 1.02 2 0 2 C0 1.34 0 0.68 0 0 Z " fill="#359B1E" transform="translate(336,416)"/>
<path d="M0 0 C0.66 0 1.32 0 2 0 C2 0.66 2 1.32 2 2 C2.99 2.33 3.98 2.66 5 3 C5 3.66 5 4.32 5 5 C5.66 5 6.32 5 7 5 C7 5.99 7 6.98 7 8 C7.66 8 8.32 8 9 8 C8.67 9.32 8.34 10.64 8 12 C6.66382103 10.18959679 5.33112616 8.3766216 4 6.5625 C3.2575 5.55316406 2.515 4.54382813 1.75 3.50390625 C0 1 0 1 0 0 Z " fill="#3F9A1D" transform="translate(39,354)"/>
<path d="M0 0 C0.99 0.33 1.98 0.66 3 1 C3.33 2.98 3.66 4.96 4 7 C3.01 7.33 2.02 7.66 1 8 C-1.125 3.375 -1.125 3.375 0 0 Z " fill="#1AA20D" transform="translate(36,338)"/>
<path d="M0 0 C1.32 0 2.64 0 4 0 C2.90931332 3.77545388 2.0916909 6.47043472 -1 9 C-2.0326802 6.21176345 -2.04509293 5.1322726 -1.0625 2.25 C-0.711875 1.5075 -0.36125 0.765 0 0 Z " fill="#3B9926" transform="translate(428,329)"/>
<path d="M0 0 C0.66 0 1.32 0 2 0 C4.43425238 4.96993194 5.34615998 8.34605369 5 14 C3.37723842 11.56585763 2.38255208 9.68680554 1.375 7 C0.98441406 5.9790625 0.98441406 5.9790625 0.5859375 4.9375 C0 3 0 3 0 0 Z " fill="#3E9C1C" transform="translate(9,293)"/>
<path d="M0 0 C2 1 2 1 2 1 Z M-5 1 C-3.35 1 -1.7 1 0 1 C0 2.32 0 3.64 0 5 C-0.99 5 -1.98 5 -3 5 C-3.33 5.99 -3.66 6.98 -4 8 C-4.33 5.69 -4.66 3.38 -5 1 Z " fill="#369C25" transform="translate(102,235)"/>
<path d="M0 0 C0.99 0 1.98 0 3 0 C3 1.65 3 3.3 3 5 C2.34 5 1.68 5 1 5 C1 5.99 1 6.98 1 8 C0.01 7.67 -0.98 7.34 -2 7 C-1.125 1.125 -1.125 1.125 0 0 Z " fill="#1BA10A" transform="translate(391,182)"/>
<path d="M0 0 C0.33 0 0.66 0 1 0 C1.34548714 6.33393082 0.29342747 11.10261508 -2 17 C-2.33 17 -2.66 17 -3 17 C-2.48517081 11.147205 -1.54642808 5.6702363 0 0 Z " fill="#3A9B29" transform="translate(4,167)"/>
<path d="M0 0 C2 4 2 4 1.125 7.25 C0.75375 8.1575 0.3825 9.065 0 10 C-1.32 9.34 -2.64 8.68 -4 8 C-2.68 5.36 -1.36 2.72 0 0 Z " fill="#15A202" transform="translate(39,94)"/>
<path d="M0 0 C3.15330554 0.60694155 5.18888867 1.6416665 7.75 3.5625 C8.67039062 4.24505859 8.67039062 4.24505859 9.609375 4.94140625 C10.29773438 5.46541016 10.29773438 5.46541016 11 6 C10.34 6.66 9.68 7.32 9 8 C6.5625 7.25 6.5625 7.25 4 6 C3.375 3.9375 3.375 3.9375 3 2 C2.01 1.67 1.02 1.34 0 1 C0 0.67 0 0.34 0 0 Z " fill="#1FA003" transform="translate(88,402)"/>
<path d="M0 0 C0.66 0 1.32 0 2 0 C1.34 4.29 0.68 8.58 0 13 C-0.66 12.34 -1.32 11.68 -2 11 C-1.68603757 7.04407344 -1.25172182 3.75516546 0 0 Z " fill="#3E9921" transform="translate(453,261)"/>
<path d="M0 0 C1.64666203 0.1135629 3.29236082 0.24117381 4.9375 0.375 C5.85402344 0.44460937 6.77054687 0.51421875 7.71484375 0.5859375 C8.84599609 0.79089844 8.84599609 0.79089844 10 1 C10.33 1.66 10.66 2.32 11 3 C7.37 3 3.74 3 0 3 C0 2.01 0 1.02 0 0 Z " fill="#319E1D" transform="translate(304,168)"/>
<path d="M0 0 C2.31 0.33 4.62 0.66 7 1 C6.67 2.65 6.34 4.3 6 6 C3.96166576 4.7260411 1.96147874 3.38938077 0 2 C0 1.34 0 0.68 0 0 Z " fill="#18A202" transform="translate(257,71)"/>
<path d="M0 0 C2.97 0.495 2.97 0.495 6 1 C6.33 1.99 6.66 2.98 7 4 C6.236875 3.95875 5.47375 3.9175 4.6875 3.875 C1.77281584 3.77919176 1.77281584 3.77919176 -1 6 C-0.67 4.02 -0.34 2.04 0 0 Z " fill="#15A20B" transform="translate(355,36)"/>
<path d="M0 0 C3.55780196 0.60990891 6.6828589 1.5783681 10 3 C6.86650268 4.04449911 6.01031744 3.93423645 3 3 C2.67 3.99 2.34 4.98 2 6 C1.34 6 0.68 6 0 6 C0 4.02 0 2.04 0 0 Z " fill="#349B21" transform="translate(304,6)"/>
<path d="M0 0 C0.66 0.33 1.32 0.66 2 1 C2 1.66 2 2.32 2 3 C2.99 3.33 3.98 3.66 5 4 C5 4.66 5 5.32 5 6 C2.69 5.67 0.38 5.34 -2 5 C-1.125 1.125 -1.125 1.125 0 0 Z " fill="#0EA201" transform="translate(74,274)"/>
<path d="M0 0 C1.32 0.33 2.64 0.66 4 1 C4 1.99 4 2.98 4 4 C2.68 4 1.36 4 0 4 C-0.33 5.32 -0.66 6.64 -1 8 C-1.66 6.68 -2.32 5.36 -3 4 C-2.34 3.67 -1.68 3.34 -1 3 C-0.67 2.01 -0.34 1.02 0 0 Z " fill="#399B1D" transform="translate(378,163)"/>
<path d="M0 0 C0.33 0.99 0.66 1.98 1 3 C2.32 3 3.64 3 5 3 C5 3.99 5 4.98 5 6 C4.01 6.33 3.02 6.66 2 7 C-0.1875 5.5625 -0.1875 5.5625 -2 4 C-1.34 2.68 -0.68 1.36 0 0 Z " fill="#1CA208" transform="translate(71,58)"/>
<path d="M0 0 C3.53600465 1.91135386 5.78972846 3.62642766 8 7 C7.01 7.495 7.01 7.495 6 8 C6 7.34 6 6.68 6 6 C3.03 5.505 3.03 5.505 0 5 C0 3.35 0 1.7 0 0 Z " fill="#359F24" transform="translate(378,49)"/>
<path d="M0 0 C3 1 3 1 4.1875 2.875 C5 5 5 5 5 8 C3.68 7.67 2.36 7.34 1 7 C1 5.35 1 3.7 1 2 C0.34 1.67 -0.32 1.34 -1 1 C-0.67 0.67 -0.34 0.34 0 0 Z " fill="#0EA306" transform="translate(185,360)"/>
<path d="M0 0 C2.64 0 5.28 0 8 0 C8 1.32 8 2.64 8 4 C7.01 4.33 6.02 4.66 5 5 C5 4.34 5 3.68 5 3 C3.35 2.67 1.7 2.34 0 2 C0 1.34 0 0.68 0 0 Z " fill="#1DA209" transform="translate(140,313)"/>
<path d="M0 0 C0.93065133 2.60582371 1.14917407 3.64198224 0.0625 6.25 C-0.4634375 7.11625 -0.4634375 7.11625 -1 8 C-1.99 8 -2.98 8 -4 8 C-4.66 7.34 -5.32 6.68 -6 6 C-5.67 5.01 -5.34 4.02 -5 3 C-3.02 3.495 -3.02 3.495 -1 4 C-0.67 2.68 -0.34 1.36 0 0 Z " fill="#1AA10A" transform="translate(383,274)"/>
<path d="M0 0 C1.23922223 3.71766668 0.57018942 5.43889537 -0.4375 9.1875 C-0.72496094 10.27417969 -1.01242188 11.36085937 -1.30859375 12.48046875 C-1.65083984 13.72763672 -1.65083984 13.72763672 -2 15 C-2.33 15 -2.66 15 -3 15 C-3 11.7 -3 8.4 -3 5 C-2.34 5 -1.68 5 -1 5 C-0.67 3.35 -0.34 1.7 0 0 Z " fill="#3E952B" transform="translate(66,192)"/>
<path d="M0 0 C1.98 1.65 3.96 3.3 6 5 C4.02 5.99 4.02 5.99 2 7 C2 6.34 2 5.68 2 5 C0.68 4.34 -0.64 3.68 -2 3 C-2 2.34 -2 1.68 -2 1 C-1.34 0.67 -0.68 0.34 0 0 Z " fill="#35972B" transform="translate(338,177)"/>
<path d="M0 0 C0.99 0.33 1.98 0.66 3 1 C3 1.66 3 2.32 3 3 C3.99 3.33 4.98 3.66 6 4 C5.01 5.32 4.02 6.64 3 8 C3 7.34 3 6.68 3 6 C2.34 6 1.68 6 1 6 C1 5.34 1 4.68 1 4 C0.34 4 -0.32 4 -1 4 C-0.67 2.68 -0.34 1.36 0 0 Z " fill="#339C21" transform="translate(67,177)"/>
<path d="M0 0 C0.66 0 1.32 0 2 0 C4.09350689 3.4019487 4.17942163 6.05272412 4 10 C3.34 10 2.68 10 2 10 C0.68373308 6.38026598 0 3.90432869 0 0 Z " fill="#20A11C" transform="translate(10,160)"/>
<path d="M0 0 C2.875 -0.125 2.875 -0.125 6 0 C8 2 8 2 8 5 C5.03 4.01 2.06 3.02 -1 2 C-0.67 1.34 -0.34 0.68 0 0 Z " fill="#3E962B" transform="translate(335,137)"/>
<path d="M0 0 C1.08667969 0.02707031 2.17335938 0.05414063 3.29296875 0.08203125 C4.54013672 0.13423828 4.54013672 0.13423828 5.8125 0.1875 C5.8125 0.5175 5.8125 0.8475 5.8125 1.1875 C4.25133181 1.52701619 2.68848662 1.85882544 1.125 2.1875 C-0.18017578 2.4659375 -0.18017578 2.4659375 -1.51171875 2.75 C-4.12462964 3.17722047 -6.54563038 3.26366201 -9.1875 3.1875 C-6.54246503 -0.34849411 -4.24021315 -0.13678107 0 0 Z " fill="#379322" transform="translate(271.1875,446.8125)"/>
<path d="M0 0 C1.32 0 2.64 0 4 0 C4 0.66 4 1.32 4 2 C4.66 2 5.32 2 6 2 C6 2.99 6 3.98 6 5 C3.03 4.505 3.03 4.505 0 4 C0 2.68 0 1.36 0 0 Z " fill="#1EA106" transform="translate(134,426)"/>
<path d="M0 0 C1.43791516 0.14168137 2.8753237 0.28851043 4.3125 0.4375 C5.11300781 0.51871094 5.91351563 0.59992188 6.73828125 0.68359375 C9 1 9 1 12 2 C12 2.66 12 3.32 12 4 C7.6822542 3.49202991 3.96697886 2.80317221 0 1 C0 0.67 0 0.34 0 0 Z " fill="#439124" transform="translate(129,274)"/>
<path d="M0 0 C2.0625 0.4375 2.0625 0.4375 4 1 C3.67 2.65 3.34 4.3 3 6 C1.68 6 0.36 6 -1 6 C-1.042721 4.33388095 -1.04063832 2.66617115 -1 1 C-0.67 0.67 -0.34 0.34 0 0 Z " fill="#20A201" transform="translate(387,262)"/>
<path d="M0 0 C0.99 0 1.98 0 3 0 C3.185625 0.9590625 3.185625 0.9590625 3.375 1.9375 C3.684375 2.9584375 3.684375 2.9584375 4 4 C4.66 4.33 5.32 4.66 6 5 C5.67 6.32 5.34 7.64 5 9 C2.5 6.75 2.5 6.75 0 4 C0 2.68 0 1.36 0 0 Z " fill="#18A10C" transform="translate(99,240)"/>
<path d="M0 0 C0.66 0 1.32 0 2 0 C2.95024979 3.69541586 2.95024979 6.30458414 2 10 C0.68 9.67 -0.64 9.34 -2 9 C-1.34 9 -0.68 9 0 9 C0 6.03 0 3.06 0 0 Z " fill="#25A103" transform="translate(450,176)"/>
<path d="M0 0 C1.98 0 3.96 0 6 0 C6 2.64 6 5.28 6 8 C5.67 8 5.34 8 5 8 C5 6.35 5 4.7 5 3 C3.35 3 1.7 3 0 3 C0 2.01 0 1.02 0 0 Z " fill="#12A408" transform="translate(175,168)"/>
<path d="M0 0 C0.33 0 0.66 0 1 0 C1.33 1.98 1.66 3.96 2 6 C-0.475 7.485 -0.475 7.485 -3 9 C-3 4.73012377 -2.36301527 3.40274199 0 0 Z " fill="#3E9A29" transform="translate(35,96)"/>
<path d="M0 0 C3.67033927 3.27708863 5.69281189 6.71522208 8 11 C7.01 11.495 7.01 11.495 6 12 C0 3.2 0 3.2 0 0 Z " fill="#3D9926" transform="translate(412,85)"/>
<path d="M0 0 C0.66 0 1.32 0 2 0 C2.185625 0.9590625 2.185625 0.9590625 2.375 1.9375 C2.684375 2.9584375 2.684375 2.9584375 3 4 C3.66 4.33 4.32 4.66 5 5 C4.01 5 3.02 5 2 5 C1.67 6.32 1.34 7.64 1 9 C1 8.01 1 7.02 1 6 C0.34 6 -0.32 6 -1 6 C-0.67 4.02 -0.34 2.04 0 0 Z " fill="#1CA10A" transform="translate(409,87)"/>
<path d="M0 0 C2.31 0.33 4.62 0.66 7 1 C6.34 2.65 5.68 4.3 5 6 C3.31237149 4.3545622 1.6459651 2.68711423 0 1 C0 0.67 0 0.34 0 0 Z " fill="#3B9923" transform="translate(103,252)"/>
<path d="M0 0 C2.74277578 3.19990508 4.6302836 6.00499382 6 10 C5.34 10 4.68 10 4 10 C1.3125 7.25 1.3125 7.25 -1 4 C-0.8125 1.625 -0.8125 1.625 0 0 Z " fill="#3C9A2B" transform="translate(420,96)"/>
<path d="M0 0 C-3.28491373 2.18994248 -4.83095639 2.35277339 -8.6875 2.625 C-10.17830078 2.73714844 -10.17830078 2.73714844 -11.69921875 2.8515625 C-12.83810547 2.92503906 -12.83810547 2.92503906 -14 3 C-9.2903051 -0.1397966 -5.55597581 -1.63411053 0 0 Z " fill="#499A32" transform="translate(160,5)"/>
<path d="M0 0 C2.13671875 0.390625 2.13671875 0.390625 4 1 C2.8803014 2.00593243 1.7540588 3.0045849 0.625 4 C-0.00148438 4.556875 -0.62796875 5.11375 -1.2734375 5.6875 C-3 7 -3 7 -5 7 C-3.86873442 3.60620325 -2.77333918 2.21867135 0 0 Z " fill="#3C9729" transform="translate(370,400)"/>
<path d="M0 0 C-0.33 1.32 -0.66 2.64 -1 4 C-2.65 4.33 -4.3 4.66 -6 5 C-5.6875 3.0625 -5.6875 3.0625 -5 1 C-2 0 -2 0 0 0 Z " fill="#0FA311" transform="translate(344,259)"/>
<path d="M0 0 C0.33 0 0.66 0 1 0 C1.33 3.3 1.66 6.6 2 10 C1.01 10.495 1.01 10.495 0 11 C-0.19406478 9.35492782 -0.38007935 7.70890406 -0.5625 6.0625 C-0.66691406 5.14597656 -0.77132813 4.22945312 -0.87890625 3.28515625 C-0.91886719 2.53105469 -0.95882813 1.77695313 -1 1 C-0.67 0.67 -0.34 0.34 0 0 Z " fill="#08A509" transform="translate(357,218)"/>
<path d="M0 0 C2.97903734 2.97903734 4 5.80285329 4 10 C3.34 10 2.68 10 2 10 C2 9.34 2 8.68 2 8 C1.01 7.67 0.02 7.34 -1 7 C-0.7525 6.1028125 -0.7525 6.1028125 -0.5 5.1875 C0.1114124 2.88655664 0.1114124 2.88655664 0 0 Z " fill="#3B962A" transform="translate(355,198)"/>
<path d="M0 0 C0.33 0.99 0.66 1.98 1 3 C1.66 3 2.32 3 3 3 C3.33 4.32 3.66 5.64 4 7 C3.34 7 2.68 7 2 7 C2 6.34 2 5.68 2 5 C0.35 5 -1.3 5 -3 5 C-2.625 3.0625 -2.625 3.0625 -2 1 C-1.34 0.67 -0.68 0.34 0 0 Z " fill="#31A01D" transform="translate(427,111)"/>
<path d="M0 0 C0.99 0.66 1.98 1.32 3 2 C3.1875 4.625 3.1875 4.625 3 7 C0 6 0 6 -1.1875 3.9375 C-1.5896875 2.9784375 -1.5896875 2.9784375 -2 2 C-1.34 1.34 -0.68 0.68 0 0 Z " fill="#339E25" transform="translate(46,81)"/>
<path d="M0 0 C0.33 0.99 0.66 1.98 1 3 C-2.47823115 4.15941038 -4.45895578 3.70820884 -8 3 C-8 2.34 -8 1.68 -8 1 C-5.36 0.67 -2.72 0.34 0 0 Z " fill="#24A202" transform="translate(177,433)"/>
<path d="M0 0 C0.66 0 1.32 0 2 0 C2 1.65 2 3.3 2 5 C2.66 5 3.32 5 4 5 C4.33 6.65 4.66 8.3 5 10 C4.67 9.34 4.34 8.68 4 8 C3.01 8 2.02 8 1 8 C0.67 5.36 0.34 2.72 0 0 Z " fill="#329E12" transform="translate(37,346)"/>
<path d="M0 0 C0.99 0.33 1.98 0.66 3 1 C1.25 5.875 1.25 5.875 -1 7 C-1.625 4.625 -1.625 4.625 -2 2 C-1.34 1.34 -0.68 0.68 0 0 Z " fill="#13A205" transform="translate(27,324)"/>
<path d="M0 0 C0 0.66 0 1.32 0 2 C-2.70879335 3.35439668 -5.00933268 3.06501451 -8 3 C-8 2.34 -8 1.68 -8 1 C-5.29120665 -0.35439668 -2.99066732 -0.06501451 0 0 Z " fill="#18A20B" transform="translate(354,302)"/>
<path d="M0 0 C1.9375 0.8125 1.9375 0.8125 4 2 C4.33 2.99 4.66 3.98 5 5 C4.01 5.495 4.01 5.495 3 6 C1.68 5.01 0.36 4.02 -1 3 C-0.67 2.01 -0.34 1.02 0 0 Z " fill="#12A304" transform="translate(88,291)"/>
<path d="M0 0 C0.66 0 1.32 0 2 0 C2.33 2.97 2.66 5.94 3 9 C2.01 9 1.02 9 0 9 C0 6.03 0 3.06 0 0 Z " fill="#1AA304" transform="translate(450,199)"/>
<path d="M0 0 C0.33 0 0.66 0 1 0 C0.38461538 6.52307692 0.38461538 6.52307692 -1.5625 8.9375 C-2.036875 9.288125 -2.51125 9.63875 -3 10 C-3 8.02 -3 6.04 -3 4 C-2.34 4 -1.68 4 -1 4 C-0.67 2.68 -0.34 1.36 0 0 Z " fill="#2F9E19" transform="translate(3,180)"/>
<path d="M0 0 C1.32 0 2.64 0 4 0 C5 2 5 2 5 5 C3.68 5 2.36 5 1 5 C0.34 3.68 -0.32 2.36 -1 1 C-0.67 0.67 -0.34 0.34 0 0 Z " fill="#1DA107" transform="translate(337,181)"/>
<path d="M0 0 C4 2 4 2 5.3125 4.4375 C6 7 6 7 5 10 C3.35 6.7 1.7 3.4 0 0 Z " fill="#479339" transform="translate(379,173)"/>
<path d="M0 0 C5.875 4.625 5.875 4.625 7 8 C6.34 8 5.68 8 5 8 C5 7.34 5 6.68 5 6 C3.35 5.67 1.7 5.34 0 5 C0 3.35 0 1.7 0 0 Z " fill="#3E972A" transform="translate(402,73)"/>
<path d="M0 0 C2.475 0.495 2.475 0.495 5 1 C5.33 2.32 5.66 3.64 6 5 C4.35 4.67 2.7 4.34 1 4 C0.67 2.68 0.34 1.36 0 0 Z " fill="#1EA203" transform="translate(391,67)"/>
<path d="M0 0 C0.99 0.495 0.99 0.495 2 1 C2 1.66 2 2.32 2 3 C3.32 3 4.64 3 6 3 C6 3.99 6 4.98 6 6 C4.35 5.67 2.7 5.34 1 5 C0.67 3.35 0.34 1.7 0 0 Z " fill="#1AA108" transform="translate(52,365)"/>
<path d="M0 0 C-1.96382007 1.50559539 -3.78263366 2.89131683 -6 4 C-6.66 3.67 -7.32 3.34 -8 3 C-8 2.01 -8 1.02 -8 0 C-4.71023192 -1.09658936 -3.28696233 -0.79953138 0 0 Z " fill="#369A20" transform="translate(120,306)"/>
<path d="M0 0 C2.97 0 5.94 0 9 0 C9.33 0.99 9.66 1.98 10 3 C8 4 8 4 6.0546875 3.44140625 C5.33539063 3.15136719 4.61609375 2.86132812 3.875 2.5625 C3.15054688 2.27503906 2.42609375 1.98757813 1.6796875 1.69140625 C0.84824219 1.34916016 0.84824219 1.34916016 0 1 C0 0.67 0 0.34 0 0 Z " fill="#24A10D" transform="translate(72,279)"/>
<path d="M0 0 C1.98 0 3.96 0 6 0 C5.67 1.32 5.34 2.64 5 4 C3.35 3.67 1.7 3.34 0 3 C0 2.01 0 1.02 0 0 Z " fill="#10A21A" transform="translate(119,263)"/>
<path d="M0 0 C2 3 2 3 1.6875 5.5625 C1 8 1 8 0 10 C-0.99 10 -1.98 10 -3 10 C-2.01 6.7 -1.02 3.4 0 0 Z " fill="#489831" transform="translate(389,250)"/>
<path d="M0 0 C0.33 0 0.66 0 1 0 C0.67 2.31 0.34 4.62 0 7 C0.66 7.33 1.32 7.66 2 8 C1.01 8.33 0.02 8.66 -1 9 C-1.33 9.66 -1.66 10.32 -2 11 C-2.19622241 6.78121808 -1.80230168 3.82989106 0 0 Z " fill="#2EA11B" transform="translate(11,149)"/>
<path d="M0 0 C3.93673644 1.31224548 6.22719294 2.91910327 9 6 C3.50847458 5.38983051 3.50847458 5.38983051 1.125 3.5625 C0 2 0 2 0 0 Z " fill="#3C9823" transform="translate(354,31)"/>
<path d="M0 0 C0.66 0 1.32 0 2 0 C2 0.66 2 1.32 2 2 C2.66 2 3.32 2 4 2 C4 2.66 4 3.32 4 4 C1.69 4 -0.62 4 -3 4 C-1.625 2 -1.625 2 0 0 Z " fill="#1F9B05" transform="translate(250,448)"/>
<path d="M0 0 C0.99 0.99 1.98 1.98 3 3 C-0.75 6 -0.75 6 -3 6 C-2.67 4.68 -2.34 3.36 -2 2 C-1.34 2 -0.68 2 0 2 C0 1.34 0 0.68 0 0 Z " fill="#389B15" transform="translate(362,405)"/>
<path d="M0 0 C0.99 0.33 1.98 0.66 3 1 C1.37660195 2.70884005 -0.29319053 4.37446717 -2 6 C-2.66 6 -3.32 6 -4 6 C-4 5.01 -4 4.02 -4 3 C-2.1875 1.25 -2.1875 1.25 0 0 Z " fill="#3E9826" transform="translate(379,393)"/>
<path d="M0 0 C1.32 0.33 2.64 0.66 4 1 C4 2.32 4 3.64 4 5 C3.01 5.33 2.02 5.66 1 6 C0.67 4.02 0.34 2.04 0 0 Z " fill="#15A20E" transform="translate(164,274)"/>
<path d="M0 0 C0.99 0.66 1.98 1.32 3 2 C2.01 3.485 2.01 3.485 1 5 C-0.32 5 -1.64 5 -3 5 C-2.625 3.0625 -2.625 3.0625 -2 1 C-1.34 0.67 -0.68 0.34 0 0 Z " fill="#17A205" transform="translate(327,268)"/>
<path d="M0 0 C1.98 0 3.96 0 6 0 C3.31158141 2.25245881 1.35358125 3.88213958 -2 5 C-2 4.34 -2 3.68 -2 3 C-1.34 3 -0.68 3 0 3 C0 2.01 0 1.02 0 0 Z " fill="#3D922D" transform="translate(332,268)"/>
<path d="M0 0 C0.99 0.33 1.98 0.66 3 1 C-0.75 6.875 -0.75 6.875 -3 8 C-3 6.68 -3 5.36 -3 4 C-2.01 4 -1.02 4 0 4 C0 2.68 0 1.36 0 0 Z " fill="#419524" transform="translate(348,254)"/>
<path d="M0 0 C0.99 0 1.98 0 3 0 C3.33 0.99 3.66 1.98 4 3 C3.195625 3.12375 2.39125 3.2475 1.5625 3.375 C0.2940625 3.684375 0.2940625 3.684375 -1 4 C-1.33 4.66 -1.66 5.32 -2 6 C-1.125 1.125 -1.125 1.125 0 0 Z " fill="#2C9F1C" transform="translate(340,256)"/>
<path d="M0 0 C2.18975773 3.28463659 2.99806563 6.20696275 4 10 C3.01 9.67 2.02 9.34 1 9 C0.67 6.03 0.34 3.06 0 0 Z " fill="#3C9625" transform="translate(66,250)"/>
<path d="M0 0 C0.33 0.99 0.66 1.98 1 3 C-2 4 -2 4 -4.1875 3.0625 C-4.785625 2.711875 -5.38375 2.36125 -6 2 C-6 1.34 -6 0.68 -6 0 C-3 -1 -3 -1 0 0 Z " fill="#1AA209" transform="translate(330,130)"/>
<path d="M0 0 C2.475 0.99 2.475 0.99 5 2 C4.67 2.99 4.34 3.98 4 5 C3.01 5.33 2.02 5.66 1 6 C0.34 4.35 -0.32 2.7 -1 1 C-0.67 0.67 -0.34 0.34 0 0 Z " fill="#20A102" transform="translate(94,38)"/>
<path d="M0 0 C0.9075 0.37125 1.815 0.7425 2.75 1.125 C2.42 1.785 2.09 2.445 1.75 3.125 C-2.705 2.135 -2.705 2.135 -7.25 1.125 C-3.25 -0.875 -3.25 -0.875 0 0 Z " fill="#3F9620" transform="translate(170.25,442.875)"/>
<path d="M0 0 C-1.3125 1.5 -1.3125 1.5 -3 3 C-3.99 3 -4.98 3 -6 3 C-6 2.01 -6 1.02 -6 0 C-3.50907189 -1.24546405 -2.58919267 -0.7767578 0 0 Z " fill="#349B10" transform="translate(314,435)"/>
<path d="M0 0 C-0.33 1.65 -0.66 3.3 -1 5 C-3.475 4.01 -3.475 4.01 -6 3 C-2.25 0 -2.25 0 0 0 Z " fill="#389E1B" transform="translate(118,419)"/>
<path d="M0 0 C3.465 1.485 3.465 1.485 7 3 C6.34 3.66 5.68 4.32 5 5 C3.02 4.34 1.04 3.68 -1 3 C-0.67 2.01 -0.34 1.02 0 0 Z " fill="#40952A" transform="translate(199,369)"/>
<path d="M0 0 C1.32 0.33 2.64 0.66 4 1 C4 1.66 4 2.32 4 3 C2.02 3.33 0.04 3.66 -2 4 C-1.34 2.68 -0.68 1.36 0 0 Z " fill="#299F1F" transform="translate(349,306)"/>
<path d="M0 0 C3.96 1.98 3.96 1.98 8 4 C7.34 4.66 6.68 5.32 6 6 C5.34 5.67 4.68 5.34 4 5 C4 4.34 4 3.68 4 3 C2.68 3 1.36 3 0 3 C0 2.01 0 1.02 0 0 Z " fill="#3A9623" transform="translate(103,298)"/>
<path d="M0 0 C0.99 0 1.98 0 3 0 C2.67 1.98 2.34 3.96 2 6 C0.35 6.33 -1.3 6.66 -3 7 C-2.01 4.69 -1.02 2.38 0 0 Z " fill="#329E19" transform="translate(376,276)"/>
<path d="M0 0 C0.99 0.33 1.98 0.66 3 1 C2.34 1.66 1.68 2.32 1 3 C0.67 4.010625 0.34 5.02125 0 6.0625 C-1 9 -1 9 -3 10 C-2.69201674 8.51988629 -2.378482 7.04092675 -2.0625 5.5625 C-1.88847656 4.73878906 -1.71445312 3.91507812 -1.53515625 3.06640625 C-1 1 -1 1 0 0 Z " fill="#349A23" transform="translate(385,261)"/>
<path d="M0 0 C1.65 0 3.3 0 5 0 C4.67 1.32 4.34 2.64 4 4 C2.68 3.67 1.36 3.34 0 3 C0 2.01 0 1.02 0 0 Z " fill="#2C9F20" transform="translate(123,259)"/>
<path d="M0 0 C1.98 0.99 1.98 0.99 4 2 C4 3.32 4 4.64 4 6 C2.68 5.67 1.36 5.34 0 5 C0 3.35 0 1.7 0 0 Z " fill="#1BA004" transform="translate(352,199)"/>
<path d="M0 0 C1.32 1.32 2.64 2.64 4 4 C3.67 4.66 3.34 5.32 3 6 C2.34 6 1.68 6 1 6 C1 5.34 1 4.68 1 4 C0.01 3.67 -0.98 3.34 -2 3 C-1.34 2.67 -0.68 2.34 0 2 C0 1.34 0 0.68 0 0 Z " fill="#34961D" transform="translate(347,186)"/>
<path d="M0 0 C0.66 0 1.32 0 2 0 C1.67 2.31 1.34 4.62 1 7 C0.01 6.67 -0.98 6.34 -2 6 C-1.34 4.02 -0.68 2.04 0 0 Z " fill="#24A202" transform="translate(388,176)"/>
<path d="M0 0 C1.98 0.495 1.98 0.495 4 1 C4 2.32 4 3.64 4 5 C2.35 5 0.7 5 -1 5 C-0.34 4.67 0.32 4.34 1 4 C0.67 2.68 0.34 1.36 0 0 Z " fill="#1DA000" transform="translate(214,128)"/>
<path d="M0 0 C0.99 0 1.98 0 3 0 C2.67 1.32 2.34 2.64 2 4 C0.68 4.33 -0.64 4.66 -2 5 C-2 4.01 -2 3.02 -2 2 C-1.34 2 -0.68 2 0 2 C0 1.34 0 0.68 0 0 Z " fill="#2D9F1D" transform="translate(58,72)"/>
<path d="M0 0 C0.33 0.66 0.66 1.32 1 2 C1.99 2.33 2.98 2.66 4 3 C1.50935112 3.68707555 -0.37886292 4 -3 4 C-3 3.01 -3 2.02 -3 1 C-2.01 0.67 -1.02 0.34 0 0 Z " fill="#17A106" transform="translate(369,44)"/>
<path d="M0 0 C-0.33 0.99 -0.66 1.98 -1 3 C-2.98 3 -4.96 3 -7 3 C-7 2.34 -7 1.68 -7 1 C-4 0 -4 0 0 0 Z " fill="#18A20E" transform="translate(125,22)"/>
<path d="M0 0 C0 0.66 0 1.32 0 2 C-2.5 3.625 -2.5 3.625 -5 5 C-5.99 4.34 -6.98 3.68 -8 3 C-2.25 0 -2.25 0 0 0 Z " fill="#409E2A" transform="translate(130,15)"/>
</svg>
