<?xml version="1.0" encoding="UTF-8"?>
<svg version="1.1" xmlns="http://www.w3.org/2000/svg" width="300" height="168">
<path d="M0 0 C1.71748444 -0.01441132 1.71748444 -0.01441132 3.46966553 -0.02911377 C4.71749817 -0.03336365 5.96533081 -0.03761353 7.25097656 -0.04199219 C8.52507385 -0.04769226 9.79917114 -0.05339233 11.11187744 -0.05926514 C13.81550675 -0.06873443 16.51902454 -0.0756209 19.22265625 -0.07910156 C22.68060225 -0.08457364 26.13815193 -0.10856866 29.59597397 -0.13707352 C32.89761144 -0.16023191 36.19926924 -0.16215258 39.50097656 -0.16699219 C40.74071228 -0.17933899 41.980448 -0.19168579 43.25775146 -0.20440674 C44.99414886 -0.19990509 44.99414886 -0.19990509 46.765625 -0.1953125 C48.28999176 -0.20078094 48.28999176 -0.20078094 49.84515381 -0.20635986 C54.38057632 0.38965862 56.92020909 2.33954694 59.89160156 5.72363281 C62.83418485 9.82223097 63.1782133 13.18789193 62.64160156 18.16113281 C60.70654255 22.41826264 58.014518 26.08448977 53.6652832 28.05783081 C51.14297193 28.98483778 48.60526371 29.83193559 46.04785156 30.65722656 C44.63409241 31.13036034 44.63409241 31.13036034 43.19177246 31.61305237 C40.17866 32.61952262 37.16057589 33.60989944 34.14160156 34.59863281 C30.19162203 35.90367382 26.24398851 37.21561445 22.29785156 38.53222656 C21.35659424 38.84549896 20.41533691 39.15877136 19.44555664 39.48153687 C12.69172087 41.75115688 6.16379627 44.28271525 -0.35839844 47.16113281 C-0.68839844 52.44113281 -1.01839844 57.72113281 -1.35839844 63.16113281 C5.52875912 63.09225743 12.41530951 63.00428949 19.30200195 62.89868164 C21.64438134 62.86544375 23.9868406 62.83740831 26.3293457 62.81469727 C29.69809989 62.78113113 33.06612287 62.72881262 36.43457031 62.67285156 C38.00358345 62.66326668 38.00358345 62.66326668 39.60429382 62.65348816 C46.63314934 62.56803455 46.63314934 62.56803455 52.64160156 59.16113281 C56.28609302 55.02414251 57.28616584 51.78013466 57.03222656 46.41113281 C56.36998989 42.59664958 54.93878045 40.28784853 52.64160156 37.16113281 C50.55825521 35.90948611 50.55825521 35.90948611 48.64160156 35.16113281 C48.31160156 34.17113281 47.98160156 33.18113281 47.64160156 32.16113281 C48.96160156 31.50113281 50.28160156 30.84113281 51.64160156 30.16113281 C57.5192454 34.75435092 61.84035198 38.55238577 62.95019531 46.32128906 C63.2746009 52.05245441 61.97207105 56.48212967 58.64160156 61.16113281 C55.17084817 64.81748799 51.22614886 67.90799762 46.11726379 68.40837097 C45.16985825 68.40694595 44.2224527 68.40552094 43.24633789 68.40405273 C42.1687471 68.40712936 41.09115631 68.41020599 39.98091125 68.41337585 C38.82350937 68.40619034 37.66610748 68.39900482 36.47363281 68.39160156 C34.68780037 68.39091423 34.68780037 68.39091423 32.8658905 68.39021301 C30.35174563 68.38719332 27.83760258 68.3793155 25.32348633 68.36694336 C21.45875486 68.34865483 17.59426247 68.34643392 13.72949219 68.34667969 C11.29003697 68.34176573 8.8505834 68.33593794 6.41113281 68.32910156 C4.66592094 68.32743233 4.66592094 68.32743233 2.88545227 68.32572937 C1.81731796 68.31934952 0.74918365 68.31296967 -0.35131836 68.30639648 C-1.29633713 68.30258469 -2.2413559 68.29877289 -3.2150116 68.29484558 C-5.35839844 68.16113281 -5.35839844 68.16113281 -6.35839844 67.16113281 C-6.6657444 63.94141886 -6.63687135 60.70620566 -6.67089844 57.47363281 C-6.69990234 56.57451172 -6.72890625 55.67539063 -6.75878906 54.74902344 C-6.77135742 53.4312793 -6.77135742 53.4312793 -6.78417969 52.08691406 C-6.80605347 50.88675659 -6.80605347 50.88675659 -6.82836914 49.66235352 C-6.12577197 45.92307661 -4.88149716 44.02974989 -2.35839844 41.16113281 C0.69851881 39.51237845 3.8920943 38.50308638 7.20019531 37.46972656 C8.14032974 37.15713394 9.08046417 36.84454132 10.04908752 36.5224762 C13.05299816 35.52803008 16.06527665 34.56256481 19.07910156 33.59863281 C23.01729638 32.31173103 26.95228163 31.01510505 30.88769531 29.71972656 C31.83099701 29.41046234 32.77429871 29.10119812 33.7461853 28.78256226 C46.66729038 25.54692553 46.66729038 25.54692553 56.64160156 18.16113281 C57.39164012 12.67483123 57.39164012 12.67483123 54.95098877 8.0680542 C52.14425394 5.75045988 50.82832552 5.6488592 47.23046875 5.61523438 C46.14965027 5.59551575 45.06883179 5.57579712 43.95526123 5.55548096 C42.79472229 5.55425232 41.63418335 5.55302368 40.43847656 5.55175781 C39.24554993 5.53522156 38.05262329 5.5186853 36.82354736 5.50164795 C33.01284696 5.45305751 29.20254597 5.43177143 25.39160156 5.41113281 C22.80824802 5.38298254 20.22491316 5.35305646 17.64160156 5.32128906 C11.30808249 5.24395175 4.97583689 5.20353064 -1.35839844 5.16113281 C-1.35839844 16.05113281 -1.35839844 26.94113281 -1.35839844 38.16113281 C-3.33839844 38.65613281 -3.33839844 38.65613281 -5.35839844 39.16113281 C-7.1740528 37.34547845 -6.48701743 34.84843319 -6.49734497 32.43225098 C-6.49532074 31.63121948 -6.49329651 30.83018799 -6.49121094 30.00488281 C-6.49216766 29.18741577 -6.49312439 28.36994873 -6.49411011 27.52770996 C-6.49479189 25.79597904 -6.49293773 24.06424557 -6.48876953 22.33251953 C-6.48342123 19.67246799 -6.48871456 17.01258531 -6.49511719 14.35253906 C-6.49445641 12.67415327 -6.49317524 10.99576758 -6.49121094 9.31738281 C-6.49323517 8.51635132 -6.4952594 7.71531982 -6.49734497 6.89001465 C-6.46980115 0.44599296 -6.37013835 0.04293451 0 0 Z " fill="#1C5E99" transform="translate(61.3583984375,49.8388671875)"/>
<path d="M0 0 C2.56428515 -0.13559675 5.12135216 -0.23433188 7.6875 -0.3125 C8.40873047 -0.35439453 9.12996094 -0.39628906 9.87304688 -0.43945312 C14.06870031 -0.5352443 15.56988461 -0.32979208 19.03125 2.32421875 C21 5 21 5 20.8125 8.125 C20.544375 9.07375 20.27625 10.0225 20 11 C19.7226499 14.18490007 19.7226499 14.18490007 22 17 C21.67679558 23.03314917 21.67679558 23.03314917 19.6875 25.875 C15.88796267 28.40802489 11.75630599 28.13495253 7.3125 28.125 C6.15363281 28.12757812 4.99476563 28.13015625 3.80078125 28.1328125 C1 28 1 28 0 27 C-0.08758003 25.00035018 -0.10696576 22.9976389 -0.09765625 20.99609375 C-0.09443359 19.78115234 -0.09121094 18.56621094 -0.08789062 17.31445312 C-0.07951172 16.03505859 -0.07113281 14.75566406 -0.0625 13.4375 C-0.05798828 12.15423828 -0.05347656 10.87097656 -0.04882812 9.54882812 C-0.03699545 6.36583978 -0.02051068 3.18294238 0 0 Z M6 4 C6 6.31 6 8.62 6 11 C8.64 11 11.28 11 14 11 C14.67958603 8.60280568 14.67958603 8.60280568 15 6 C13.04366025 3.58878141 13.04366025 3.58878141 9.375 3.875 C7.704375 3.936875 7.704375 3.936875 6 4 Z M6 15 C6 17.64 6 20.28 6 23 C10.0100934 23.17864631 10.0100934 23.17864631 14 23 C14.66 22.34 15.32 21.68 16 21 C15.83492354 18.42459787 15.83492354 18.42459787 15 16 C12.04335481 14.5216774 9.25770263 14.93967217 6 15 Z " fill="#010101" transform="translate(138,82)"/>
<path d="M0 0 C1.98 0 3.96 0 6 0 C6.33 4.95 6.66 9.9 7 15 C7.70125 14.01 8.4025 13.02 9.125 12 C11.32959535 9.30900395 11.64418661 9.04028076 15.3125 8.625 C16.199375 8.74875 17.08625 8.8725 18 9 C17.566875 9.54269531 17.13375 10.08539063 16.6875 10.64453125 C16.130625 11.35996094 15.57375 12.07539062 15 12.8125 C14.443125 13.52019531 13.88625 14.22789063 13.3125 14.95703125 C11.72974317 17.01595999 11.72974317 17.01595999 12 20 C13.31239915 22.03813685 13.31239915 22.03813685 15 24.0625 C18 27.79166667 18 27.79166667 18 30 C15.875 30.4375 15.875 30.4375 13 30 C10.723853 27.87310854 8.8541278 25.4976567 7 23 C6.34 25.31 5.68 27.62 5 30 C3.35 29.67 1.7 29.34 0 29 C0 19.43 0 9.86 0 0 Z " fill="#010101" transform="translate(209,80)"/>
<path d="M0 0 C2.87029869 1.79393668 4.49131638 2.98263276 6 6 C6.42071592 9.05920574 6.48514117 11.9467746 6 15 C3.81840855 17.75569447 2.12822506 19.43588747 -1 21 C-5.23390162 21.40710593 -7.51588352 21.25575965 -11.3125 19.25 C-14.88284442 16.26087444 -15.74634032 14.66690646 -16.4375 10.125 C-15.82244681 5.7317629 -14.08098355 4.15434031 -11 1 C-7.54260443 -0.72869779 -3.78024432 -0.48966895 0 0 Z M-8.8125 5.5625 C-10.4848094 8.99513508 -9.8265749 11.34929419 -9 15 C-7.81575674 16.41577477 -7.81575674 16.41577477 -4.4375 16.0625 C-2.7359375 16.0315625 -2.7359375 16.0315625 -1 16 C0.72217143 13.36609075 1.00455315 12.07588583 0.8125 8.875 C0.25088039 5.69792816 0.25088039 5.69792816 -3 4 C-6.89389731 3.56470692 -6.89389731 3.56470692 -8.8125 5.5625 Z " fill="#020202" transform="translate(177,89)"/>
<path d="M0 0 C3.73004118 1.98406446 4.75882115 3.46739671 6.5 7.3125 C7.12392742 11.91396471 6.36380554 14.03490684 4 18 C1.12121032 20.47895778 -0.66317695 20.95713161 -4.4375 21.4375 C-9.29226908 20.84130029 -12.32992093 19.03313974 -15.4375 15.25 C-16.33428092 11.66287632 -16.15417054 8.46938169 -15 5 C-10.71221849 -0.14533781 -6.57840322 -1.28655118 0 0 Z M-8.875 5.5625 C-10.45900384 8.99450831 -9.81931404 11.38136298 -9 15 C-7.81575674 16.41577477 -7.81575674 16.41577477 -4.4375 16.0625 C-2.7359375 16.0315625 -2.7359375 16.0315625 -1 16 C0.73745313 13.34271875 1.00831972 12.10399645 0.75 8.875 C0.23116835 5.89402202 0.23116835 5.89402202 -2 4 C-5.11219537 3.52120071 -6.42410993 3.52009161 -8.875 5.5625 Z " fill="#010101" transform="translate(200,89)"/>
<path d="M0 0 C3.04851754 0.52276023 4.39232171 1.90606308 6.1640625 4.37109375 C5.5040625 5.03109375 4.8440625 5.69109375 4.1640625 6.37109375 C2 6.12890625 2 6.12890625 -0.4609375 5.49609375 C-1.27820313 5.29242188 -2.09546875 5.08875 -2.9375 4.87890625 C-3.56398437 4.71132812 -4.19046875 4.54375 -4.8359375 4.37109375 C-4.8359375 5.36109375 -4.8359375 6.35109375 -4.8359375 7.37109375 C-4.20945313 7.49226563 -3.58296875 7.6134375 -2.9375 7.73828125 C-2.12023437 7.90585938 -1.30296875 8.0734375 -0.4609375 8.24609375 C0.35117188 8.40851563 1.16328125 8.5709375 2 8.73828125 C4.1640625 9.37109375 4.1640625 9.37109375 6.1640625 11.37109375 C6.72385894 16.63318026 6.72385894 16.63318026 4.7890625 19.18359375 C1.87027232 21.31655581 0.27630787 21.47082236 -3.2734375 21.12109375 C-4.44712891 21.02054688 -4.44712891 21.02054688 -5.64453125 20.91796875 C-8.22606712 20.2737352 -9.22587506 19.46262181 -10.8359375 17.37109375 C-10.8359375 16.71109375 -10.8359375 16.05109375 -10.8359375 15.37109375 C-9.1859375 15.04109375 -7.5359375 14.71109375 -5.8359375 14.37109375 C-5.8359375 15.03109375 -5.8359375 15.69109375 -5.8359375 16.37109375 C-3.5259375 16.37109375 -1.2159375 16.37109375 1.1640625 16.37109375 C-1.52424841 13.05023909 -4.95785162 11.95105467 -8.8359375 10.37109375 C-9.8359375 9.37109375 -9.8359375 9.37109375 -10.0859375 6.49609375 C-9.8359375 3.37109375 -9.8359375 3.37109375 -8.59765625 1.703125 C-5.81529832 -0.40060905 -3.38006437 -0.09358484 0 0 Z " fill="#010101" transform="translate(238.8359375,88.62890625)"/>
<path d="M0 0 C18.48 0 36.96 0 56 0 C56.495 0.99 56.495 0.99 57 2 C56.02947189 2.0154612 56.02947189 2.0154612 55.03933716 2.03123474 C48.32380778 2.1391575 41.60841646 2.2537668 34.89306641 2.37231445 C32.38463216 2.41570903 29.87616751 2.4573807 27.36767578 2.49731445 C23.76846132 2.55490757 20.16940058 2.61863343 16.5703125 2.68359375 C14.87964157 2.70866249 14.87964157 2.70866249 13.15481567 2.73423767 C11.59342361 2.7641555 11.59342361 2.7641555 10.00048828 2.79467773 C9.08115509 2.81022202 8.1618219 2.8257663 7.21463013 2.84178162 C4.95924846 2.8610678 4.95924846 2.8610678 3 4 C2.67 14.56 2.34 25.12 2 36 C1.34 36 0.68 36 0 36 C0 24.12 0 12.24 0 0 Z " fill="#196BB6" transform="translate(57,51)"/>
<path d="M0 0 C2.5 1.5 2.5 1.5 4 4 C4.79669284 8.04985528 4.64099302 10.97441116 2.4375 14.5 C-0.99136114 16.61006839 -3.04220351 16.62491523 -7 16 C-9.9375 13.9375 -9.9375 13.9375 -12 11 C-12.62491523 7.04220351 -12.61006839 4.99136114 -10.5 1.5625 C-6.97441116 -0.64099302 -4.04985528 -0.79669284 0 0 Z M-7 5 C-7.042721 6.66611905 -7.04063832 8.33382885 -7 10 C-5.93354885 11.29633621 -5.93354885 11.29633621 -3.4375 11.0625 C-2.633125 11.041875 -1.82875 11.02125 -1 11 C-0.22757731 9.16299211 -0.22757731 9.16299211 0 7 C-1.22954016 5.18700508 -1.22954016 5.18700508 -3 4 C-5.0745356 3.8509288 -5.0745356 3.8509288 -7 5 Z " fill="#1C5B97" transform="translate(102,90)"/>
<path d="M0 0 C1.90625 0.41015625 1.90625 0.41015625 4.40625 1.91015625 C6.52522146 5.44177535 6.70466448 8.39339062 5.90625 12.41015625 C4.34375 14.91015625 4.34375 14.91015625 1.90625 16.41015625 C-1.53125 16.97265625 -1.53125 16.97265625 -5.09375 16.41015625 C-8.48052089 13.96015178 -9.88073584 12.54623179 -10.65625 8.41015625 C-9.4436499 1.94295573 -6.36945565 -0.4634492 0 0 Z M-3.09375 4.41015625 C-3.75375 5.07015625 -4.41375 5.73015625 -5.09375 6.41015625 C-4.77333603 9.01296193 -4.77333603 9.01296193 -4.09375 11.41015625 C-3.10375 11.74015625 -2.11375 12.07015625 -1.09375 12.41015625 C0.55180699 11.18206534 0.55180699 11.18206534 1.90625 9.41015625 C1.67867269 7.24716414 1.67867269 7.24716414 0.90625 5.41015625 C-0.98554203 4.72867395 -0.98554203 4.72867395 -3.09375 4.41015625 Z " fill="#1C5D9A" transform="translate(80.09375,61.58984375)"/>
<path d="M0 0 C1.32 0 2.64 0 4 0 C4 1.65 4 3.3 4 5 C4.94875 4.95875 5.8975 4.9175 6.875 4.875 C10 5 10 5 12 7 C12.1953125 9.3828125 12.1953125 9.3828125 12.125 12.125 C12.10695312 13.03507812 12.08890625 13.94515625 12.0703125 14.8828125 C12.04710937 15.58148438 12.02390625 16.28015625 12 17 C10.68 17 9.36 17 8 17 C8 14.03 8 11.06 8 8 C6.68 8 5.36 8 4 8 C4 10.97 4 13.94 4 17 C2.68 17 1.36 17 0 17 C0 11.39 0 5.78 0 0 Z " fill="#020202" transform="translate(167,58)"/>
<path d="M0 0 C3.63 0 7.26 0 11 0 C11 4.38206967 10.43228025 5.30426964 8 8.75 C7.443125 9.54921875 6.88625 10.3484375 6.3125 11.171875 C5.879375 11.77515625 5.44625 12.3784375 5 13 C7.31 13.33 9.62 13.66 12 14 C12 14.99 12 15.98 12 17 C5.565 17.495 5.565 17.495 -1 18 C-1.33 17.34 -1.66 16.68 -2 16 C0.64 12.04 3.28 8.08 6 4 C3.69 4 1.38 4 -1 4 C-0.67 2.68 -0.34 1.36 0 0 Z " fill="#020202" transform="translate(140,58)"/>
<path d="M0 0 C3.625 0.375 3.625 0.375 6.125 2 C7.625 4.375 7.625 4.375 7.6875 7.4375 C6.625 10.375 6.625 10.375 4.375 12.3125 C1.17583641 13.54854048 -0.17962419 13.55224372 -3.375 12.375 C-5.25 11.25 -5.25 11.25 -6.375 9.375 C-5.91617647 0.65735294 -5.91617647 0.65735294 0 0 Z M-1.375 3.375 C-2.67133621 4.44145115 -2.67133621 4.44145115 -2.4375 6.9375 C-2.416875 7.741875 -2.39625 8.54625 -2.375 9.375 C-0.48320797 10.0564823 -0.48320797 10.0564823 1.625 10.375 C2.285 9.715 2.945 9.055 3.625 8.375 C3.30458603 5.77219432 3.30458603 5.77219432 2.625 3.375 C1.305 3.375 -0.015 3.375 -1.375 3.375 Z " fill="#020202" transform="translate(186.375,62.625)"/>
<path d="M0 0 C3.625 0.375 3.625 0.375 6.125 2 C7.625 4.375 7.625 4.375 7.6875 7.4375 C6.625 10.375 6.625 10.375 4.375 12.3125 C1.17583641 13.54854048 -0.17962419 13.55224372 -3.375 12.375 C-5.25 11.25 -5.25 11.25 -6.375 9.375 C-5.91617647 0.65735294 -5.91617647 0.65735294 0 0 Z M-1.375 3.375 C-2.67133621 4.44145115 -2.67133621 4.44145115 -2.4375 6.9375 C-2.416875 7.741875 -2.39625 8.54625 -2.375 9.375 C-0.48320797 10.0564823 -0.48320797 10.0564823 1.625 10.375 C2.285 9.715 2.945 9.055 3.625 8.375 C3.30458603 5.77219432 3.30458603 5.77219432 2.625 3.375 C1.305 3.375 -0.015 3.375 -1.375 3.375 Z " fill="#020202" transform="translate(158.375,62.625)"/>
<path d="M0 0 C0.66 0.33 1.32 0.66 2 1 C0.98873754 3.70046624 0.3698977 4.79966602 -2.20703125 6.1953125 C-3.49673828 6.65550781 -3.49673828 6.65550781 -4.8125 7.125 C-5.66457031 7.43695313 -6.51664063 7.74890625 -7.39453125 8.0703125 C-8.68423828 8.53050781 -8.68423828 8.53050781 -10 9 C-10.84949219 9.36867188 -11.69898437 9.73734375 -12.57421875 10.1171875 C-15 11 -15 11 -19 11 C-19 10.34 -19 9.68 -19 9 C-18.030625 8.71125 -17.06125 8.4225 -16.0625 8.125 C-12.89335797 7.35785318 -12.89335797 7.35785318 -12 5 C-10.19430974 4.24286722 -8.35439275 3.5659862 -6.5 2.9375 C-2.9728355 1.94590766 -2.9728355 1.94590766 0 0 Z " fill="#1B64A6" transform="translate(117,70)"/>
<path d="M0 0 C3.03616654 3.55964352 3.31924758 6.42411796 3 11 C1 9 1 9 0 6 C-1.87387216 5.19787372 -1.87387216 5.19787372 -4.0625 4.8125 C-4.79597656 4.65394531 -5.52945313 4.49539062 -6.28515625 4.33203125 C-6.85105469 4.22246094 -7.41695313 4.11289063 -8 4 C-7.67 3.01 -7.34 2.02 -7 1 C-4.39722303 -0.30138849 -2.88185107 -0.4217343 0 0 Z " fill="#1764AA" transform="translate(102,90)"/>
<path d="M0 0 C-2.64738916 1.4606285 -3.89448334 2 -7 2 C-7 2.66 -7 3.32 -7 4 C-4.36 3.67 -1.72 3.34 1 3 C-2.68734758 5.45823172 -5.69699971 6.01242616 -10 7 C-10 6.34 -10 5.68 -10 5 C-12.31 5.33 -14.62 5.66 -17 6 C-17 5.34 -17 4.68 -17 4 C-14.54453034 3.13670227 -12.08621957 2.28410564 -9.625 1.4375 C-8.57699219 1.0672168 -8.57699219 1.0672168 -7.5078125 0.68945312 C-2.2265625 -1.11328125 -2.2265625 -1.11328125 0 0 Z " fill="#1D5992" transform="translate(105,77)"/>
<path d="M0 0 C0.99 0.33 1.98 0.66 3 1 C1.515 2.485 1.515 2.485 0 4 C0.99 4.33 1.98 4.66 3 5 C2.34 5 1.68 5 1 5 C1 6.65 1 8.3 1 10 C0 10 -1 10 -2 10 C-2.99 10.495 -2.99 10.495 -4 11 C-4.49230769 4.6 -4.49230769 4.6 -2 1.5625 C-1.34 1.046875 -0.68 0.53125 0 0 Z " fill="#185594" transform="translate(94,90)"/>
<path d="M0 0 C1.485 0.99 1.485 0.99 3 2 C2.25 8.75 2.25 8.75 0 11 C-1.16461426 7.50615721 -1.13568319 4.66344611 -1 1 C-0.67 0.67 -0.34 0.34 0 0 Z " fill="#1963A4" transform="translate(121,92)"/>
<path d="M0 0 C0.99 0.33 1.98 0.66 3 1 C1.35 2.65 -0.3 4.3 -2 6 C-1.01 6 -0.02 6 1 6 C1 7.32 1 8.64 1 10 C0.34 10 -0.32 10 -1 10 C-1 9.34 -1 8.68 -1 8 C-1.99 8 -2.98 8 -4 8 C-3.50168276 4.31245243 -2.89932357 2.39509338 0 0 Z " fill="#1E5B90" transform="translate(74,62)"/>
<path d="M0 0 C3.4375 1.1875 3.4375 1.1875 7 3 C7.9375 5.6875 7.9375 5.6875 8 8 C7.01 6.68 6.02 5.36 5 4 C4.34 4.66 3.68 5.32 3 6 C1.68 5.01 0.36 4.02 -1 3 C-0.67 2.01 -0.34 1.02 0 0 Z " fill="#21629E" transform="translate(114,52)"/>
<path d="M0 0 C0.99 0 1.98 0 3 0 C3 0.66 3 1.32 3 2 C3.66 2 4.32 2 5 2 C5.33 2.66 5.66 3.32 6 4 C7.98 4 9.96 4 12 4 C12 4.66 12 5.32 12 6 C8.72199032 7.03023161 7.38596452 7.17153978 4.1875 5.75 C3.465625 5.1725 2.74375 4.595 2 4 C2 3.01 2 2.02 2 1 C1.34 0.67 0.68 0.34 0 0 Z " fill="#1D6CB3" transform="translate(70,70)"/>
<path d="M0 0 C0.8971875 0.309375 0.8971875 0.309375 1.8125 0.625 C1.8125 1.285 1.8125 1.945 1.8125 2.625 C0.1625 2.625 -1.4875 2.625 -3.1875 2.625 C-3.1875 3.615 -3.1875 4.605 -3.1875 5.625 C-4.5075 5.625 -5.8275 5.625 -7.1875 5.625 C-5.69046729 2.17030914 -4.27938051 -0.73360809 0 0 Z " fill="#1E6AAF" transform="translate(79.1875,62.375)"/>
<path d="M0 0 C1.32 0.33 2.64 0.66 4 1 C4 4 4 4 2 7 C2 6.34 2 5.68 2 5 C0.35 5 -1.3 5 -3 5 C-3 4.34 -3 3.68 -3 3 C-1.35 3 0.3 3 2 3 C2 2.34 2 1.68 2 1 C1.34 0.67 0.68 0.34 0 0 Z " fill="#1F5891" transform="translate(79,62)"/>
<path d="M0 0 C0.33 1.32 0.66 2.64 1 4 C1.66 4 2.32 4 3 4 C3.33 4.99 3.66 5.98 4 7 C3.01 7 2.02 7 1 7 C0.34 6.34 -0.32 5.68 -1 5 C-0.625 2.375 -0.625 2.375 0 0 Z " fill="#1E69B3" transform="translate(92,96)"/>
</svg>
