<svg version="1.1" id="Layer_1" xmlns="http://www.w3.org/2000/svg" xmlns:xlink="http://www.w3.org/1999/xlink" x="0px" y="0px"
	 width="100%" viewBox="0 0 884 884" enable-background="new 0 0 884 884" xml:space="preserve">
<path fill="#000000" opacity="1.000000" stroke="none" 
	d="
M885.000000,2.000000 
	C885.000000,296.287567 885.000000,590.575134 885.000000,884.931396 
	C590.424927,884.931396 295.849792,884.931396 1.000000,884.931396 
	C1.000000,590.970703 1.000000,296.941284 1.455951,2.455683 
	C296.274597,1.999643 590.637329,1.999821 885.000000,2.000000 
M543.091431,636.945801 
	C549.412720,637.023132 555.746460,636.884949 562.050964,637.251709 
	C566.440186,637.506958 567.826782,635.964050 567.780151,631.577576 
	C567.582092,612.928284 567.689514,594.275635 567.706970,575.624207 
	C567.708618,573.867615 567.861145,572.111145 567.956604,570.078064 
	C570.956177,570.078064 573.471252,570.366577 575.893677,570.015564 
	C580.381653,569.365234 582.128174,571.180176 583.359558,575.519470 
	C588.749329,594.511963 594.554260,613.387451 600.333435,632.267212 
	C600.863525,633.998901 602.217468,636.784546 603.294250,636.835144 
	C611.491211,637.220032 619.714355,637.045898 628.987366,637.045898 
	C621.001770,612.743408 613.368591,589.513550 605.714966,566.221375 
	C614.605652,561.509460 620.581970,554.744690 623.860535,545.843445 
	C628.385254,533.558716 628.413696,521.031250 624.372009,508.647400 
	C618.664185,491.158752 604.862915,481.248352 586.449951,481.118286 
	C573.627686,481.027679 560.804321,481.096558 547.981445,481.102112 
	C541.398132,481.104950 541.267883,481.228363 541.267273,487.832458 
	C541.262878,535.460205 541.252747,583.088013 541.309692,630.715698 
	C541.312012,632.633057 541.969360,634.549561 543.091431,636.945801 
M720.010254,614.489258 
	C714.713928,598.474121 709.417664,582.458984 704.336914,567.095703 
	C708.540344,563.336609 712.777344,560.476074 715.818176,556.661865 
	C726.951355,542.696899 727.639343,526.657043 723.166565,510.277954 
	C718.078735,491.646759 703.820557,481.234100 684.522034,481.122009 
	C671.532837,481.046570 658.540283,481.251556 645.554565,481.025360 
	C641.216309,480.949860 639.761292,482.302856 639.803589,486.724030 
	C639.999573,507.205841 639.890625,527.690552 639.890747,548.174194 
	C639.890930,575.985352 639.979797,603.797058 639.800415,631.607056 
	C639.771851,636.035339 641.133911,637.533142 645.508423,637.246399 
	C650.483093,636.920288 655.511780,636.921875 660.486633,637.246155 
	C664.924438,637.535461 666.206421,635.882446 666.158691,631.525635 
	C665.954407,612.876099 666.071960,594.223083 666.072205,575.571289 
	C666.072205,573.824280 666.072266,572.077332 666.072266,570.072754 
	C669.512695,570.072754 672.203613,570.368347 674.802368,570.004883 
	C678.911682,569.430054 680.485046,571.108521 681.611816,575.006958 
	C687.189331,594.304749 693.197449,613.477722 698.837830,632.757935 
	C699.807434,636.071960 701.259705,637.377502 704.727234,637.237793 
	C710.712769,636.996704 716.717651,637.062317 722.709167,637.211914 
	C726.209473,637.299316 727.204773,636.048157 726.049988,632.735657 
	C724.028076,626.935730 722.152527,621.084778 720.010254,614.489258 
M719.314026,327.998901 
	C710.698242,327.998901 702.082458,327.998901 692.934692,327.998901 
	C692.934692,325.747528 692.934692,323.959473 692.934692,322.171448 
	C692.934265,303.513611 692.868408,284.855377 692.990295,266.198334 
	C693.013916,262.582886 691.849670,261.004333 688.118164,261.121704 
	C682.626221,261.294373 677.119568,261.311584 671.629150,261.115692 
	C667.881348,260.981995 666.667480,262.527740 666.759583,266.154358 
	C666.949890,273.645966 666.816772,281.145782 666.816833,288.642242 
	C666.816895,329.622833 666.872681,370.603607 666.734131,411.583740 
	C666.719604,415.855347 667.766296,417.670227 672.309448,417.348999 
	C677.282166,416.997375 682.314087,417.030151 687.292175,417.341919 
	C691.638245,417.614075 693.080017,416.146790 693.027283,411.698914 
	C692.807983,393.210266 692.934937,374.717529 692.934814,356.226288 
	C692.934814,354.451019 692.934753,352.675720 692.934753,350.739258 
	C703.556152,350.739258 713.623535,350.739258 723.783691,350.739258 
	C723.856750,352.093170 723.956177,353.082397 723.956665,354.071686 
	C723.965759,373.395874 724.046875,392.720703 723.892456,412.043640 
	C723.861816,415.883575 724.935974,417.528595 728.966553,417.329956 
	C734.118225,417.075989 739.305786,417.035980 744.451904,417.341797 
	C748.753296,417.597382 750.236267,416.239502 750.196899,411.740692 
	C749.989929,388.087067 750.099915,364.430603 750.099792,340.775146 
	C750.099670,315.953583 750.028320,291.131561 750.172180,266.310852 
	C750.195068,262.352905 748.855835,260.935883 744.974121,261.113312 
	C740.153137,261.333649 735.314453,261.161011 730.483398,261.167267 
	C723.977539,261.175690 723.967041,261.179413 723.965210,267.477966 
	C723.959839,286.135803 723.944946,304.793640 723.984558,323.451416 
	C723.990173,326.095123 724.230225,328.699371 719.314026,327.998901 
M172.500458,557.212585 
	C166.221756,557.212585 159.943054,557.212585 153.446228,557.212585 
	C153.446228,534.252502 153.446228,511.870178 153.446228,488.858765 
	C186.406204,488.858765 219.085892,488.858765 251.571198,488.858765 
	C251.571198,478.483978 251.571198,468.742310 251.571198,459.161133 
	C208.497131,459.161133 165.798401,459.161133 123.120117,459.161133 
	C123.120117,502.144714 123.120117,544.717285 123.120117,587.534546 
	C149.597092,587.534546 175.807037,587.534546 202.267700,587.534546 
	C202.267700,577.370728 202.267700,567.495056 202.267700,557.212646 
	C192.430710,557.212646 182.965454,557.212646 172.500458,557.212585 
M251.943176,567.500000 
	C251.943176,547.750916 251.943176,528.001831 251.943176,508.304443 
	C225.000015,508.304443 198.759598,508.304443 172.431793,508.304443 
	C172.431793,518.350647 172.431793,528.088013 172.431793,538.501831 
	C188.929871,538.501831 205.133789,538.501831 221.284164,538.501831 
	C221.284164,561.591736 221.284164,583.998718 221.284164,606.929443 
	C188.354935,606.929443 155.798553,606.929443 123.160645,606.929443 
	C123.160645,617.187439 123.160645,626.914551 123.160645,636.697876 
	C166.176971,636.697876 208.888596,636.697876 251.943161,636.697876 
	C251.943161,613.753601 251.943161,591.126770 251.943176,567.500000 
M140.499969,291.764130 
	C198.942383,291.764130 257.384796,291.764130 316.172546,291.764130 
	C316.172546,281.410889 316.172546,271.512207 316.172546,261.507324 
	C230.091599,261.507324 144.258087,261.507324 58.410660,261.507324 
	C58.410660,271.672638 58.410660,281.435944 58.410660,291.763977 
	C85.618523,291.763977 112.559242,291.763977 140.499969,291.764130 
M752.907776,535.408203 
	C745.731018,567.708862 738.581787,600.015625 731.336792,632.300964 
	C730.579346,635.676331 731.082642,637.343079 734.996704,637.212219 
	C740.821838,637.017334 746.663269,637.017700 752.488098,637.216980 
	C755.703125,637.326965 756.860413,635.914795 757.339172,632.958313 
	C758.376038,626.555969 759.837341,620.220215 760.789978,613.807434 
	C761.191833,611.102173 762.171631,610.134399 764.901672,610.170044 
	C774.397400,610.294128 783.899231,610.094421 793.388977,610.362671 
	C794.710632,610.400085 796.816589,612.168518 797.128113,613.476501 
	C798.667114,619.938904 799.876648,626.492676 800.885742,633.062805 
	C801.363647,636.174744 802.713989,637.300537 805.804810,637.212219 
	C811.631775,637.045593 817.470459,637.038879 823.297241,637.206848 
	C827.167297,637.318359 828.175049,636.093201 827.293762,632.152954 
	C816.368347,583.305237 805.584595,534.425781 794.799255,485.546814 
	C794.137939,482.549561 792.825684,480.929840 789.411377,481.038605 
	C782.753296,481.250641 776.079529,481.243011 769.420715,481.044098 
	C765.814941,480.936371 764.570496,482.548279 763.860229,485.877045 
	C760.390747,502.139435 756.682678,518.350952 752.907776,535.408203 
M375.893860,488.568970 
	C364.160370,479.264465 350.731354,477.553711 336.660583,480.674713 
	C306.729431,487.313660 302.183014,518.195129 310.360535,537.576111 
	C315.213013,549.076660 324.297607,556.833313 333.955200,564.096191 
	C342.062469,570.193115 350.222656,576.235168 358.079895,582.644165 
	C364.288086,587.708008 365.982117,594.699951 364.980560,602.460327 
	C364.003693,610.029785 358.466736,615.647217 351.013885,616.614502 
	C343.876465,617.540771 337.375153,613.538208 334.978729,605.977844 
	C333.797882,602.252319 333.601624,598.152771 333.397522,594.199829 
	C333.243683,591.219910 332.119171,589.999512 329.170715,590.043152 
	C323.339600,590.129517 317.505859,590.107300 311.674042,590.050171 
	C308.871826,590.022766 307.475830,591.028564 307.230103,594.074829 
	C305.340210,617.504883 318.721191,635.160706 342.087128,638.508728 
	C366.928711,642.068359 387.043213,628.894226 390.608704,604.612671 
	C393.095947,587.674133 387.441803,573.809875 374.142395,563.122559 
	C362.862091,554.057678 351.386810,545.234680 340.138672,536.130737 
	C333.710327,530.927856 332.073700,523.785400 332.999664,515.878052 
	C333.890961,508.266968 339.065948,502.631653 345.748810,501.923981 
	C354.212372,501.027740 360.634735,504.902679 362.883087,513.022034 
	C363.926514,516.790222 363.889099,520.903625 363.995300,524.869873 
	C364.070435,527.675659 364.807220,529.342712 367.920044,529.315918 
	C374.085205,529.262939 380.263367,529.498230 386.406494,529.125671 
	C387.659241,529.049683 389.745209,526.876160 389.816040,525.580383 
	C390.583344,511.542969 387.534790,498.777191 375.893860,488.568970 
M535.805847,347.808472 
	C535.816467,344.811005 535.853333,341.813354 535.833069,338.816101 
	C535.747192,326.084656 537.154663,328.140503 524.929382,328.010376 
	C517.685974,327.933289 510.441162,327.996277 503.316101,327.996277 
	C503.316101,312.766357 503.316101,298.344879 503.316101,283.645721 
	C505.425507,283.645721 507.242737,283.645721 509.059967,283.645721 
	C522.882812,283.645660 536.706787,283.547760 550.527710,283.707855 
	C554.447388,283.753265 555.958984,282.353668 555.749451,278.452179 
	C555.526550,274.300629 555.607056,270.125183 555.728394,265.965210 
	C555.824341,262.673798 554.678345,261.104279 551.119141,261.117676 
	C527.803894,261.205475 504.488068,261.188416 481.172607,261.133759 
	C477.972260,261.126251 476.802429,262.400238 476.806671,265.618896 
	C476.871185,314.748108 476.866455,363.877411 476.815735,413.006683 
	C476.812775,415.872131 477.603058,417.313660 480.741760,417.305359 
	C504.390289,417.242920 528.039124,417.237244 551.687561,417.314209 
	C554.833130,417.324432 555.772339,415.889771 555.720093,413.054901 
	C555.640259,408.726349 555.535461,404.387177 555.747559,400.067566 
	C555.940857,396.130951 554.363098,394.873260 550.465393,394.923828 
	C536.311890,395.107544 522.154480,394.996277 507.998596,394.996246 
	C506.413330,394.996246 504.828064,394.996246 503.250366,394.996246 
	C503.250366,379.845673 503.250366,365.414276 503.250366,350.376129 
	C512.406738,350.376129 521.347656,350.467834 530.283691,350.298767 
	C532.071899,350.264923 533.841248,349.237000 535.805847,347.808472 
M448.931335,530.500000 
	C448.931274,564.148743 448.933868,597.797485 448.926575,631.446228 
	C448.925964,634.330017 448.503754,637.226135 452.971771,637.210022 
	C476.625549,637.124756 500.279816,637.143860 523.933777,637.200012 
	C527.027893,637.207336 528.034241,635.795227 527.946411,632.910645 
	C527.829895,629.082886 527.635925,625.222656 527.989014,621.424133 
	C528.445801,616.510925 526.918396,614.695557 521.669922,614.832397 
	C507.853333,615.192749 494.021149,614.961914 480.195160,614.944153 
	C478.599731,614.942078 477.004517,614.798645 475.335632,614.717224 
	C475.335632,599.804321 475.335632,585.386475 475.335632,570.334534 
	C483.191406,570.334534 490.799805,570.345154 498.408112,570.332031 
	C509.325287,570.313110 507.933899,571.205750 507.970459,560.659546 
	C508.014771,547.868591 507.981354,547.868469 495.072174,547.868469 
	C488.488647,547.868469 481.905151,547.868469 475.474426,547.868469 
	C475.474426,532.628113 475.474426,518.244324 475.474426,503.747620 
	C476.849335,503.651642 477.832489,503.524170 478.815765,503.523193 
	C493.474640,503.509094 508.134338,503.424927 522.791809,503.568726 
	C526.670471,503.606781 528.254639,502.304199 527.976746,498.336151 
	C527.709717,494.523529 527.696350,490.661194 527.977539,486.850647 
	C528.296631,482.528076 526.739258,480.992889 522.305786,481.026764 
	C499.652496,481.199951 476.996674,481.184235 454.343018,481.038116 
	C450.212524,481.011475 448.799561,482.366669 448.856018,486.523865 
	C449.050476,500.846954 448.931152,515.174255 448.931335,530.500000 
M577.724426,271.232971 
	C570.835266,278.171051 567.010071,286.650391 566.919495,296.296204 
	C566.652039,324.775085 566.714661,353.258392 566.862366,381.738892 
	C566.903931,389.760834 569.640259,397.140076 574.567749,403.497284 
	C584.106079,415.803040 597.220581,419.494415 612.175476,419.054871 
	C636.194946,418.348999 653.394775,399.831329 652.051331,375.924316 
	C651.903198,373.287964 651.152771,371.927155 648.317444,371.854065 
	C643.827576,371.738312 639.346985,371.280792 634.857117,371.144379 
	C625.821045,370.869720 625.819580,370.918732 625.441589,379.988281 
	C625.098511,388.219788 621.062988,394.060974 614.363464,396.023132 
	C602.601929,399.467834 592.945862,391.966003 592.886169,379.002258 
	C592.764465,352.513306 592.845825,326.023376 592.856079,299.533875 
	C592.856567,298.370392 592.900940,297.195435 593.063049,296.045319 
	C594.297058,287.294373 600.736206,281.772308 609.522705,281.889496 
	C618.315491,282.006775 624.451416,287.729828 625.286316,296.702515 
	C625.501892,299.018799 625.462769,301.360443 625.501343,303.691071 
	C625.548584,306.541779 626.745850,307.948486 629.814148,307.748108 
	C635.958374,307.346863 642.136963,307.341919 648.250061,306.691650 
	C649.608215,306.547180 651.770813,304.462250 651.839355,303.178680 
	C652.475342,291.275482 649.751038,280.376709 641.098938,271.572510 
	C625.428772,255.626938 595.625488,255.237701 577.724426,271.232971 
M125.836601,439.632721 
	C134.789795,439.632721 143.742996,439.632721 152.773346,439.632721 
	C152.773346,396.383423 152.773346,353.696381 152.773346,311.057495 
	C121.140015,311.057495 89.894859,311.057495 58.473118,311.057495 
	C58.473118,321.078247 58.473118,330.797791 58.473118,341.047668 
	C80.013962,341.047668 101.237221,341.047668 122.848236,341.047668 
	C122.848236,343.541473 122.848587,345.506836 122.848175,347.472168 
	C122.842079,376.454285 122.800186,405.436554 122.918686,434.418152 
	C122.925781,436.152496 124.215416,437.881592 125.836601,439.632721 
M306.480042,310.758301 
	C278.392548,310.758301 250.305069,310.758301 222.059326,310.758301 
	C222.059326,353.943665 222.059326,396.584320 222.059326,439.295654 
	C232.200806,439.295654 241.937164,439.295654 252.108871,439.295654 
	C252.108871,406.396820 252.108871,373.842224 252.108871,340.692505 
	C273.728058,340.692505 294.911896,340.692505 316.090515,340.692505 
	C316.090515,330.496948 316.090515,320.904388 316.090515,310.758148 
	C313.040558,310.758148 310.257965,310.758148 306.480042,310.758301 
M380.853638,283.660339 
	C388.944855,283.660339 397.036072,283.660339 405.447235,283.660339 
	C405.447235,286.127014 405.447205,287.933746 405.447205,289.740479 
	C405.447205,322.044312 405.447205,354.348175 405.447205,386.652008 
	C405.447205,395.144257 405.579193,403.639465 405.388153,412.127411 
	C405.300873,416.004730 406.637665,417.553528 410.602814,417.350189 
	C415.585144,417.094696 420.619324,416.954071 425.578094,417.380707 
	C430.843536,417.833740 431.965515,415.667969 431.945038,410.786896 
	C431.775330,370.324524 431.848907,329.861176 431.848907,289.398102 
	C431.848907,287.618805 431.848877,285.839508 431.848877,283.660217 
	C441.504395,283.660217 450.625916,283.596222 459.745636,283.695831 
	C462.830017,283.729492 464.387878,282.802765 464.244904,279.410034 
	C464.048737,274.755890 464.099426,270.084564 464.230957,265.425873 
	C464.312988,262.519836 463.299927,261.122223 460.233887,261.127167 
	C433.092072,261.171082 405.950104,261.173279 378.808319,261.122192 
	C375.857880,261.116669 374.515656,262.295380 374.554169,265.245270 
	C374.610687,269.573914 374.777618,273.917297 374.503540,278.229370 
	C374.240082,282.375183 375.802979,284.181000 380.853638,283.660339 
M404.063812,598.500000 
	C404.063995,609.655457 404.176941,620.812622 404.001801,631.965332 
	C403.942291,635.754211 405.010162,637.463684 409.083344,637.251709 
	C414.396942,636.975159 419.750122,636.943481 425.059204,637.260315 
	C429.289459,637.512756 430.641296,635.873413 430.585876,631.803650 
	C430.424927,619.984436 430.529083,608.161560 430.529114,596.340149 
	C430.529175,560.209839 430.532623,524.079529 430.525970,487.949249 
	C430.524750,481.301697 430.322540,481.107483 423.928619,481.097565 
	C419.433136,481.090607 414.937653,481.088165 410.442200,481.098175 
	C404.158264,481.112152 404.066498,481.198608 404.065765,487.610626 
	C404.061493,524.240417 404.063782,560.870178 404.063812,598.500000 
M172.112915,411.500000 
	C172.112915,420.752075 172.112915,430.004150 172.112915,439.341187 
	C182.574814,439.341187 192.316086,439.341187 202.269272,439.341187 
	C202.269272,396.356018 202.269272,353.689789 202.269272,310.908752 
	C192.107712,310.908752 182.338058,310.908752 172.112976,310.908752 
	C172.112976,344.281525 172.112976,377.390778 172.112915,411.500000 
z"/>
<path fill="#404040" opacity="1.000000" stroke="none" 
	d="
M885.000000,1.500000 
	C590.637329,1.999821 296.274597,1.999643 1.455951,1.999732 
	C1.166667,1.666667 1.315919,1.056198 1.502793,1.044456 
	C2.830883,0.961004 4.166667,1.000000 5.500000,1.000000 
	C298.666656,1.000000 591.833313,1.000000 885.000000,1.500000 
z"/>
<path fill="#FBFBFB" opacity="1.000000" stroke="none" 
	d="
M542.706482,636.706177 
	C541.969360,634.549561 541.312012,632.633057 541.309692,630.715698 
	C541.252747,583.088013 541.262878,535.460205 541.267273,487.832458 
	C541.267883,481.228363 541.398132,481.104950 547.981445,481.102112 
	C560.804321,481.096558 573.627686,481.027679 586.449951,481.118286 
	C604.862915,481.248352 618.664185,491.158752 624.372009,508.647400 
	C628.413696,521.031250 628.385254,533.558716 623.860535,545.843445 
	C620.581970,554.744690 614.605652,561.509460 605.714966,566.221375 
	C613.368591,589.513550 621.001770,612.743408 628.987366,637.045898 
	C619.714355,637.045898 611.491211,637.220032 603.294250,636.835144 
	C602.217468,636.784546 600.863525,633.998901 600.333435,632.267212 
	C594.554260,613.387451 588.749329,594.511963 583.359558,575.519470 
	C582.128174,571.180176 580.381653,569.365234 575.893677,570.015564 
	C573.471252,570.366577 570.956177,570.078064 567.956604,570.078064 
	C567.861145,572.111145 567.708618,573.867615 567.706970,575.624207 
	C567.689514,594.275635 567.582092,612.928284 567.780151,631.577576 
	C567.826782,635.964050 566.440186,637.506958 562.050964,637.251709 
	C555.746460,636.884949 549.412720,637.023132 542.706482,636.706177 
M568.658081,549.960510 
	C572.645630,549.992432 576.633179,550.056030 580.620667,550.050232 
	C591.601318,550.034180 598.197815,545.047546 599.977478,534.081604 
	C600.857544,528.658508 600.692993,522.751221 599.518555,517.387634 
	C597.991150,510.412659 593.562927,504.859222 585.890808,503.977112 
	C580.052551,503.305847 574.075134,503.843872 567.919006,503.843872 
	C567.919006,519.168091 567.919006,534.244019 568.658081,549.960510 
z"/>
<path fill="#FDFDFD" opacity="1.000000" stroke="none" 
	d="
M720.112915,614.872253 
	C722.152527,621.084778 724.028076,626.935730 726.049988,632.735657 
	C727.204773,636.048157 726.209473,637.299316 722.709167,637.211914 
	C716.717651,637.062317 710.712769,636.996704 704.727234,637.237793 
	C701.259705,637.377502 699.807434,636.071960 698.837830,632.757935 
	C693.197449,613.477722 687.189331,594.304749 681.611816,575.006958 
	C680.485046,571.108521 678.911682,569.430054 674.802368,570.004883 
	C672.203613,570.368347 669.512695,570.072754 666.072266,570.072754 
	C666.072266,572.077332 666.072205,573.824280 666.072205,575.571289 
	C666.071960,594.223083 665.954407,612.876099 666.158691,631.525635 
	C666.206421,635.882446 664.924438,637.535461 660.486633,637.246155 
	C655.511780,636.921875 650.483093,636.920288 645.508423,637.246399 
	C641.133911,637.533142 639.771851,636.035339 639.800415,631.607056 
	C639.979797,603.797058 639.890930,575.985352 639.890747,548.174194 
	C639.890625,527.690552 639.999573,507.205841 639.803589,486.724030 
	C639.761292,482.302856 641.216309,480.949860 645.554565,481.025360 
	C658.540283,481.251556 671.532837,481.046570 684.522034,481.122009 
	C703.820557,481.234100 718.078735,491.646759 723.166565,510.277954 
	C727.639343,526.657043 726.951355,542.696899 715.818176,556.661865 
	C712.777344,560.476074 708.540344,563.336609 704.336914,567.095703 
	C709.417664,582.458984 714.713928,598.474121 720.112915,614.872253 
M693.989685,509.571747 
	C686.327942,500.335571 675.980469,504.508423 666.369507,503.403229 
	C666.369507,519.284546 666.369507,534.490967 666.369507,550.062317 
	C671.132874,550.062317 675.600952,550.091919 680.068481,550.055969 
	C688.793945,549.985718 695.303223,545.638123 697.683777,537.370789 
	C700.389343,527.974609 700.345642,518.642517 693.989685,509.571747 
z"/>
<path fill="#FEFEFE" opacity="1.000000" stroke="none" 
	d="
M719.792114,327.998840 
	C724.230225,328.699371 723.990173,326.095123 723.984558,323.451416 
	C723.944946,304.793640 723.959839,286.135803 723.965210,267.477966 
	C723.967041,261.179413 723.977539,261.175690 730.483398,261.167267 
	C735.314453,261.161011 740.153137,261.333649 744.974121,261.113312 
	C748.855835,260.935883 750.195068,262.352905 750.172180,266.310852 
	C750.028320,291.131561 750.099670,315.953583 750.099792,340.775146 
	C750.099915,364.430603 749.989929,388.087067 750.196899,411.740692 
	C750.236267,416.239502 748.753296,417.597382 744.451904,417.341797 
	C739.305786,417.035980 734.118225,417.075989 728.966553,417.329956 
	C724.935974,417.528595 723.861816,415.883575 723.892456,412.043640 
	C724.046875,392.720703 723.965759,373.395874 723.956665,354.071686 
	C723.956177,353.082397 723.856750,352.093170 723.783691,350.739258 
	C713.623535,350.739258 703.556152,350.739258 692.934753,350.739258 
	C692.934753,352.675720 692.934814,354.451019 692.934814,356.226288 
	C692.934937,374.717529 692.807983,393.210266 693.027283,411.698914 
	C693.080017,416.146790 691.638245,417.614075 687.292175,417.341919 
	C682.314087,417.030151 677.282166,416.997375 672.309448,417.348999 
	C667.766296,417.670227 666.719604,415.855347 666.734131,411.583740 
	C666.872681,370.603607 666.816895,329.622833 666.816833,288.642242 
	C666.816772,281.145782 666.949890,273.645966 666.759583,266.154358 
	C666.667480,262.527740 667.881348,260.981995 671.629150,261.115692 
	C677.119568,261.311584 682.626221,261.294373 688.118164,261.121704 
	C691.849670,261.004333 693.013916,262.582886 692.990295,266.198334 
	C692.868408,284.855377 692.934265,303.513611 692.934692,322.171448 
	C692.934692,323.959473 692.934692,325.747528 692.934692,327.998901 
	C702.082458,327.998901 710.698242,327.998901 719.792114,327.998840 
z"/>
<path fill="#00B1CB" opacity="1.000000" stroke="none" 
	d="
M173.000336,557.212646 
	C182.965454,557.212646 192.430710,557.212646 202.267700,557.212646 
	C202.267700,567.495056 202.267700,577.370728 202.267700,587.534546 
	C175.807037,587.534546 149.597092,587.534546 123.120117,587.534546 
	C123.120117,544.717285 123.120117,502.144714 123.120117,459.161133 
	C165.798401,459.161133 208.497131,459.161133 251.571198,459.161133 
	C251.571198,468.742310 251.571198,478.483978 251.571198,488.858765 
	C219.085892,488.858765 186.406204,488.858765 153.446228,488.858765 
	C153.446228,511.870178 153.446228,534.252502 153.446228,557.212585 
	C159.943054,557.212585 166.221756,557.212585 173.000336,557.212646 
z"/>
<path fill="#00B2CC" opacity="1.000000" stroke="none" 
	d="
M251.943176,568.000000 
	C251.943161,591.126770 251.943161,613.753601 251.943161,636.697876 
	C208.888596,636.697876 166.176971,636.697876 123.160645,636.697876 
	C123.160645,626.914551 123.160645,617.187439 123.160645,606.929443 
	C155.798553,606.929443 188.354935,606.929443 221.284164,606.929443 
	C221.284164,583.998718 221.284164,561.591736 221.284164,538.501831 
	C205.133789,538.501831 188.929871,538.501831 172.431793,538.501831 
	C172.431793,528.088013 172.431793,518.350647 172.431793,508.304443 
	C198.759598,508.304443 225.000015,508.304443 251.943176,508.304443 
	C251.943176,528.001831 251.943176,547.750916 251.943176,568.000000 
z"/>
<path fill="#00AFC8" opacity="1.000000" stroke="none" 
	d="
M139.999969,291.764038 
	C112.559242,291.763977 85.618523,291.763977 58.410660,291.763977 
	C58.410660,281.435944 58.410660,271.672638 58.410660,261.507324 
	C144.258087,261.507324 230.091599,261.507324 316.172546,261.507324 
	C316.172546,271.512207 316.172546,281.410889 316.172546,291.764130 
	C257.384796,291.764130 198.942383,291.764130 139.999969,291.764038 
z"/>
<path fill="#00B1CA" opacity="1.000000" stroke="none" 
	d="
M752.983398,534.994324 
	C756.682678,518.350952 760.390747,502.139435 763.860229,485.877045 
	C764.570496,482.548279 765.814941,480.936371 769.420715,481.044098 
	C776.079529,481.243011 782.753296,481.250641 789.411377,481.038605 
	C792.825684,480.929840 794.137939,482.549561 794.799255,485.546814 
	C805.584595,534.425781 816.368347,583.305237 827.293762,632.152954 
	C828.175049,636.093201 827.167297,637.318359 823.297241,637.206848 
	C817.470459,637.038879 811.631775,637.045593 805.804810,637.212219 
	C802.713989,637.300537 801.363647,636.174744 800.885742,633.062805 
	C799.876648,626.492676 798.667114,619.938904 797.128113,613.476501 
	C796.816589,612.168518 794.710632,610.400085 793.388977,610.362671 
	C783.899231,610.094421 774.397400,610.294128 764.901672,610.170044 
	C762.171631,610.134399 761.191833,611.102173 760.789978,613.807434 
	C759.837341,620.220215 758.376038,626.555969 757.339172,632.958313 
	C756.860413,635.914795 755.703125,637.326965 752.488098,637.216980 
	C746.663269,637.017700 740.821838,637.017334 734.996704,637.212219 
	C731.082642,637.343079 730.579346,635.676331 731.336792,632.300964 
	C738.581787,600.015625 745.731018,567.708862 752.983398,534.994324 
M782.656799,534.820496 
	C781.571106,529.274109 780.485413,523.727722 779.399719,518.181335 
	C779.006653,518.223816 778.613586,518.266235 778.220581,518.308716 
	C773.889832,542.032654 769.559143,565.756531 765.179138,589.750610 
	C774.703796,589.750610 783.451050,589.750610 792.807983,589.750610 
	C789.433655,571.488586 786.124084,553.577332 782.656799,534.820496 
z"/>
<path fill="#FCFCFC" opacity="1.000000" stroke="none" 
	d="
M376.172668,488.793457 
	C387.534790,498.777191 390.583344,511.542969 389.816040,525.580383 
	C389.745209,526.876160 387.659241,529.049683 386.406494,529.125671 
	C380.263367,529.498230 374.085205,529.262939 367.920044,529.315918 
	C364.807220,529.342712 364.070435,527.675659 363.995300,524.869873 
	C363.889099,520.903625 363.926514,516.790222 362.883087,513.022034 
	C360.634735,504.902679 354.212372,501.027740 345.748810,501.923981 
	C339.065948,502.631653 333.890961,508.266968 332.999664,515.878052 
	C332.073700,523.785400 333.710327,530.927856 340.138672,536.130737 
	C351.386810,545.234680 362.862091,554.057678 374.142395,563.122559 
	C387.441803,573.809875 393.095947,587.674133 390.608704,604.612671 
	C387.043213,628.894226 366.928711,642.068359 342.087128,638.508728 
	C318.721191,635.160706 305.340210,617.504883 307.230103,594.074829 
	C307.475830,591.028564 308.871826,590.022766 311.674042,590.050171 
	C317.505859,590.107300 323.339600,590.129517 329.170715,590.043152 
	C332.119171,589.999512 333.243683,591.219910 333.397522,594.199829 
	C333.601624,598.152771 333.797882,602.252319 334.978729,605.977844 
	C337.375153,613.538208 343.876465,617.540771 351.013885,616.614502 
	C358.466736,615.647217 364.003693,610.029785 364.980560,602.460327 
	C365.982117,594.699951 364.288086,587.708008 358.079895,582.644165 
	C350.222656,576.235168 342.062469,570.193115 333.955200,564.096191 
	C324.297607,556.833313 315.213013,549.076660 310.360535,537.576111 
	C302.183014,518.195129 306.729431,487.313660 336.660583,480.674713 
	C350.731354,477.553711 364.160370,479.264465 376.172668,488.793457 
z"/>
<path fill="#FDFDFD" opacity="1.000000" stroke="none" 
	d="
M535.712585,348.237976 
	C533.841248,349.237000 532.071899,350.264923 530.283691,350.298767 
	C521.347656,350.467834 512.406738,350.376129 503.250366,350.376129 
	C503.250366,365.414276 503.250366,379.845673 503.250366,394.996246 
	C504.828064,394.996246 506.413330,394.996246 507.998596,394.996246 
	C522.154480,394.996277 536.311890,395.107544 550.465393,394.923828 
	C554.363098,394.873260 555.940857,396.130951 555.747559,400.067566 
	C555.535461,404.387177 555.640259,408.726349 555.720093,413.054901 
	C555.772339,415.889771 554.833130,417.324432 551.687561,417.314209 
	C528.039124,417.237244 504.390289,417.242920 480.741760,417.305359 
	C477.603058,417.313660 476.812775,415.872131 476.815735,413.006683 
	C476.866455,363.877411 476.871185,314.748108 476.806671,265.618896 
	C476.802429,262.400238 477.972260,261.126251 481.172607,261.133759 
	C504.488068,261.188416 527.803894,261.205475 551.119141,261.117676 
	C554.678345,261.104279 555.824341,262.673798 555.728394,265.965210 
	C555.607056,270.125183 555.526550,274.300629 555.749451,278.452179 
	C555.958984,282.353668 554.447388,283.753265 550.527710,283.707855 
	C536.706787,283.547760 522.882812,283.645660 509.059967,283.645721 
	C507.242737,283.645721 505.425507,283.645721 503.316101,283.645721 
	C503.316101,298.344879 503.316101,312.766357 503.316101,327.996277 
	C510.441162,327.996277 517.685974,327.933289 524.929382,328.010376 
	C537.154663,328.140503 535.747192,326.084656 535.833069,338.816101 
	C535.853333,341.813354 535.816467,344.811005 535.712585,348.237976 
z"/>
<path fill="#FDFDFD" opacity="1.000000" stroke="none" 
	d="
M448.931335,530.000000 
	C448.931152,515.174255 449.050476,500.846954 448.856018,486.523865 
	C448.799561,482.366669 450.212524,481.011475 454.343018,481.038116 
	C476.996674,481.184235 499.652496,481.199951 522.305786,481.026764 
	C526.739258,480.992889 528.296631,482.528076 527.977539,486.850647 
	C527.696350,490.661194 527.709717,494.523529 527.976746,498.336151 
	C528.254639,502.304199 526.670471,503.606781 522.791809,503.568726 
	C508.134338,503.424927 493.474640,503.509094 478.815765,503.523193 
	C477.832489,503.524170 476.849335,503.651642 475.474426,503.747620 
	C475.474426,518.244324 475.474426,532.628113 475.474426,547.868469 
	C481.905151,547.868469 488.488647,547.868469 495.072174,547.868469 
	C507.981354,547.868469 508.014771,547.868591 507.970459,560.659546 
	C507.933899,571.205750 509.325287,570.313110 498.408112,570.332031 
	C490.799805,570.345154 483.191406,570.334534 475.335632,570.334534 
	C475.335632,585.386475 475.335632,599.804321 475.335632,614.717224 
	C477.004517,614.798645 478.599731,614.942078 480.195160,614.944153 
	C494.021149,614.961914 507.853333,615.192749 521.669922,614.832397 
	C526.918396,614.695557 528.445801,616.510925 527.989014,621.424133 
	C527.635925,625.222656 527.829895,629.082886 527.946411,632.910645 
	C528.034241,635.795227 527.027893,637.207336 523.933777,637.200012 
	C500.279816,637.143860 476.625549,637.124756 452.971771,637.210022 
	C448.503754,637.226135 448.925964,634.330017 448.926575,631.446228 
	C448.933868,597.797485 448.931274,564.148743 448.931335,530.000000 
z"/>
<path fill="#00B1CA" opacity="1.000000" stroke="none" 
	d="
M577.984863,270.988586 
	C595.625488,255.237701 625.428772,255.626938 641.098938,271.572510 
	C649.751038,280.376709 652.475342,291.275482 651.839355,303.178680 
	C651.770813,304.462250 649.608215,306.547180 648.250061,306.691650 
	C642.136963,307.341919 635.958374,307.346863 629.814148,307.748108 
	C626.745850,307.948486 625.548584,306.541779 625.501343,303.691071 
	C625.462769,301.360443 625.501892,299.018799 625.286316,296.702515 
	C624.451416,287.729828 618.315491,282.006775 609.522705,281.889496 
	C600.736206,281.772308 594.297058,287.294373 593.063049,296.045319 
	C592.900940,297.195435 592.856567,298.370392 592.856079,299.533875 
	C592.845825,326.023376 592.764465,352.513306 592.886169,379.002258 
	C592.945862,391.966003 602.601929,399.467834 614.363464,396.023132 
	C621.062988,394.060974 625.098511,388.219788 625.441589,379.988281 
	C625.819580,370.918732 625.821045,370.869720 634.857117,371.144379 
	C639.346985,371.280792 643.827576,371.738312 648.317444,371.854065 
	C651.152771,371.927155 651.903198,373.287964 652.051331,375.924316 
	C653.394775,399.831329 636.194946,418.348999 612.175476,419.054871 
	C597.220581,419.494415 584.106079,415.803040 574.567749,403.497284 
	C569.640259,397.140076 566.903931,389.760834 566.862366,381.738892 
	C566.714661,353.258392 566.652039,324.775085 566.919495,296.296204 
	C567.010071,286.650391 570.835266,278.171051 577.984863,270.988586 
z"/>
<path fill="#00B1CB" opacity="1.000000" stroke="none" 
	d="
M125.372437,439.622925 
	C124.215416,437.881592 122.925781,436.152496 122.918686,434.418152 
	C122.800186,405.436554 122.842079,376.454285 122.848175,347.472168 
	C122.848587,345.506836 122.848236,343.541473 122.848236,341.047668 
	C101.237221,341.047668 80.013962,341.047668 58.473118,341.047668 
	C58.473118,330.797791 58.473118,321.078247 58.473118,311.057495 
	C89.894859,311.057495 121.140015,311.057495 152.773346,311.057495 
	C152.773346,353.696381 152.773346,396.383423 152.773346,439.632721 
	C143.742996,439.632721 134.789795,439.632721 125.372437,439.622925 
z"/>
<path fill="#00B1CB" opacity="1.000000" stroke="none" 
	d="
M306.977722,310.758240 
	C310.257965,310.758148 313.040558,310.758148 316.090515,310.758148 
	C316.090515,320.904388 316.090515,330.496948 316.090515,340.692505 
	C294.911896,340.692505 273.728058,340.692505 252.108871,340.692505 
	C252.108871,373.842224 252.108871,406.396820 252.108871,439.295654 
	C241.937164,439.295654 232.200806,439.295654 222.059326,439.295654 
	C222.059326,396.584320 222.059326,353.943665 222.059326,310.758301 
	C250.305069,310.758301 278.392548,310.758301 306.977722,310.758240 
z"/>
<path fill="#F8F8F8" opacity="1.000000" stroke="none" 
	d="
M380.399933,283.660339 
	C375.802979,284.181000 374.240082,282.375183 374.503540,278.229370 
	C374.777618,273.917297 374.610687,269.573914 374.554169,265.245270 
	C374.515656,262.295380 375.857880,261.116669 378.808319,261.122192 
	C405.950104,261.173279 433.092072,261.171082 460.233887,261.127167 
	C463.299927,261.122223 464.312988,262.519836 464.230957,265.425873 
	C464.099426,270.084564 464.048737,274.755890 464.244904,279.410034 
	C464.387878,282.802765 462.830017,283.729492 459.745636,283.695831 
	C450.625916,283.596222 441.504395,283.660217 431.848877,283.660217 
	C431.848877,285.839508 431.848907,287.618805 431.848907,289.398102 
	C431.848907,329.861176 431.775330,370.324524 431.945038,410.786896 
	C431.965515,415.667969 430.843536,417.833740 425.578094,417.380707 
	C420.619324,416.954071 415.585144,417.094696 410.602814,417.350189 
	C406.637665,417.553528 405.300873,416.004730 405.388153,412.127411 
	C405.579193,403.639465 405.447205,395.144257 405.447205,386.652008 
	C405.447205,354.348175 405.447205,322.044312 405.447205,289.740479 
	C405.447205,287.933746 405.447235,286.127014 405.447235,283.660339 
	C397.036072,283.660339 388.944855,283.660339 380.399933,283.660339 
z"/>
<path fill="#F9F9F9" opacity="1.000000" stroke="none" 
	d="
M404.063812,598.000000 
	C404.063782,560.870178 404.061493,524.240417 404.065765,487.610626 
	C404.066498,481.198608 404.158264,481.112152 410.442200,481.098175 
	C414.937653,481.088165 419.433136,481.090607 423.928619,481.097565 
	C430.322540,481.107483 430.524750,481.301697 430.525970,487.949249 
	C430.532623,524.079529 430.529175,560.209839 430.529114,596.340149 
	C430.529083,608.161560 430.424927,619.984436 430.585876,631.803650 
	C430.641296,635.873413 429.289459,637.512756 425.059204,637.260315 
	C419.750122,636.943481 414.396942,636.975159 409.083344,637.251709 
	C405.010162,637.463684 403.942291,635.754211 404.001801,631.965332 
	C404.176941,620.812622 404.063995,609.655457 404.063812,598.000000 
z"/>
<path fill="#00AEC7" opacity="1.000000" stroke="none" 
	d="
M172.112946,411.000000 
	C172.112976,377.390778 172.112976,344.281525 172.112976,310.908752 
	C182.338058,310.908752 192.107712,310.908752 202.269272,310.908752 
	C202.269272,353.689789 202.269272,396.356018 202.269272,439.341187 
	C192.316086,439.341187 182.574814,439.341187 172.112915,439.341187 
	C172.112915,430.004150 172.112915,420.752075 172.112946,411.000000 
z"/>
<path fill="#020202" opacity="1.000000" stroke="none" 
	d="
M568.288574,549.640259 
	C567.919006,534.244019 567.919006,519.168091 567.919006,503.843872 
	C574.075134,503.843872 580.052551,503.305847 585.890808,503.977112 
	C593.562927,504.859222 597.991150,510.412659 599.518555,517.387634 
	C600.692993,522.751221 600.857544,528.658508 599.977478,534.081604 
	C598.197815,545.047546 591.601318,550.034180 580.620667,550.050232 
	C576.633179,550.056030 572.645630,549.992432 568.288574,549.640259 
z"/>
<path fill="#020202" opacity="1.000000" stroke="none" 
	d="
M694.229736,509.852448 
	C700.345642,518.642517 700.389343,527.974609 697.683777,537.370789 
	C695.303223,545.638123 688.793945,549.985718 680.068481,550.055969 
	C675.600952,550.091919 671.132874,550.062317 666.369507,550.062317 
	C666.369507,534.490967 666.369507,519.284546 666.369507,503.403229 
	C675.980469,504.508423 686.327942,500.335571 694.229736,509.852448 
z"/>
<path fill="#000304" opacity="1.000000" stroke="none" 
	d="
M782.735657,535.243286 
	C786.124084,553.577332 789.433655,571.488586 792.807983,589.750610 
	C783.451050,589.750610 774.703796,589.750610 765.179138,589.750610 
	C769.559143,565.756531 773.889832,542.032654 778.220581,518.308716 
	C778.613586,518.266235 779.006653,518.223816 779.399719,518.181335 
	C780.485413,523.727722 781.571106,529.274109 782.735657,535.243286 
z"/>
</svg>